M48
; DRILL file {KiCad 8.0.4} date 2024-08-16T15:34:17+0200
; FORMAT={-:-/ absolute / metric / decimal}
; #@! TF.CreationDate,2024-08-16T15:34:17+02:00
; #@! TF.GenerationSoftware,Kicad,Pcbnew,8.0.4
; #@! TF.FileFunction,Plated,1,2,PTH
FMAT,2
METRIC
; #@! TA.AperFunction,Plated,PTH,ViaDrill
T1C0.400
; #@! TA.AperFunction,Plated,PTH,ComponentDrill
T2C1.000
%
G90
G05
T1
X25.914Y-16.704
X27.432Y-21.778
X30.48Y-18.984
X30.708Y-23.114
X37.338Y-17.968
X43.662Y-22.098
X43.916Y-23.368
X43.929Y-18.275
X44.17Y-24.638
X44.45Y-19.746
X51.79Y-24.384
X51.816Y-18.73
X52.324Y-20.0
X54.102Y-24.064
T2
X16.23Y-29.972
X18.77Y-29.972
X21.31Y-29.972
X23.85Y-29.972
X26.39Y-29.972
X28.93Y-29.972
X31.47Y-29.972
X34.01Y-29.972
X36.55Y-29.972
X39.09Y-29.972
X41.63Y-29.972
X44.17Y-29.972
X46.71Y-29.972
X49.25Y-29.972
X51.79Y-29.972
X54.33Y-29.972
M30
