G04 #@! TF.GenerationSoftware,KiCad,Pcbnew,8.0.4*
G04 #@! TF.CreationDate,2024-08-16T15:34:14+02:00*
G04 #@! TF.ProjectId,AT8,4154382e-6b69-4636-9164-5f7063625858,00*
G04 #@! TF.SameCoordinates,Original*
G04 #@! TF.FileFunction,Copper,L1,Top*
G04 #@! TF.FilePolarity,Positive*
%FSLAX46Y46*%
G04 Gerber Fmt 4.6, Leading zero omitted, Abs format (unit mm)*
G04 Created by KiCad (PCBNEW 8.0.4) date 2024-08-16 15:34:14*
%MOMM*%
%LPD*%
G01*
G04 APERTURE LIST*
G04 Aperture macros list*
%AMRoundRect*
0 Rectangle with rounded corners*
0 $1 Rounding radius*
0 $2 $3 $4 $5 $6 $7 $8 $9 X,Y pos of 4 corners*
0 Add a 4 corners polygon primitive as box body*
4,1,4,$2,$3,$4,$5,$6,$7,$8,$9,$2,$3,0*
0 Add four circle primitives for the rounded corners*
1,1,$1+$1,$2,$3*
1,1,$1+$1,$4,$5*
1,1,$1+$1,$6,$7*
1,1,$1+$1,$8,$9*
0 Add four rect primitives between the rounded corners*
20,1,$1+$1,$2,$3,$4,$5,0*
20,1,$1+$1,$4,$5,$6,$7,0*
20,1,$1+$1,$6,$7,$8,$9,0*
20,1,$1+$1,$8,$9,$2,$3,0*%
G04 Aperture macros list end*
G04 #@! TA.AperFunction,ComponentPad*
%ADD10O,1.700000X1.700000*%
G04 #@! TD*
G04 #@! TA.AperFunction,ComponentPad*
%ADD11R,1.700000X1.700000*%
G04 #@! TD*
G04 #@! TA.AperFunction,SMDPad,CuDef*
%ADD12RoundRect,0.250000X-0.450000X0.262500X-0.450000X-0.262500X0.450000X-0.262500X0.450000X0.262500X0*%
G04 #@! TD*
G04 #@! TA.AperFunction,SMDPad,CuDef*
%ADD13RoundRect,0.250000X-0.250000X-0.475000X0.250000X-0.475000X0.250000X0.475000X-0.250000X0.475000X0*%
G04 #@! TD*
G04 #@! TA.AperFunction,SMDPad,CuDef*
%ADD14RoundRect,0.250000X0.262500X0.450000X-0.262500X0.450000X-0.262500X-0.450000X0.262500X-0.450000X0*%
G04 #@! TD*
G04 #@! TA.AperFunction,SMDPad,CuDef*
%ADD15RoundRect,0.250000X-0.262500X-0.450000X0.262500X-0.450000X0.262500X0.450000X-0.262500X0.450000X0*%
G04 #@! TD*
G04 #@! TA.AperFunction,SMDPad,CuDef*
%ADD16RoundRect,0.250000X0.250000X0.475000X-0.250000X0.475000X-0.250000X-0.475000X0.250000X-0.475000X0*%
G04 #@! TD*
G04 #@! TA.AperFunction,SMDPad,CuDef*
%ADD17RoundRect,0.250000X0.450000X-0.262500X0.450000X0.262500X-0.450000X0.262500X-0.450000X-0.262500X0*%
G04 #@! TD*
G04 #@! TA.AperFunction,SMDPad,CuDef*
%ADD18RoundRect,0.150000X-0.825000X-0.150000X0.825000X-0.150000X0.825000X0.150000X-0.825000X0.150000X0*%
G04 #@! TD*
G04 #@! TA.AperFunction,SMDPad,CuDef*
%ADD19RoundRect,0.250000X0.475000X-0.250000X0.475000X0.250000X-0.475000X0.250000X-0.475000X-0.250000X0*%
G04 #@! TD*
G04 #@! TA.AperFunction,ViaPad*
%ADD20C,0.800000*%
G04 #@! TD*
G04 #@! TA.AperFunction,Conductor*
%ADD21C,0.254000*%
G04 #@! TD*
G04 APERTURE END LIST*
D10*
X54330000Y-29972000D03*
X51790000Y-29972000D03*
X49250000Y-29972000D03*
X46710000Y-29972000D03*
X44170000Y-29972000D03*
X41630000Y-29972000D03*
X39090000Y-29972000D03*
X36550000Y-29972000D03*
X34010000Y-29972000D03*
X31470000Y-29972000D03*
X28930000Y-29972000D03*
X26390000Y-29972000D03*
X23850000Y-29972000D03*
X21310000Y-29972000D03*
X18770000Y-29972000D03*
D11*
X16230000Y-29972000D03*
D12*
X48742000Y-23471500D03*
X48742000Y-25296500D03*
D13*
X48403500Y-19558000D03*
X50303500Y-19558000D03*
D14*
X50266000Y-17272000D03*
X48441000Y-17272000D03*
X53822000Y-17272000D03*
X51997000Y-17272000D03*
D15*
X21921500Y-16256000D03*
X23746500Y-16256000D03*
D16*
X36841500Y-24892000D03*
X34941500Y-24892000D03*
D15*
X27255500Y-15494000D03*
X29080500Y-15494000D03*
D17*
X38862000Y-16848500D03*
X38862000Y-15023500D03*
D18*
X41290500Y-17018000D03*
X41290500Y-18288000D03*
X41290500Y-19558000D03*
X41290500Y-20828000D03*
X41290500Y-22098000D03*
X41290500Y-23368000D03*
X41290500Y-24638000D03*
X46240500Y-24638000D03*
X46240500Y-23368000D03*
X46240500Y-22098000D03*
X46240500Y-20828000D03*
X46240500Y-19558000D03*
X46240500Y-18288000D03*
X46240500Y-17018000D03*
D15*
X28551500Y-20508000D03*
X30376500Y-20508000D03*
D14*
X36954500Y-22733000D03*
X35129500Y-22733000D03*
X52806000Y-22860000D03*
X50981000Y-22860000D03*
X32890500Y-16190000D03*
X31065500Y-16190000D03*
D15*
X27281500Y-17714000D03*
X29106500Y-17714000D03*
X39090000Y-26924000D03*
X40915000Y-26924000D03*
X33097500Y-26924000D03*
X34922500Y-26924000D03*
X50981000Y-26096000D03*
X52806000Y-26096000D03*
D12*
X32613000Y-22963500D03*
X32613000Y-24788500D03*
D19*
X36042000Y-16886000D03*
X36042000Y-14986000D03*
D14*
X44574500Y-26416000D03*
X42749500Y-26416000D03*
D12*
X28956000Y-22389500D03*
X28956000Y-24214500D03*
D19*
X38862000Y-20762000D03*
X38862000Y-18862000D03*
D14*
X33906500Y-19558000D03*
X32081500Y-19558000D03*
D20*
X51816000Y-18730000D03*
X37338000Y-17968000D03*
X44450000Y-19746000D03*
X27432000Y-21778000D03*
X25914067Y-16704067D03*
X54102000Y-24064000D03*
X43662000Y-22098000D03*
X51790000Y-24384000D03*
X44170000Y-24638000D03*
X52324000Y-20000000D03*
X43929000Y-18275000D03*
X43916000Y-23368000D03*
X30708000Y-23114000D03*
X30480000Y-18984000D03*
D21*
X34941500Y-24892000D02*
X32589500Y-24892000D01*
X34941500Y-25184750D02*
X36680750Y-26924000D01*
X36680750Y-26924000D02*
X38796000Y-26924000D01*
X38796000Y-26924000D02*
X41082000Y-24638000D01*
X32051000Y-15640072D02*
X31573928Y-15163000D01*
X25440250Y-14467000D02*
X23746500Y-16160750D01*
X28249000Y-14467000D02*
X25440250Y-14467000D01*
X31573928Y-15163000D02*
X29221000Y-15163000D01*
X32051000Y-17253000D02*
X32051000Y-15640072D01*
X40452000Y-18288000D02*
X39116000Y-16952000D01*
X38824500Y-16886000D02*
X36042000Y-16886000D01*
X29080500Y-15298500D02*
X28249000Y-14467000D01*
X35052000Y-17714000D02*
X32512000Y-17714000D01*
X35880000Y-16886000D02*
X35052000Y-17714000D01*
X32512000Y-17714000D02*
X32051000Y-17253000D01*
X32935500Y-23217500D02*
X33528000Y-23810000D01*
X45683000Y-25389000D02*
X43577750Y-25389000D01*
X47472000Y-27178000D02*
X45683000Y-25389000D01*
X51750000Y-27178000D02*
X47472000Y-27178000D01*
X36841500Y-24726250D02*
X38199750Y-23368000D01*
X43577750Y-25389000D02*
X42749500Y-26217250D01*
X42749500Y-24443264D02*
X41674236Y-23368000D01*
X42749500Y-26416000D02*
X42749500Y-24443264D01*
X35913750Y-23810000D02*
X36841500Y-24737750D01*
X52512000Y-26416000D02*
X51750000Y-27178000D01*
X33528000Y-23810000D02*
X35913750Y-23810000D01*
X38199750Y-23368000D02*
X41290500Y-23368000D01*
X36042000Y-14986000D02*
X33840500Y-14986000D01*
X33840500Y-14986000D02*
X32890500Y-15936000D01*
X40960000Y-17018000D02*
X39296000Y-15354000D01*
X38420000Y-14986000D02*
X36042000Y-14986000D01*
X55634000Y-22548000D02*
X53848000Y-20762000D01*
X53848000Y-20762000D02*
X49276000Y-20762000D01*
X47432000Y-20828000D02*
X48403500Y-19856500D01*
X52994000Y-31176000D02*
X55110000Y-31176000D01*
X55634000Y-30652000D02*
X55634000Y-22548000D01*
X49276000Y-20762000D02*
X48403500Y-19889500D01*
X46240500Y-20828000D02*
X47432000Y-20828000D01*
X51790000Y-29972000D02*
X52994000Y-31176000D01*
X55110000Y-31176000D02*
X55634000Y-30652000D01*
X50988000Y-19558000D02*
X50303500Y-19558000D01*
X26846500Y-17636500D02*
X27509500Y-17636500D01*
X27432000Y-21778000D02*
X27432000Y-21627500D01*
X54102000Y-24064000D02*
X54010000Y-24064000D01*
X37968000Y-17968000D02*
X37338000Y-17968000D01*
X38862000Y-18862000D02*
X37968000Y-17968000D01*
X54010000Y-24064000D02*
X52806000Y-22860000D01*
X51816000Y-18730000D02*
X50988000Y-19558000D01*
X27432000Y-21627500D02*
X28551500Y-20508000D01*
X25914067Y-16704067D02*
X26846500Y-17636500D01*
X44450000Y-19746000D02*
X44638000Y-19558000D01*
X44638000Y-19558000D02*
X46240500Y-19558000D01*
X54330000Y-29972000D02*
X54864000Y-29438000D01*
X44051000Y-21471000D02*
X43408000Y-20828000D01*
X54864000Y-29438000D02*
X54864000Y-23140000D01*
X41290500Y-20828000D02*
X39278000Y-20828000D01*
X43408000Y-20828000D02*
X41290500Y-20828000D01*
X54864000Y-23140000D02*
X53195000Y-21471000D01*
X53195000Y-21471000D02*
X44051000Y-21471000D01*
X46240500Y-22098000D02*
X43662000Y-22098000D01*
X46428500Y-22286000D02*
X46240500Y-22098000D01*
X50407000Y-22286000D02*
X46428500Y-22286000D01*
X50981000Y-22860000D02*
X50407000Y-22286000D01*
X32551914Y-28636000D02*
X28956000Y-25040086D01*
X34457020Y-28636000D02*
X32551914Y-28636000D01*
X35793020Y-29972000D02*
X34457020Y-28636000D01*
X28956000Y-25040086D02*
X28956000Y-24214500D01*
X36550000Y-29972000D02*
X35793020Y-29972000D01*
X50981000Y-25932500D02*
X50345000Y-25296500D01*
X48742000Y-25296500D02*
X47714500Y-25296500D01*
X51816000Y-25170500D02*
X51816000Y-24410000D01*
X51816000Y-24410000D02*
X51790000Y-24384000D01*
X50345000Y-25296500D02*
X48742000Y-25296500D01*
X50981000Y-26005500D02*
X51816000Y-25170500D01*
X47714500Y-25296500D02*
X47056000Y-24638000D01*
X52324000Y-20000000D02*
X53822000Y-18502000D01*
X53822000Y-18502000D02*
X53822000Y-17272000D01*
X46240500Y-24638000D02*
X44170000Y-24638000D01*
X45694000Y-26416000D02*
X44574500Y-26416000D01*
X49250000Y-29972000D02*
X45694000Y-26416000D01*
X28930000Y-29972000D02*
X24130000Y-25172000D01*
X24130000Y-17460000D02*
X25913750Y-15676250D01*
X24130000Y-25172000D02*
X24130000Y-17460000D01*
X25913750Y-15676250D02*
X27255500Y-15676250D01*
X49473000Y-18299000D02*
X50266000Y-17506000D01*
X43942000Y-18288000D02*
X46240500Y-18288000D01*
X50266000Y-17272000D02*
X51997000Y-17272000D01*
X43929000Y-18275000D02*
X43942000Y-18288000D01*
X46251500Y-18299000D02*
X49473000Y-18299000D01*
X46240500Y-23368000D02*
X48638500Y-23368000D01*
X46240500Y-23368000D02*
X43916000Y-23368000D01*
X25654000Y-24537000D02*
X31089000Y-29972000D01*
X25654000Y-21016000D02*
X25654000Y-24537000D01*
X28194000Y-17091072D02*
X28194000Y-18476000D01*
X30734500Y-16521000D02*
X28764072Y-16521000D01*
X28194000Y-18476000D02*
X25654000Y-21016000D01*
X28764072Y-16521000D02*
X28194000Y-17091072D01*
X34041750Y-28128000D02*
X35814000Y-28128000D01*
X36091000Y-28405000D02*
X40063000Y-28405000D01*
X40063000Y-28405000D02*
X41630000Y-29972000D01*
X33387072Y-27473322D02*
X34041750Y-28128000D01*
X35814000Y-28128000D02*
X36091000Y-28405000D01*
X31290530Y-28128000D02*
X30734000Y-28128000D01*
X30734000Y-28128000D02*
X27686000Y-25080000D01*
X34229000Y-22733000D02*
X33528000Y-22032000D01*
X27686000Y-25080000D02*
X27686000Y-23556000D01*
X33134530Y-29972000D02*
X31290530Y-28128000D01*
X27686000Y-23556000D02*
X28598500Y-22643500D01*
X35129500Y-22733000D02*
X34229000Y-22733000D01*
X33528000Y-22032000D02*
X29106500Y-22032000D01*
X33471448Y-29972000D02*
X33134530Y-29972000D01*
X46028000Y-13958000D02*
X24076000Y-13958000D01*
X48441000Y-16971000D02*
X48441000Y-16371000D01*
X21921500Y-25503500D02*
X26390000Y-29972000D01*
X46028000Y-13958000D02*
X48441000Y-16371000D01*
X48187000Y-17018000D02*
X46240500Y-17018000D01*
X24076000Y-13958000D02*
X22175500Y-15858500D01*
X21921500Y-15858500D02*
X21921500Y-25503500D01*
X41036500Y-19812000D02*
X34160500Y-19812000D01*
X32766000Y-18222000D02*
X33906500Y-19362500D01*
X31496000Y-18222000D02*
X32766000Y-18222000D01*
X41290500Y-19558000D02*
X41036500Y-19812000D01*
X29400500Y-17460000D02*
X30734000Y-17460000D01*
X30734000Y-17460000D02*
X31496000Y-18222000D01*
X32258000Y-21270000D02*
X35669875Y-21270000D01*
X37401500Y-22286000D02*
X36954500Y-22733000D01*
X31496000Y-20508000D02*
X32258000Y-21270000D01*
X41102500Y-22286000D02*
X37401500Y-22286000D01*
X30376500Y-20508000D02*
X31496000Y-20508000D01*
X41290500Y-22098000D02*
X41102500Y-22286000D01*
X35669875Y-21270000D02*
X36844625Y-22444750D01*
X40894000Y-27497000D02*
X44235000Y-27497000D01*
X44235000Y-27497000D02*
X46710000Y-29972000D01*
X31253500Y-18730000D02*
X32081500Y-19558000D01*
X30708000Y-23114000D02*
X30708000Y-24546000D01*
X34091000Y-25897000D02*
X34922500Y-26728500D01*
X32059000Y-25897000D02*
X34091000Y-25897000D01*
X35376500Y-27378000D02*
X34922500Y-26924000D01*
X37161000Y-27951000D02*
X36588000Y-27378000D01*
X30480000Y-18984000D02*
X30734000Y-18730000D01*
X44170000Y-29972000D02*
X42149000Y-27951000D01*
X42149000Y-27951000D02*
X37161000Y-27951000D01*
X30708000Y-24546000D02*
X32059000Y-25897000D01*
X30734000Y-18730000D02*
X31253500Y-18730000D01*
X36588000Y-27378000D02*
X35376500Y-27378000D01*
G04 #@! TA.AperFunction,Conductor*
G36*
X41289064Y-24641512D02*
G01*
X41294674Y-24648295D01*
X41382768Y-24927788D01*
X41381987Y-24936708D01*
X41376100Y-24942109D01*
X40666899Y-25236929D01*
X40657944Y-25236940D01*
X40654135Y-25234398D01*
X40481264Y-25061527D01*
X40479256Y-25058838D01*
X40402911Y-24918282D01*
X40401973Y-24909377D01*
X40407608Y-24902417D01*
X40409828Y-24901492D01*
X41280157Y-24640605D01*
X41289064Y-24641512D01*
G37*
G04 #@! TD.AperFunction*
G04 #@! TA.AperFunction,Conductor*
G36*
X40198819Y-17850252D02*
G01*
X41320224Y-17986568D01*
X41328023Y-17990969D01*
X41330427Y-17999595D01*
X41330406Y-17999756D01*
X41292544Y-18278846D01*
X41288036Y-18286583D01*
X41281259Y-18288969D01*
X40320330Y-18314332D01*
X40311986Y-18311140D01*
X40288521Y-18288969D01*
X40022313Y-18037436D01*
X40018654Y-18029265D01*
X40021845Y-18020898D01*
X40022043Y-18020694D01*
X40189142Y-17853594D01*
X40197414Y-17850168D01*
X40198819Y-17850252D01*
G37*
G04 #@! TD.AperFunction*
G04 #@! TA.AperFunction,Conductor*
G36*
X42246118Y-23571689D02*
G01*
X42253493Y-23576770D01*
X42255315Y-23581966D01*
X42275617Y-23784812D01*
X42273031Y-23793385D01*
X42272248Y-23794250D01*
X42101718Y-23964780D01*
X42093445Y-23968207D01*
X42089668Y-23967581D01*
X41221581Y-23671509D01*
X41214857Y-23665595D01*
X41214037Y-23657480D01*
X41286967Y-23378115D01*
X41292372Y-23370978D01*
X41300732Y-23369631D01*
X42246118Y-23571689D01*
G37*
G04 #@! TD.AperFunction*
G04 #@! TA.AperFunction,Conductor*
G36*
X40926717Y-23248836D02*
G01*
X41257453Y-23356878D01*
X41264253Y-23362705D01*
X41264942Y-23371633D01*
X41259115Y-23378433D01*
X41257453Y-23379122D01*
X40412194Y-23655243D01*
X40404108Y-23654940D01*
X40022747Y-23497982D01*
X40016401Y-23491665D01*
X40015500Y-23487163D01*
X40015500Y-23248836D01*
X40018927Y-23240563D01*
X40022745Y-23238017D01*
X40404110Y-23081058D01*
X40412192Y-23080756D01*
X40926717Y-23248836D01*
G37*
G04 #@! TD.AperFunction*
G04 #@! TA.AperFunction,Conductor*
G36*
X40544659Y-16418588D02*
G01*
X40552229Y-16421321D01*
X41363915Y-16714324D01*
X41370533Y-16720356D01*
X41371221Y-16728438D01*
X41294211Y-17007808D01*
X41288709Y-17014873D01*
X41280212Y-17016078D01*
X40349695Y-16793640D01*
X40342445Y-16788384D01*
X40340766Y-16781175D01*
X40345685Y-16728438D01*
X40357674Y-16599872D01*
X40361049Y-16592687D01*
X40532416Y-16421320D01*
X40540688Y-16417894D01*
X40544659Y-16418588D01*
G37*
G04 #@! TD.AperFunction*
G04 #@! TA.AperFunction,Conductor*
G36*
X47914808Y-19402105D02*
G01*
X48397134Y-19555050D01*
X48403983Y-19560817D01*
X48405192Y-19564649D01*
X48500335Y-20274969D01*
X48498037Y-20283624D01*
X48494273Y-20286831D01*
X47764692Y-20678460D01*
X47755781Y-20679353D01*
X47750885Y-20676424D01*
X47582344Y-20507883D01*
X47578917Y-20499610D01*
X47579394Y-20496305D01*
X47900120Y-19409966D01*
X47905749Y-19403003D01*
X47914654Y-19402059D01*
X47914808Y-19402105D01*
G37*
G04 #@! TD.AperFunction*
G04 #@! TA.AperFunction,Conductor*
G36*
X48900899Y-19408084D02*
G01*
X48906602Y-19414989D01*
X48906696Y-19415314D01*
X49207982Y-20509620D01*
X49206874Y-20518506D01*
X49204975Y-20520999D01*
X49036448Y-20689526D01*
X49028175Y-20692953D01*
X49022457Y-20691460D01*
X48300410Y-20286953D01*
X48294867Y-20279920D01*
X48294559Y-20275001D01*
X48401695Y-19564571D01*
X48406316Y-19556905D01*
X48409827Y-19555135D01*
X48891987Y-19407234D01*
X48900899Y-19408084D01*
G37*
G04 #@! TD.AperFunction*
G04 #@! TA.AperFunction,Conductor*
G36*
X47127211Y-20541580D02*
G01*
X47399552Y-20678307D01*
X47402576Y-20680490D01*
X47569834Y-20847748D01*
X47573261Y-20856021D01*
X47569834Y-20864294D01*
X47567205Y-20866270D01*
X47174939Y-21082299D01*
X47166194Y-21083332D01*
X46277271Y-20839008D01*
X46270202Y-20833511D01*
X46269090Y-20824625D01*
X46274587Y-20817556D01*
X46276728Y-20816607D01*
X47118323Y-20540918D01*
X47127211Y-20541580D01*
G37*
G04 #@! TD.AperFunction*
G04 #@! TA.AperFunction,Conductor*
G36*
X52572851Y-29651436D02*
G01*
X52579176Y-29657775D01*
X52579397Y-29658352D01*
X53079434Y-31077328D01*
X53078952Y-31086270D01*
X53076672Y-31089490D01*
X52907490Y-31258672D01*
X52899217Y-31262099D01*
X52895328Y-31261434D01*
X51476352Y-30761397D01*
X51469688Y-30755415D01*
X51469206Y-30746473D01*
X51469427Y-30745896D01*
X51787438Y-29975783D01*
X51793759Y-29969448D01*
X52563896Y-29651427D01*
X52572851Y-29651436D01*
G37*
G04 #@! TD.AperFunction*
G04 #@! TA.AperFunction,Conductor*
G36*
X50757736Y-18941422D02*
G01*
X50758430Y-18941958D01*
X51120887Y-19244770D01*
X51121659Y-19245476D01*
X51292845Y-19416662D01*
X51296272Y-19424935D01*
X51293070Y-19432977D01*
X50810818Y-19942556D01*
X50802642Y-19946210D01*
X50795112Y-19943730D01*
X50311613Y-19565605D01*
X50307208Y-19557809D01*
X50309297Y-19549593D01*
X50741417Y-18944147D01*
X50749011Y-18939405D01*
X50757736Y-18941422D01*
G37*
G04 #@! TD.AperFunction*
G04 #@! TA.AperFunction,Conductor*
G36*
X37501232Y-17604481D02*
G01*
X37502613Y-17605167D01*
X37732591Y-17739067D01*
X38164882Y-17990762D01*
X38170307Y-17997886D01*
X38169106Y-18006760D01*
X38167268Y-18009146D01*
X38000432Y-18175982D01*
X37995669Y-18178870D01*
X37501282Y-18334341D01*
X37492362Y-18333554D01*
X37486968Y-18327669D01*
X37339159Y-17971788D01*
X37339151Y-17962836D01*
X37485933Y-17610775D01*
X37492278Y-17604460D01*
X37501232Y-17604481D01*
G37*
G04 #@! TD.AperFunction*
G04 #@! TA.AperFunction,Conductor*
G36*
X38109778Y-17926146D02*
G01*
X39058826Y-18357329D01*
X39064940Y-18363871D01*
X39064803Y-18372440D01*
X38865775Y-18855263D01*
X38859454Y-18861606D01*
X38854658Y-18862500D01*
X38145564Y-18844325D01*
X38137382Y-18840687D01*
X38134623Y-18835875D01*
X37924709Y-18109032D01*
X37925706Y-18100133D01*
X37927673Y-18097517D01*
X38096666Y-17928524D01*
X38104938Y-17925098D01*
X38109778Y-17926146D01*
G37*
G04 #@! TD.AperFunction*
G04 #@! TA.AperFunction,Conductor*
G36*
X53316955Y-22652059D02*
G01*
X53323139Y-22658081D01*
X53757032Y-23627365D01*
X53757284Y-23636316D01*
X53754626Y-23640418D01*
X53585754Y-23809290D01*
X53577481Y-23812717D01*
X53573934Y-23812166D01*
X52789666Y-23562688D01*
X52782821Y-23556915D01*
X52781520Y-23551139D01*
X52805034Y-22866829D01*
X52808742Y-22858682D01*
X52812263Y-22856419D01*
X53308001Y-22652044D01*
X53316955Y-22652059D01*
G37*
G04 #@! TD.AperFunction*
G04 #@! TA.AperFunction,Conductor*
G36*
X53596186Y-23466060D02*
G01*
X54129731Y-23651001D01*
X54243372Y-23690392D01*
X54250066Y-23696340D01*
X54250595Y-23705279D01*
X54250360Y-23705899D01*
X54104563Y-24060195D01*
X54098245Y-24066542D01*
X54098195Y-24066563D01*
X53742021Y-24213133D01*
X53733067Y-24213112D01*
X53727372Y-24208049D01*
X53624357Y-24024923D01*
X53414011Y-23650999D01*
X53412942Y-23642111D01*
X53415934Y-23636994D01*
X53584086Y-23468842D01*
X53592358Y-23465416D01*
X53596186Y-23466060D01*
G37*
G04 #@! TD.AperFunction*
G04 #@! TA.AperFunction,Conductor*
G36*
X51456880Y-18581219D02*
G01*
X51812195Y-18727436D01*
X51818542Y-18733754D01*
X51818563Y-18733804D01*
X51964779Y-19089118D01*
X51964758Y-19098072D01*
X51958801Y-19104221D01*
X51347498Y-19382132D01*
X51338549Y-19382436D01*
X51334383Y-19379754D01*
X51166245Y-19211616D01*
X51162818Y-19203343D01*
X51163866Y-19198505D01*
X51441779Y-18587197D01*
X51448322Y-18581085D01*
X51456880Y-18581219D01*
G37*
G04 #@! TD.AperFunction*
G04 #@! TA.AperFunction,Conductor*
G36*
X27824331Y-21068896D02*
G01*
X27992411Y-21236976D01*
X27995838Y-21245249D01*
X27995393Y-21248445D01*
X27805133Y-21918459D01*
X27799577Y-21925481D01*
X27790682Y-21926518D01*
X27789426Y-21926083D01*
X27435804Y-21780563D01*
X27429457Y-21774245D01*
X27429436Y-21774195D01*
X27282639Y-21417468D01*
X27282660Y-21408514D01*
X27287132Y-21403174D01*
X27809736Y-21067325D01*
X27818545Y-21065736D01*
X27824331Y-21068896D01*
G37*
G04 #@! TD.AperFunction*
G04 #@! TA.AperFunction,Conductor*
G36*
X27018166Y-17017628D02*
G01*
X27022420Y-17023106D01*
X27278695Y-17705358D01*
X27278396Y-17714308D01*
X27273525Y-17719643D01*
X26778735Y-18000999D01*
X26769850Y-18002109D01*
X26763044Y-17997050D01*
X26321766Y-17294310D01*
X26320268Y-17285481D01*
X26323399Y-17279817D01*
X26493809Y-17109407D01*
X26500032Y-17106162D01*
X27009423Y-17015700D01*
X27018166Y-17017628D01*
G37*
G04 #@! TD.AperFunction*
G04 #@! TA.AperFunction,Conductor*
G36*
X26282139Y-16555308D02*
G01*
X26288288Y-16561265D01*
X26566199Y-17172568D01*
X26566503Y-17181517D01*
X26563821Y-17185683D01*
X26395683Y-17353821D01*
X26387410Y-17357248D01*
X26382568Y-17356199D01*
X25771265Y-17078288D01*
X25765152Y-17071744D01*
X25765286Y-17063186D01*
X25911504Y-16707869D01*
X25917820Y-16701524D01*
X26273186Y-16555287D01*
X26282139Y-16555308D01*
G37*
G04 #@! TD.AperFunction*
G04 #@! TA.AperFunction,Conductor*
G36*
X45876717Y-19438836D02*
G01*
X46207453Y-19546878D01*
X46214253Y-19552705D01*
X46214942Y-19561633D01*
X46209115Y-19568433D01*
X46207453Y-19569122D01*
X45362194Y-19845243D01*
X45354108Y-19844940D01*
X44972747Y-19687982D01*
X44966401Y-19681665D01*
X44965500Y-19677163D01*
X44965500Y-19438836D01*
X44968927Y-19430563D01*
X44972745Y-19428017D01*
X45354110Y-19271058D01*
X45362192Y-19270756D01*
X45876717Y-19438836D01*
G37*
G04 #@! TD.AperFunction*
G04 #@! TA.AperFunction,Conductor*
G36*
X44462977Y-19347478D02*
G01*
X45185839Y-19429818D01*
X45193671Y-19434159D01*
X45196215Y-19441443D01*
X45196215Y-19679112D01*
X45192788Y-19687385D01*
X45191487Y-19688508D01*
X44740935Y-20022837D01*
X44732249Y-20025015D01*
X44725704Y-20021729D01*
X44452453Y-19749441D01*
X44449012Y-19741174D01*
X44449012Y-19741124D01*
X44449144Y-19688508D01*
X44449967Y-19359074D01*
X44453415Y-19350810D01*
X44461696Y-19347404D01*
X44462977Y-19347478D01*
G37*
G04 #@! TD.AperFunction*
G04 #@! TA.AperFunction,Conductor*
G36*
X54988958Y-28479591D02*
G01*
X54992293Y-28486397D01*
X55178338Y-29958848D01*
X55175975Y-29967486D01*
X55168197Y-29971923D01*
X55166744Y-29972015D01*
X54334859Y-29972994D01*
X54326583Y-29969577D01*
X54002194Y-29644648D01*
X53737724Y-29379738D01*
X53734304Y-29371462D01*
X53737738Y-29363192D01*
X53738212Y-29362744D01*
X54725472Y-28486397D01*
X54733677Y-28479114D01*
X54741444Y-28476164D01*
X54980685Y-28476164D01*
X54988958Y-28479591D01*
G37*
G04 #@! TD.AperFunction*
G04 #@! TA.AperFunction,Conductor*
G36*
X40926717Y-20708836D02*
G01*
X41257453Y-20816878D01*
X41264253Y-20822705D01*
X41264942Y-20831633D01*
X41259115Y-20838433D01*
X41257453Y-20839122D01*
X40412194Y-21115243D01*
X40404108Y-21114940D01*
X40022747Y-20957982D01*
X40016401Y-20951665D01*
X40015500Y-20947163D01*
X40015500Y-20708836D01*
X40018927Y-20700563D01*
X40022745Y-20698017D01*
X40404110Y-20541058D01*
X40412192Y-20540756D01*
X40926717Y-20708836D01*
G37*
G04 #@! TD.AperFunction*
G04 #@! TA.AperFunction,Conductor*
G36*
X39457655Y-20297532D02*
G01*
X40081615Y-20697548D01*
X40086730Y-20704897D01*
X40087000Y-20707397D01*
X40087000Y-20947365D01*
X40083573Y-20955638D01*
X40080013Y-20958074D01*
X39439340Y-21240034D01*
X39430387Y-21240230D01*
X39427095Y-21238278D01*
X38871943Y-20771207D01*
X38867818Y-20763258D01*
X38870522Y-20754722D01*
X38872187Y-20753100D01*
X39444061Y-20298225D01*
X39452666Y-20295758D01*
X39457655Y-20297532D01*
G37*
G04 #@! TD.AperFunction*
G04 #@! TA.AperFunction,Conductor*
G36*
X42176890Y-20541058D02*
G01*
X42558253Y-20698017D01*
X42564599Y-20704334D01*
X42565500Y-20708836D01*
X42565500Y-20947163D01*
X42562073Y-20955436D01*
X42558253Y-20957982D01*
X42176891Y-21114940D01*
X42168805Y-21115243D01*
X41621132Y-20936334D01*
X41323545Y-20839121D01*
X41316746Y-20833295D01*
X41316057Y-20824367D01*
X41321884Y-20817567D01*
X41323544Y-20816878D01*
X42168806Y-20540756D01*
X42176890Y-20541058D01*
G37*
G04 #@! TD.AperFunction*
G04 #@! TA.AperFunction,Conductor*
G36*
X45876717Y-21978836D02*
G01*
X46207453Y-22086878D01*
X46214253Y-22092705D01*
X46214942Y-22101633D01*
X46209115Y-22108433D01*
X46207453Y-22109122D01*
X45362194Y-22385243D01*
X45354108Y-22384940D01*
X44972747Y-22227982D01*
X44966401Y-22221665D01*
X44965500Y-22217163D01*
X44965500Y-21978836D01*
X44968927Y-21970563D01*
X44972745Y-21968017D01*
X45354110Y-21811058D01*
X45362192Y-21810756D01*
X45876717Y-21978836D01*
G37*
G04 #@! TD.AperFunction*
G04 #@! TA.AperFunction,Conductor*
G36*
X43890732Y-21756815D02*
G01*
X43892456Y-21757629D01*
X43924590Y-21776181D01*
X43986427Y-21792750D01*
X43987473Y-21793086D01*
X44454407Y-21968153D01*
X44460951Y-21974266D01*
X44462000Y-21979108D01*
X44462000Y-22216891D01*
X44458573Y-22225164D01*
X44454407Y-22227846D01*
X43825637Y-22463591D01*
X43816688Y-22463287D01*
X43810731Y-22457138D01*
X43662875Y-22102499D01*
X43662855Y-22093550D01*
X43810732Y-21738859D01*
X43817078Y-21732543D01*
X43825635Y-21732408D01*
X43890732Y-21756815D01*
G37*
G04 #@! TD.AperFunction*
G04 #@! TA.AperFunction,Conductor*
G36*
X47217543Y-21941967D02*
G01*
X47217713Y-21942092D01*
X47381803Y-22064728D01*
X47424333Y-22096514D01*
X47503245Y-22155490D01*
X47507821Y-22163188D01*
X47507941Y-22164862D01*
X47507941Y-22401163D01*
X47504514Y-22409436D01*
X47496241Y-22412863D01*
X47496105Y-22412862D01*
X46229837Y-22398144D01*
X46221604Y-22394621D01*
X46218274Y-22386309D01*
X46218303Y-22385615D01*
X46238822Y-22107198D01*
X46242846Y-22099202D01*
X46248602Y-22096515D01*
X47208826Y-21939917D01*
X47217543Y-21941967D01*
G37*
G04 #@! TD.AperFunction*
G04 #@! TA.AperFunction,Conductor*
G36*
X50789278Y-22159988D02*
G01*
X50797545Y-22163425D01*
X50800579Y-22168718D01*
X50979724Y-22851331D01*
X50978509Y-22860203D01*
X50974221Y-22864454D01*
X50478182Y-23148518D01*
X50469300Y-23149656D01*
X50462503Y-23144654D01*
X49997972Y-22415877D01*
X49996138Y-22409588D01*
X49996138Y-22170714D01*
X49999565Y-22162441D01*
X50007836Y-22159014D01*
X50789278Y-22159988D01*
G37*
G04 #@! TD.AperFunction*
G04 #@! TA.AperFunction,Conductor*
G36*
X36546067Y-29125671D02*
G01*
X36549989Y-29133722D01*
X36550010Y-29134420D01*
X36550702Y-29967846D01*
X36547282Y-29976122D01*
X36547265Y-29976139D01*
X35958335Y-30563686D01*
X35950058Y-30567103D01*
X35941789Y-30563666D01*
X35940833Y-30562581D01*
X35030923Y-29391326D01*
X35028553Y-29382690D01*
X35031888Y-29375876D01*
X35201058Y-29206706D01*
X35208620Y-29203301D01*
X36537603Y-29122751D01*
X36546067Y-29125671D01*
G37*
G04 #@! TD.AperFunction*
G04 #@! TA.AperFunction,Conductor*
G36*
X52149309Y-24532802D02*
G01*
X52155627Y-24539149D01*
X52155829Y-24547526D01*
X51906121Y-25248756D01*
X51900117Y-25255400D01*
X51891174Y-25255853D01*
X51886826Y-25253104D01*
X51721498Y-25087776D01*
X51719501Y-25085107D01*
X51426679Y-24548492D01*
X51425724Y-24539589D01*
X51431345Y-24532618D01*
X51432451Y-24532087D01*
X51786211Y-24385159D01*
X51795163Y-24385151D01*
X52149309Y-24532802D01*
G37*
G04 #@! TD.AperFunction*
G04 #@! TA.AperFunction,Conductor*
G36*
X47218945Y-24631265D02*
G01*
X47350004Y-24757943D01*
X47507300Y-24909982D01*
X47510867Y-24918196D01*
X47507582Y-24926526D01*
X47507442Y-24926668D01*
X47340376Y-25093734D01*
X47332103Y-25097161D01*
X47330478Y-25097048D01*
X46207903Y-24939631D01*
X46200186Y-24935088D01*
X46197941Y-24926422D01*
X46238356Y-24647218D01*
X46242932Y-24639522D01*
X46249820Y-24637196D01*
X47210706Y-24627980D01*
X47218945Y-24631265D01*
G37*
G04 #@! TD.AperFunction*
G04 #@! TA.AperFunction,Conductor*
G36*
X52805616Y-19350245D02*
G01*
X52973754Y-19518383D01*
X52977181Y-19526656D01*
X52976132Y-19531498D01*
X52698221Y-20142801D01*
X52691677Y-20148914D01*
X52683118Y-20148779D01*
X52327804Y-20002563D01*
X52321457Y-19996245D01*
X52321436Y-19996195D01*
X52175220Y-19640881D01*
X52175241Y-19631927D01*
X52181196Y-19625779D01*
X52792503Y-19347866D01*
X52801450Y-19347563D01*
X52805616Y-19350245D01*
G37*
G04 #@! TD.AperFunction*
G04 #@! TA.AperFunction,Conductor*
G36*
X45876717Y-24518836D02*
G01*
X46207453Y-24626878D01*
X46214253Y-24632705D01*
X46214942Y-24641633D01*
X46209115Y-24648433D01*
X46207453Y-24649122D01*
X45362194Y-24925243D01*
X45354108Y-24924940D01*
X44972747Y-24767982D01*
X44966401Y-24761665D01*
X44965500Y-24757163D01*
X44965500Y-24518836D01*
X44968927Y-24510563D01*
X44972745Y-24508017D01*
X45354110Y-24351058D01*
X45362192Y-24350756D01*
X45876717Y-24518836D01*
G37*
G04 #@! TD.AperFunction*
G04 #@! TA.AperFunction,Conductor*
G36*
X44962407Y-24508153D02*
G01*
X44968951Y-24514266D01*
X44970000Y-24519108D01*
X44970000Y-24756891D01*
X44966573Y-24765164D01*
X44962407Y-24767846D01*
X44333637Y-25003591D01*
X44324688Y-25003287D01*
X44318731Y-24997138D01*
X44170875Y-24642499D01*
X44170855Y-24633550D01*
X44318732Y-24278859D01*
X44325078Y-24272543D01*
X44333635Y-24272408D01*
X44962407Y-24508153D01*
G37*
G04 #@! TD.AperFunction*
G04 #@! TA.AperFunction,Conductor*
G36*
X48144670Y-28682564D02*
G01*
X49563647Y-29182602D01*
X49570311Y-29188584D01*
X49570793Y-29197526D01*
X49570572Y-29198103D01*
X49252562Y-29968214D01*
X49246237Y-29974553D01*
X49246214Y-29974562D01*
X48476103Y-30292572D01*
X48467148Y-30292563D01*
X48460823Y-30286224D01*
X48460602Y-30285647D01*
X47960565Y-28866671D01*
X47961047Y-28857729D01*
X47963324Y-28854512D01*
X48132510Y-28685326D01*
X48140782Y-28681900D01*
X48144670Y-28682564D01*
G37*
G04 #@! TD.AperFunction*
G04 #@! TA.AperFunction,Conductor*
G36*
X27824670Y-28682564D02*
G01*
X29243647Y-29182602D01*
X29250311Y-29188584D01*
X29250793Y-29197526D01*
X29250572Y-29198103D01*
X28932562Y-29968214D01*
X28926237Y-29974553D01*
X28926214Y-29974562D01*
X28156103Y-30292572D01*
X28147148Y-30292563D01*
X28140823Y-30286224D01*
X28140602Y-30285647D01*
X27640565Y-28866671D01*
X27641047Y-28857729D01*
X27643324Y-28854512D01*
X27812510Y-28685326D01*
X27820782Y-28681900D01*
X27824670Y-28682564D01*
G37*
G04 #@! TD.AperFunction*
G04 #@! TA.AperFunction,Conductor*
G36*
X45876717Y-18168836D02*
G01*
X46207453Y-18276878D01*
X46214253Y-18282705D01*
X46214942Y-18291633D01*
X46209115Y-18298433D01*
X46207453Y-18299122D01*
X45362194Y-18575243D01*
X45354108Y-18574940D01*
X44972747Y-18417982D01*
X44966401Y-18411665D01*
X44965500Y-18407163D01*
X44965500Y-18168836D01*
X44968927Y-18160563D01*
X44972745Y-18158017D01*
X45354110Y-18001058D01*
X45362192Y-18000756D01*
X45876717Y-18168836D01*
G37*
G04 #@! TD.AperFunction*
G04 #@! TA.AperFunction,Conductor*
G36*
X44719027Y-18158070D02*
G01*
X44725454Y-18164306D01*
X44726414Y-18168946D01*
X44726414Y-18406748D01*
X44722987Y-18415021D01*
X44718640Y-18417769D01*
X44092527Y-18640827D01*
X44083584Y-18640376D01*
X44077802Y-18634308D01*
X43929875Y-18279499D01*
X43929855Y-18270550D01*
X44077649Y-17916058D01*
X44083995Y-17909742D01*
X44092758Y-17909686D01*
X44719027Y-18158070D01*
G37*
G04 #@! TD.AperFunction*
G04 #@! TA.AperFunction,Conductor*
G36*
X47126992Y-18001215D02*
G01*
X47508508Y-18168926D01*
X47514703Y-18175393D01*
X47515500Y-18179637D01*
X47515500Y-18417956D01*
X47512073Y-18426229D01*
X47507990Y-18428880D01*
X47126780Y-18575094D01*
X47118957Y-18575292D01*
X46397618Y-18339652D01*
X46273545Y-18299121D01*
X46266746Y-18293295D01*
X46266057Y-18284367D01*
X46271884Y-18277567D01*
X46273544Y-18276878D01*
X47118656Y-18000805D01*
X47126992Y-18001215D01*
G37*
G04 #@! TD.AperFunction*
G04 #@! TA.AperFunction,Conductor*
G36*
X47126890Y-23081058D02*
G01*
X47508253Y-23238017D01*
X47514599Y-23244334D01*
X47515500Y-23248836D01*
X47515500Y-23487163D01*
X47512073Y-23495436D01*
X47508253Y-23497982D01*
X47126891Y-23654940D01*
X47118805Y-23655243D01*
X46571132Y-23476334D01*
X46273545Y-23379121D01*
X46266746Y-23373295D01*
X46266057Y-23364367D01*
X46271884Y-23357567D01*
X46273544Y-23356878D01*
X47118806Y-23080756D01*
X47126890Y-23081058D01*
G37*
G04 #@! TD.AperFunction*
G04 #@! TA.AperFunction,Conductor*
G36*
X45876717Y-23248836D02*
G01*
X46207453Y-23356878D01*
X46214253Y-23362705D01*
X46214942Y-23371633D01*
X46209115Y-23378433D01*
X46207453Y-23379122D01*
X45362194Y-23655243D01*
X45354108Y-23654940D01*
X44972747Y-23497982D01*
X44966401Y-23491665D01*
X44965500Y-23487163D01*
X44965500Y-23248836D01*
X44968927Y-23240563D01*
X44972745Y-23238017D01*
X45354110Y-23081058D01*
X45362192Y-23080756D01*
X45876717Y-23248836D01*
G37*
G04 #@! TD.AperFunction*
G04 #@! TA.AperFunction,Conductor*
G36*
X44708407Y-23238153D02*
G01*
X44714951Y-23244266D01*
X44716000Y-23249108D01*
X44716000Y-23486891D01*
X44712573Y-23495164D01*
X44708407Y-23497846D01*
X44079637Y-23733591D01*
X44070688Y-23733287D01*
X44064731Y-23727138D01*
X43916875Y-23372499D01*
X43916855Y-23363550D01*
X44064732Y-23008859D01*
X44071078Y-23002543D01*
X44079635Y-23002408D01*
X44708407Y-23238153D01*
G37*
G04 #@! TD.AperFunction*
G04 #@! TA.AperFunction,Conductor*
G36*
X30211059Y-28909512D02*
G01*
X31460255Y-29120355D01*
X31467843Y-29125111D01*
X31470008Y-29131882D01*
X31470700Y-29964872D01*
X31467280Y-29973148D01*
X31463466Y-29975696D01*
X30694412Y-30293271D01*
X30685457Y-30293262D01*
X30679673Y-30288057D01*
X30029698Y-29095797D01*
X30028747Y-29086893D01*
X30031696Y-29081926D01*
X30200846Y-28912776D01*
X30209118Y-28909350D01*
X30211059Y-28909512D01*
G37*
G04 #@! TD.AperFunction*
G04 #@! TA.AperFunction,Conductor*
G36*
X40524670Y-28682564D02*
G01*
X41943647Y-29182602D01*
X41950311Y-29188584D01*
X41950793Y-29197526D01*
X41950572Y-29198103D01*
X41632562Y-29968214D01*
X41626237Y-29974553D01*
X41626214Y-29974562D01*
X40856103Y-30292572D01*
X40847148Y-30292563D01*
X40840823Y-30286224D01*
X40840602Y-30285647D01*
X40340565Y-28866671D01*
X40341047Y-28857729D01*
X40343324Y-28854512D01*
X40512510Y-28685326D01*
X40520782Y-28681900D01*
X40524670Y-28682564D01*
G37*
G04 #@! TD.AperFunction*
G04 #@! TA.AperFunction,Conductor*
G36*
X34005454Y-29126043D02*
G01*
X34009914Y-29133808D01*
X34010011Y-29135300D01*
X34010702Y-29967846D01*
X34007282Y-29976122D01*
X34007265Y-29976139D01*
X33417849Y-30564171D01*
X33409572Y-30567588D01*
X33401303Y-30564151D01*
X33400740Y-30563546D01*
X32468823Y-29487003D01*
X32465999Y-29478505D01*
X32469395Y-29471073D01*
X32638484Y-29301984D01*
X32645252Y-29298655D01*
X33996810Y-29123707D01*
X34005454Y-29126043D01*
G37*
G04 #@! TD.AperFunction*
G04 #@! TA.AperFunction,Conductor*
G36*
X25284670Y-28682564D02*
G01*
X26703647Y-29182602D01*
X26710311Y-29188584D01*
X26710793Y-29197526D01*
X26710572Y-29198103D01*
X26392562Y-29968214D01*
X26386237Y-29974553D01*
X26386214Y-29974562D01*
X25616103Y-30292572D01*
X25607148Y-30292563D01*
X25600823Y-30286224D01*
X25600602Y-30285647D01*
X25100565Y-28866671D01*
X25101047Y-28857729D01*
X25103324Y-28854512D01*
X25272510Y-28685326D01*
X25280782Y-28681900D01*
X25284670Y-28682564D01*
G37*
G04 #@! TD.AperFunction*
G04 #@! TA.AperFunction,Conductor*
G36*
X47126890Y-16731058D02*
G01*
X47508253Y-16888017D01*
X47514599Y-16894334D01*
X47515500Y-16898836D01*
X47515500Y-17137163D01*
X47512073Y-17145436D01*
X47508253Y-17147982D01*
X47126891Y-17304940D01*
X47118805Y-17305243D01*
X46571132Y-17126334D01*
X46273545Y-17029121D01*
X46266746Y-17023295D01*
X46266057Y-17014367D01*
X46271884Y-17007567D01*
X46273544Y-17006878D01*
X47118806Y-16730756D01*
X47126890Y-16731058D01*
G37*
G04 #@! TD.AperFunction*
G04 #@! TA.AperFunction,Conductor*
G36*
X40320681Y-19453248D02*
G01*
X41282075Y-19556983D01*
X41289933Y-19561277D01*
X41292460Y-19567429D01*
X41320838Y-19845914D01*
X41318267Y-19854492D01*
X41310384Y-19858740D01*
X41309946Y-19858776D01*
X40070502Y-19938202D01*
X40062027Y-19935311D01*
X40058078Y-19927274D01*
X40058054Y-19926526D01*
X40058054Y-19690201D01*
X40061481Y-19681928D01*
X40061916Y-19681515D01*
X40311614Y-19456195D01*
X40320050Y-19453197D01*
X40320681Y-19453248D01*
G37*
G04 #@! TD.AperFunction*
G04 #@! TA.AperFunction,Conductor*
G36*
X29543510Y-17083546D02*
G01*
X30124370Y-17329975D01*
X30130647Y-17336360D01*
X30131500Y-17340745D01*
X30131500Y-17582254D01*
X30128194Y-17590404D01*
X29626315Y-18107312D01*
X29618094Y-18110861D01*
X29610722Y-18108385D01*
X29114117Y-17720726D01*
X29109704Y-17712934D01*
X29111625Y-17704947D01*
X29529252Y-17087760D01*
X29536727Y-17082830D01*
X29543510Y-17083546D01*
G37*
G04 #@! TD.AperFunction*
G04 #@! TA.AperFunction,Conductor*
G36*
X40322153Y-21939914D02*
G01*
X41282394Y-22096515D01*
X41290007Y-22101227D01*
X41292178Y-22107201D01*
X41312694Y-22385585D01*
X41309885Y-22394088D01*
X41301886Y-22398113D01*
X41301162Y-22398144D01*
X40034895Y-22412862D01*
X40026583Y-22409532D01*
X40023060Y-22401299D01*
X40023059Y-22401163D01*
X40023059Y-22164862D01*
X40026486Y-22156589D01*
X40027755Y-22155490D01*
X40092367Y-22107201D01*
X40313285Y-21942091D01*
X40321963Y-21939884D01*
X40322153Y-21939914D01*
G37*
G04 #@! TD.AperFunction*
G04 #@! TA.AperFunction,Conductor*
G36*
X45604670Y-28682564D02*
G01*
X47023647Y-29182602D01*
X47030311Y-29188584D01*
X47030793Y-29197526D01*
X47030572Y-29198103D01*
X46712562Y-29968214D01*
X46706237Y-29974553D01*
X46706214Y-29974562D01*
X45936103Y-30292572D01*
X45927148Y-30292563D01*
X45920823Y-30286224D01*
X45920602Y-30285647D01*
X45420565Y-28866671D01*
X45421047Y-28857729D01*
X45423324Y-28854512D01*
X45592510Y-28685326D01*
X45600782Y-28681900D01*
X45604670Y-28682564D01*
G37*
G04 #@! TD.AperFunction*
G04 #@! TA.AperFunction,Conductor*
G36*
X31067138Y-23262731D02*
G01*
X31073456Y-23269078D01*
X31073591Y-23277637D01*
X30837847Y-23906407D01*
X30831734Y-23912951D01*
X30826892Y-23914000D01*
X30589108Y-23914000D01*
X30580835Y-23910573D01*
X30578153Y-23906407D01*
X30342408Y-23277635D01*
X30342712Y-23268688D01*
X30348859Y-23262732D01*
X30703500Y-23114875D01*
X30712449Y-23114855D01*
X31067138Y-23262731D01*
G37*
G04 #@! TD.AperFunction*
G04 #@! TA.AperFunction,Conductor*
G36*
X43064670Y-28682564D02*
G01*
X44483647Y-29182602D01*
X44490311Y-29188584D01*
X44490793Y-29197526D01*
X44490572Y-29198103D01*
X44172562Y-29968214D01*
X44166237Y-29974553D01*
X44166214Y-29974562D01*
X43396103Y-30292572D01*
X43387148Y-30292563D01*
X43380823Y-30286224D01*
X43380602Y-30285647D01*
X42880565Y-28866671D01*
X42881047Y-28857729D01*
X42883324Y-28854512D01*
X43052510Y-28685326D01*
X43060782Y-28681900D01*
X43064670Y-28682564D01*
G37*
G04 #@! TD.AperFunction*
G04 #@! TA.AperFunction,Conductor*
G36*
X30491959Y-18584323D02*
G01*
X31170733Y-18602691D01*
X31178909Y-18606341D01*
X31182115Y-18614387D01*
X31182115Y-18852074D01*
X31178688Y-18860347D01*
X31178594Y-18860441D01*
X30771100Y-19258770D01*
X30762788Y-19262102D01*
X30754662Y-19258691D01*
X30482453Y-18987441D01*
X30479012Y-18979174D01*
X30479012Y-18979124D01*
X30479318Y-18857000D01*
X30479970Y-18595990D01*
X30483418Y-18587726D01*
X30491699Y-18584320D01*
X30491959Y-18584323D01*
G37*
G04 #@! TD.AperFunction*
M02*
