G04 #@! TF.GenerationSoftware,KiCad,Pcbnew,8.0.4*
G04 #@! TF.CreationDate,2024-08-16T15:34:14+02:00*
G04 #@! TF.ProjectId,AT8,4154382e-6b69-4636-9164-5f7063625858,00*
G04 #@! TF.SameCoordinates,Original*
G04 #@! TF.FileFunction,Copper,L2,Bot*
G04 #@! TF.FilePolarity,Positive*
%FSLAX46Y46*%
G04 Gerber Fmt 4.6, Leading zero omitted, Abs format (unit mm)*
G04 Created by KiCad (PCBNEW 8.0.4) date 2024-08-16 15:34:14*
%MOMM*%
%LPD*%
G01*
G04 APERTURE LIST*
G04 #@! TA.AperFunction,ComponentPad*
%ADD10O,1.700000X1.700000*%
G04 #@! TD*
G04 #@! TA.AperFunction,ComponentPad*
%ADD11R,1.700000X1.700000*%
G04 #@! TD*
G04 #@! TA.AperFunction,ViaPad*
%ADD12C,0.800000*%
G04 #@! TD*
G04 #@! TA.AperFunction,Conductor*
%ADD13C,0.250000*%
G04 #@! TD*
G04 #@! TA.AperFunction,Conductor*
%ADD14C,0.254000*%
G04 #@! TD*
G04 APERTURE END LIST*
D10*
X54330000Y-29972000D03*
X51790000Y-29972000D03*
X49250000Y-29972000D03*
X46710000Y-29972000D03*
X44170000Y-29972000D03*
X41630000Y-29972000D03*
X39090000Y-29972000D03*
X36550000Y-29972000D03*
X34010000Y-29972000D03*
X31470000Y-29972000D03*
X28930000Y-29972000D03*
X26390000Y-29972000D03*
X23850000Y-29972000D03*
X21310000Y-29972000D03*
X18770000Y-29972000D03*
D11*
X16230000Y-29972000D03*
D12*
X51816000Y-18730000D03*
X37338000Y-17968000D03*
X44450000Y-19746000D03*
X27432000Y-21778000D03*
X25914067Y-16704067D03*
X54102000Y-24064000D03*
X43662000Y-22098000D03*
X51790000Y-24384000D03*
X44170000Y-24638000D03*
X52324000Y-20000000D03*
X43929000Y-18275000D03*
X43916000Y-23368000D03*
X30708000Y-23114000D03*
X30480000Y-18984000D03*
D13*
X40299000Y-25461000D02*
X43662000Y-22098000D01*
X15240000Y-31430000D02*
X14478000Y-30668000D01*
X18034000Y-25461000D02*
X40299000Y-25461000D01*
X14478000Y-29017000D02*
X18034000Y-25461000D01*
X14478000Y-30668000D02*
X14478000Y-29017000D01*
X17312000Y-31430000D02*
X15240000Y-31430000D01*
X18770000Y-29972000D02*
X17312000Y-31430000D01*
D14*
X51816000Y-24358000D02*
X51790000Y-24384000D01*
X52324000Y-20000000D02*
X51816000Y-20508000D01*
X51816000Y-20508000D02*
X51816000Y-24358000D01*
X24612000Y-26670000D02*
X21310000Y-29972000D01*
X42138000Y-26670000D02*
X24612000Y-26670000D01*
X44170000Y-24638000D02*
X42138000Y-26670000D01*
X44938067Y-22012067D02*
X44938067Y-25393933D01*
X42900000Y-27432000D02*
X26390000Y-27432000D01*
X43408000Y-20482000D02*
X44938067Y-22012067D01*
X26390000Y-27432000D02*
X23850000Y-29972000D01*
X43929000Y-18275000D02*
X43408000Y-18796000D01*
X43408000Y-18796000D02*
X43408000Y-20482000D01*
X44938067Y-25393933D02*
X42900000Y-27432000D01*
X41188000Y-26096000D02*
X20106000Y-26096000D01*
X20106000Y-26096000D02*
X16230000Y-29972000D01*
X43916000Y-23368000D02*
X41188000Y-26096000D01*
X30480000Y-18984000D02*
X30480000Y-22886000D01*
X30480000Y-22886000D02*
X30708000Y-23114000D01*
G04 #@! TA.AperFunction,Conductor*
G36*
X57321039Y-13735685D02*
G01*
X57366794Y-13788489D01*
X57378000Y-13840000D01*
X57378000Y-31626000D01*
X57358315Y-31693039D01*
X57305511Y-31738794D01*
X57254000Y-31750000D01*
X17751689Y-31750000D01*
X17684650Y-31730315D01*
X17638895Y-31677511D01*
X17628951Y-31608353D01*
X17657976Y-31544797D01*
X17664007Y-31538320D01*
X17690825Y-31511501D01*
X17737668Y-31464657D01*
X17784271Y-31435340D01*
X19151700Y-30955287D01*
X19156854Y-30953399D01*
X19157444Y-30953174D01*
X19157446Y-30953172D01*
X19163544Y-30950848D01*
X19163682Y-30951210D01*
X19172437Y-30947691D01*
X19173954Y-30947232D01*
X19356450Y-30849685D01*
X19516410Y-30718410D01*
X19647685Y-30558450D01*
X19745232Y-30375954D01*
X19805300Y-30177934D01*
X19825583Y-29972000D01*
X19805300Y-29766066D01*
X19745232Y-29568046D01*
X19647685Y-29385550D01*
X19555535Y-29273264D01*
X19516410Y-29225589D01*
X19366121Y-29102252D01*
X19356450Y-29094315D01*
X19173954Y-28996768D01*
X18975934Y-28936700D01*
X18975932Y-28936699D01*
X18975934Y-28936699D01*
X18770000Y-28916417D01*
X18564067Y-28936699D01*
X18440618Y-28974147D01*
X18367085Y-28996453D01*
X18366043Y-28996769D01*
X18278114Y-29043769D01*
X18183550Y-29094315D01*
X18183548Y-29094316D01*
X18183547Y-29094317D01*
X18023588Y-29225590D01*
X17988579Y-29268249D01*
X17930833Y-29307583D01*
X17860989Y-29309452D01*
X17801221Y-29273264D01*
X17770505Y-29210508D01*
X17777723Y-29143214D01*
X17941096Y-28738043D01*
X17968414Y-28696739D01*
X20205336Y-26459819D01*
X20266659Y-26426334D01*
X20293017Y-26423500D01*
X24095983Y-26423500D01*
X24163022Y-26443185D01*
X24208777Y-26495989D01*
X24218721Y-26565147D01*
X24189696Y-26628703D01*
X24183664Y-26635181D01*
X22340796Y-28478047D01*
X22294328Y-28507317D01*
X20928036Y-28988789D01*
X20922477Y-28990837D01*
X20915932Y-28993357D01*
X20915780Y-28992962D01*
X20907082Y-28996453D01*
X20906052Y-28996765D01*
X20906043Y-28996769D01*
X20818114Y-29043769D01*
X20723550Y-29094315D01*
X20723548Y-29094316D01*
X20723547Y-29094317D01*
X20563589Y-29225589D01*
X20432317Y-29385547D01*
X20334769Y-29568043D01*
X20274699Y-29766067D01*
X20254417Y-29972000D01*
X20274699Y-30177932D01*
X20274700Y-30177934D01*
X20334768Y-30375954D01*
X20432315Y-30558450D01*
X20432317Y-30558452D01*
X20563589Y-30718410D01*
X20655257Y-30793639D01*
X20723550Y-30849685D01*
X20906046Y-30947232D01*
X21104066Y-31007300D01*
X21104065Y-31007300D01*
X21122529Y-31009118D01*
X21310000Y-31027583D01*
X21515934Y-31007300D01*
X21713954Y-30947232D01*
X21896450Y-30849685D01*
X22056410Y-30718410D01*
X22187685Y-30558450D01*
X22285232Y-30375954D01*
X22286917Y-30370397D01*
X22293164Y-30354087D01*
X22293210Y-30353953D01*
X22293215Y-30353947D01*
X22774680Y-28987668D01*
X22803947Y-28941206D01*
X24711336Y-27033819D01*
X24772659Y-27000334D01*
X24799017Y-26997500D01*
X26061983Y-26997500D01*
X26129022Y-27017185D01*
X26174777Y-27069989D01*
X26184721Y-27139147D01*
X26155696Y-27202703D01*
X26149664Y-27209181D01*
X24880796Y-28478047D01*
X24834328Y-28507317D01*
X23468036Y-28988789D01*
X23462477Y-28990837D01*
X23455932Y-28993357D01*
X23455780Y-28992962D01*
X23447082Y-28996453D01*
X23446052Y-28996765D01*
X23446043Y-28996769D01*
X23358114Y-29043769D01*
X23263550Y-29094315D01*
X23263548Y-29094316D01*
X23263547Y-29094317D01*
X23103589Y-29225589D01*
X22972317Y-29385547D01*
X22874769Y-29568043D01*
X22814699Y-29766067D01*
X22794417Y-29972000D01*
X22814699Y-30177932D01*
X22814700Y-30177934D01*
X22874768Y-30375954D01*
X22972315Y-30558450D01*
X22972317Y-30558452D01*
X23103589Y-30718410D01*
X23195257Y-30793639D01*
X23263550Y-30849685D01*
X23446046Y-30947232D01*
X23644066Y-31007300D01*
X23644065Y-31007300D01*
X23662529Y-31009118D01*
X23850000Y-31027583D01*
X24055934Y-31007300D01*
X24253954Y-30947232D01*
X24436450Y-30849685D01*
X24596410Y-30718410D01*
X24727685Y-30558450D01*
X24825232Y-30375954D01*
X24826917Y-30370397D01*
X24833164Y-30354087D01*
X24833210Y-30353953D01*
X24833215Y-30353947D01*
X24967810Y-29972000D01*
X25334417Y-29972000D01*
X25354699Y-30177932D01*
X25354700Y-30177934D01*
X25414768Y-30375954D01*
X25512315Y-30558450D01*
X25512317Y-30558452D01*
X25643589Y-30718410D01*
X25735257Y-30793639D01*
X25803550Y-30849685D01*
X25986046Y-30947232D01*
X26184066Y-31007300D01*
X26184065Y-31007300D01*
X26202529Y-31009118D01*
X26390000Y-31027583D01*
X26595934Y-31007300D01*
X26793954Y-30947232D01*
X26976450Y-30849685D01*
X27136410Y-30718410D01*
X27267685Y-30558450D01*
X27365232Y-30375954D01*
X27425300Y-30177934D01*
X27445583Y-29972000D01*
X27874417Y-29972000D01*
X27894699Y-30177932D01*
X27894700Y-30177934D01*
X27954768Y-30375954D01*
X28052315Y-30558450D01*
X28052317Y-30558452D01*
X28183589Y-30718410D01*
X28275257Y-30793639D01*
X28343550Y-30849685D01*
X28526046Y-30947232D01*
X28724066Y-31007300D01*
X28724065Y-31007300D01*
X28742529Y-31009118D01*
X28930000Y-31027583D01*
X29135934Y-31007300D01*
X29333954Y-30947232D01*
X29516450Y-30849685D01*
X29676410Y-30718410D01*
X29807685Y-30558450D01*
X29905232Y-30375954D01*
X29965300Y-30177934D01*
X29985583Y-29972000D01*
X30414417Y-29972000D01*
X30434699Y-30177932D01*
X30434700Y-30177934D01*
X30494768Y-30375954D01*
X30592315Y-30558450D01*
X30592317Y-30558452D01*
X30723589Y-30718410D01*
X30815257Y-30793639D01*
X30883550Y-30849685D01*
X31066046Y-30947232D01*
X31264066Y-31007300D01*
X31264065Y-31007300D01*
X31282529Y-31009118D01*
X31470000Y-31027583D01*
X31675934Y-31007300D01*
X31873954Y-30947232D01*
X32056450Y-30849685D01*
X32216410Y-30718410D01*
X32347685Y-30558450D01*
X32445232Y-30375954D01*
X32505300Y-30177934D01*
X32525583Y-29972000D01*
X32954417Y-29972000D01*
X32974699Y-30177932D01*
X32974700Y-30177934D01*
X33034768Y-30375954D01*
X33132315Y-30558450D01*
X33132317Y-30558452D01*
X33263589Y-30718410D01*
X33355257Y-30793639D01*
X33423550Y-30849685D01*
X33606046Y-30947232D01*
X33804066Y-31007300D01*
X33804065Y-31007300D01*
X33822529Y-31009118D01*
X34010000Y-31027583D01*
X34215934Y-31007300D01*
X34413954Y-30947232D01*
X34596450Y-30849685D01*
X34756410Y-30718410D01*
X34887685Y-30558450D01*
X34985232Y-30375954D01*
X35045300Y-30177934D01*
X35065583Y-29972000D01*
X35494417Y-29972000D01*
X35514699Y-30177932D01*
X35514700Y-30177934D01*
X35574768Y-30375954D01*
X35672315Y-30558450D01*
X35672317Y-30558452D01*
X35803589Y-30718410D01*
X35895257Y-30793639D01*
X35963550Y-30849685D01*
X36146046Y-30947232D01*
X36344066Y-31007300D01*
X36344065Y-31007300D01*
X36362529Y-31009118D01*
X36550000Y-31027583D01*
X36755934Y-31007300D01*
X36953954Y-30947232D01*
X37136450Y-30849685D01*
X37296410Y-30718410D01*
X37427685Y-30558450D01*
X37525232Y-30375954D01*
X37545406Y-30309446D01*
X37583702Y-30251010D01*
X37647514Y-30222553D01*
X37716581Y-30233112D01*
X37768975Y-30279336D01*
X37783841Y-30313349D01*
X37816567Y-30435486D01*
X37816570Y-30435492D01*
X37916399Y-30649578D01*
X38051894Y-30843082D01*
X38218917Y-31010105D01*
X38412421Y-31145600D01*
X38626507Y-31245429D01*
X38626516Y-31245433D01*
X38840000Y-31302634D01*
X38840000Y-30405012D01*
X38897007Y-30437925D01*
X39024174Y-30472000D01*
X39155826Y-30472000D01*
X39282993Y-30437925D01*
X39340000Y-30405012D01*
X39340000Y-31302633D01*
X39553483Y-31245433D01*
X39553492Y-31245429D01*
X39767578Y-31145600D01*
X39961082Y-31010105D01*
X40128105Y-30843082D01*
X40263600Y-30649578D01*
X40363429Y-30435492D01*
X40363433Y-30435483D01*
X40396158Y-30313350D01*
X40432522Y-30253690D01*
X40495369Y-30223160D01*
X40564745Y-30231454D01*
X40618623Y-30275939D01*
X40634593Y-30309447D01*
X40654768Y-30375954D01*
X40752315Y-30558450D01*
X40752317Y-30558452D01*
X40883589Y-30718410D01*
X40975257Y-30793639D01*
X41043550Y-30849685D01*
X41226046Y-30947232D01*
X41424066Y-31007300D01*
X41424065Y-31007300D01*
X41442529Y-31009118D01*
X41630000Y-31027583D01*
X41835934Y-31007300D01*
X42033954Y-30947232D01*
X42216450Y-30849685D01*
X42376410Y-30718410D01*
X42507685Y-30558450D01*
X42605232Y-30375954D01*
X42665300Y-30177934D01*
X42685583Y-29972000D01*
X43114417Y-29972000D01*
X43134699Y-30177932D01*
X43134700Y-30177934D01*
X43194768Y-30375954D01*
X43292315Y-30558450D01*
X43292317Y-30558452D01*
X43423589Y-30718410D01*
X43515257Y-30793639D01*
X43583550Y-30849685D01*
X43766046Y-30947232D01*
X43964066Y-31007300D01*
X43964065Y-31007300D01*
X43982529Y-31009118D01*
X44170000Y-31027583D01*
X44375934Y-31007300D01*
X44573954Y-30947232D01*
X44756450Y-30849685D01*
X44916410Y-30718410D01*
X45047685Y-30558450D01*
X45145232Y-30375954D01*
X45205300Y-30177934D01*
X45225583Y-29972000D01*
X45654417Y-29972000D01*
X45674699Y-30177932D01*
X45674700Y-30177934D01*
X45734768Y-30375954D01*
X45832315Y-30558450D01*
X45832317Y-30558452D01*
X45963589Y-30718410D01*
X46055257Y-30793639D01*
X46123550Y-30849685D01*
X46306046Y-30947232D01*
X46504066Y-31007300D01*
X46504065Y-31007300D01*
X46522529Y-31009118D01*
X46710000Y-31027583D01*
X46915934Y-31007300D01*
X47113954Y-30947232D01*
X47296450Y-30849685D01*
X47456410Y-30718410D01*
X47587685Y-30558450D01*
X47685232Y-30375954D01*
X47745300Y-30177934D01*
X47765583Y-29972000D01*
X48194417Y-29972000D01*
X48214699Y-30177932D01*
X48214700Y-30177934D01*
X48274768Y-30375954D01*
X48372315Y-30558450D01*
X48372317Y-30558452D01*
X48503589Y-30718410D01*
X48595257Y-30793639D01*
X48663550Y-30849685D01*
X48846046Y-30947232D01*
X49044066Y-31007300D01*
X49044065Y-31007300D01*
X49062529Y-31009118D01*
X49250000Y-31027583D01*
X49455934Y-31007300D01*
X49653954Y-30947232D01*
X49836450Y-30849685D01*
X49996410Y-30718410D01*
X50127685Y-30558450D01*
X50225232Y-30375954D01*
X50285300Y-30177934D01*
X50305583Y-29972000D01*
X50734417Y-29972000D01*
X50754699Y-30177932D01*
X50754700Y-30177934D01*
X50814768Y-30375954D01*
X50912315Y-30558450D01*
X50912317Y-30558452D01*
X51043589Y-30718410D01*
X51135257Y-30793639D01*
X51203550Y-30849685D01*
X51386046Y-30947232D01*
X51584066Y-31007300D01*
X51584065Y-31007300D01*
X51602529Y-31009118D01*
X51790000Y-31027583D01*
X51995934Y-31007300D01*
X52193954Y-30947232D01*
X52376450Y-30849685D01*
X52536410Y-30718410D01*
X52667685Y-30558450D01*
X52765232Y-30375954D01*
X52825300Y-30177934D01*
X52845583Y-29972000D01*
X53274417Y-29972000D01*
X53294699Y-30177932D01*
X53294700Y-30177934D01*
X53354768Y-30375954D01*
X53452315Y-30558450D01*
X53452317Y-30558452D01*
X53583589Y-30718410D01*
X53675257Y-30793639D01*
X53743550Y-30849685D01*
X53926046Y-30947232D01*
X54124066Y-31007300D01*
X54124065Y-31007300D01*
X54142529Y-31009118D01*
X54330000Y-31027583D01*
X54535934Y-31007300D01*
X54733954Y-30947232D01*
X54916450Y-30849685D01*
X55076410Y-30718410D01*
X55207685Y-30558450D01*
X55305232Y-30375954D01*
X55365300Y-30177934D01*
X55385583Y-29972000D01*
X55365300Y-29766066D01*
X55305232Y-29568046D01*
X55207685Y-29385550D01*
X55115535Y-29273264D01*
X55076410Y-29225589D01*
X54926121Y-29102252D01*
X54916450Y-29094315D01*
X54733954Y-28996768D01*
X54535934Y-28936700D01*
X54535932Y-28936699D01*
X54535934Y-28936699D01*
X54330000Y-28916417D01*
X54124067Y-28936699D01*
X54000618Y-28974147D01*
X53927085Y-28996453D01*
X53926043Y-28996769D01*
X53838114Y-29043769D01*
X53743550Y-29094315D01*
X53743548Y-29094316D01*
X53743547Y-29094317D01*
X53583589Y-29225589D01*
X53452317Y-29385547D01*
X53354769Y-29568043D01*
X53294699Y-29766067D01*
X53274417Y-29972000D01*
X52845583Y-29972000D01*
X52825300Y-29766066D01*
X52765232Y-29568046D01*
X52667685Y-29385550D01*
X52575535Y-29273264D01*
X52536410Y-29225589D01*
X52386121Y-29102252D01*
X52376450Y-29094315D01*
X52193954Y-28996768D01*
X51995934Y-28936700D01*
X51995932Y-28936699D01*
X51995934Y-28936699D01*
X51790000Y-28916417D01*
X51584067Y-28936699D01*
X51460618Y-28974147D01*
X51387085Y-28996453D01*
X51386043Y-28996769D01*
X51298114Y-29043769D01*
X51203550Y-29094315D01*
X51203548Y-29094316D01*
X51203547Y-29094317D01*
X51043589Y-29225589D01*
X50912317Y-29385547D01*
X50814769Y-29568043D01*
X50754699Y-29766067D01*
X50734417Y-29972000D01*
X50305583Y-29972000D01*
X50285300Y-29766066D01*
X50225232Y-29568046D01*
X50127685Y-29385550D01*
X50035535Y-29273264D01*
X49996410Y-29225589D01*
X49846121Y-29102252D01*
X49836450Y-29094315D01*
X49653954Y-28996768D01*
X49455934Y-28936700D01*
X49455932Y-28936699D01*
X49455934Y-28936699D01*
X49250000Y-28916417D01*
X49044067Y-28936699D01*
X48920618Y-28974147D01*
X48847085Y-28996453D01*
X48846043Y-28996769D01*
X48758114Y-29043769D01*
X48663550Y-29094315D01*
X48663548Y-29094316D01*
X48663547Y-29094317D01*
X48503589Y-29225589D01*
X48372317Y-29385547D01*
X48274769Y-29568043D01*
X48214699Y-29766067D01*
X48194417Y-29972000D01*
X47765583Y-29972000D01*
X47745300Y-29766066D01*
X47685232Y-29568046D01*
X47587685Y-29385550D01*
X47495535Y-29273264D01*
X47456410Y-29225589D01*
X47306121Y-29102252D01*
X47296450Y-29094315D01*
X47113954Y-28996768D01*
X46915934Y-28936700D01*
X46915932Y-28936699D01*
X46915934Y-28936699D01*
X46710000Y-28916417D01*
X46504067Y-28936699D01*
X46380618Y-28974147D01*
X46307085Y-28996453D01*
X46306043Y-28996769D01*
X46218114Y-29043769D01*
X46123550Y-29094315D01*
X46123548Y-29094316D01*
X46123547Y-29094317D01*
X45963589Y-29225589D01*
X45832317Y-29385547D01*
X45734769Y-29568043D01*
X45674699Y-29766067D01*
X45654417Y-29972000D01*
X45225583Y-29972000D01*
X45205300Y-29766066D01*
X45145232Y-29568046D01*
X45047685Y-29385550D01*
X44955535Y-29273264D01*
X44916410Y-29225589D01*
X44766121Y-29102252D01*
X44756450Y-29094315D01*
X44573954Y-28996768D01*
X44375934Y-28936700D01*
X44375932Y-28936699D01*
X44375934Y-28936699D01*
X44170000Y-28916417D01*
X43964067Y-28936699D01*
X43840618Y-28974147D01*
X43767085Y-28996453D01*
X43766043Y-28996769D01*
X43678114Y-29043769D01*
X43583550Y-29094315D01*
X43583548Y-29094316D01*
X43583547Y-29094317D01*
X43423589Y-29225589D01*
X43292317Y-29385547D01*
X43194769Y-29568043D01*
X43134699Y-29766067D01*
X43114417Y-29972000D01*
X42685583Y-29972000D01*
X42665300Y-29766066D01*
X42605232Y-29568046D01*
X42507685Y-29385550D01*
X42415535Y-29273264D01*
X42376410Y-29225589D01*
X42226121Y-29102252D01*
X42216450Y-29094315D01*
X42033954Y-28996768D01*
X41835934Y-28936700D01*
X41835932Y-28936699D01*
X41835934Y-28936699D01*
X41630000Y-28916417D01*
X41424067Y-28936699D01*
X41300618Y-28974147D01*
X41227085Y-28996453D01*
X41226043Y-28996769D01*
X41138114Y-29043769D01*
X41043550Y-29094315D01*
X41043548Y-29094316D01*
X41043547Y-29094317D01*
X40883589Y-29225589D01*
X40752317Y-29385547D01*
X40654767Y-29568046D01*
X40634593Y-29634552D01*
X40596296Y-29692990D01*
X40532483Y-29721447D01*
X40463416Y-29710886D01*
X40411023Y-29664661D01*
X40396158Y-29630649D01*
X40363433Y-29508516D01*
X40363429Y-29508507D01*
X40263600Y-29294422D01*
X40263599Y-29294420D01*
X40128113Y-29100926D01*
X40128108Y-29100920D01*
X39961082Y-28933894D01*
X39767578Y-28798399D01*
X39553492Y-28698570D01*
X39553486Y-28698567D01*
X39340000Y-28641364D01*
X39340000Y-29538988D01*
X39282993Y-29506075D01*
X39155826Y-29472000D01*
X39024174Y-29472000D01*
X38897007Y-29506075D01*
X38840000Y-29538988D01*
X38840000Y-28641364D01*
X38839999Y-28641364D01*
X38626513Y-28698567D01*
X38626507Y-28698570D01*
X38412422Y-28798399D01*
X38412420Y-28798400D01*
X38218926Y-28933886D01*
X38218920Y-28933891D01*
X38051891Y-29100920D01*
X38051886Y-29100926D01*
X37916400Y-29294420D01*
X37916399Y-29294422D01*
X37816570Y-29508507D01*
X37816567Y-29508514D01*
X37783841Y-29630650D01*
X37747476Y-29690310D01*
X37684629Y-29720839D01*
X37615253Y-29712544D01*
X37561375Y-29668059D01*
X37545406Y-29634552D01*
X37525232Y-29568046D01*
X37427685Y-29385550D01*
X37335535Y-29273264D01*
X37296410Y-29225589D01*
X37146121Y-29102252D01*
X37136450Y-29094315D01*
X36953954Y-28996768D01*
X36755934Y-28936700D01*
X36755932Y-28936699D01*
X36755934Y-28936699D01*
X36550000Y-28916417D01*
X36344067Y-28936699D01*
X36220618Y-28974147D01*
X36147085Y-28996453D01*
X36146043Y-28996769D01*
X36058114Y-29043769D01*
X35963550Y-29094315D01*
X35963548Y-29094316D01*
X35963547Y-29094317D01*
X35803589Y-29225589D01*
X35672317Y-29385547D01*
X35574769Y-29568043D01*
X35514699Y-29766067D01*
X35494417Y-29972000D01*
X35065583Y-29972000D01*
X35045300Y-29766066D01*
X34985232Y-29568046D01*
X34887685Y-29385550D01*
X34795535Y-29273264D01*
X34756410Y-29225589D01*
X34606121Y-29102252D01*
X34596450Y-29094315D01*
X34413954Y-28996768D01*
X34215934Y-28936700D01*
X34215932Y-28936699D01*
X34215934Y-28936699D01*
X34010000Y-28916417D01*
X33804067Y-28936699D01*
X33680618Y-28974147D01*
X33607085Y-28996453D01*
X33606043Y-28996769D01*
X33518114Y-29043769D01*
X33423550Y-29094315D01*
X33423548Y-29094316D01*
X33423547Y-29094317D01*
X33263589Y-29225589D01*
X33132317Y-29385547D01*
X33034769Y-29568043D01*
X32974699Y-29766067D01*
X32954417Y-29972000D01*
X32525583Y-29972000D01*
X32505300Y-29766066D01*
X32445232Y-29568046D01*
X32347685Y-29385550D01*
X32255535Y-29273264D01*
X32216410Y-29225589D01*
X32066121Y-29102252D01*
X32056450Y-29094315D01*
X31873954Y-28996768D01*
X31675934Y-28936700D01*
X31675932Y-28936699D01*
X31675934Y-28936699D01*
X31470000Y-28916417D01*
X31264067Y-28936699D01*
X31140618Y-28974147D01*
X31067085Y-28996453D01*
X31066043Y-28996769D01*
X30978114Y-29043769D01*
X30883550Y-29094315D01*
X30883548Y-29094316D01*
X30883547Y-29094317D01*
X30723589Y-29225589D01*
X30592317Y-29385547D01*
X30494769Y-29568043D01*
X30434699Y-29766067D01*
X30414417Y-29972000D01*
X29985583Y-29972000D01*
X29965300Y-29766066D01*
X29905232Y-29568046D01*
X29807685Y-29385550D01*
X29715535Y-29273264D01*
X29676410Y-29225589D01*
X29526121Y-29102252D01*
X29516450Y-29094315D01*
X29333954Y-28996768D01*
X29135934Y-28936700D01*
X29135932Y-28936699D01*
X29135934Y-28936699D01*
X28930000Y-28916417D01*
X28724067Y-28936699D01*
X28600618Y-28974147D01*
X28527085Y-28996453D01*
X28526043Y-28996769D01*
X28438114Y-29043769D01*
X28343550Y-29094315D01*
X28343548Y-29094316D01*
X28343547Y-29094317D01*
X28183589Y-29225589D01*
X28052317Y-29385547D01*
X27954769Y-29568043D01*
X27894699Y-29766067D01*
X27874417Y-29972000D01*
X27445583Y-29972000D01*
X27425300Y-29766066D01*
X27365232Y-29568046D01*
X27267685Y-29385550D01*
X27175535Y-29273264D01*
X27136410Y-29225589D01*
X26986121Y-29102252D01*
X26976450Y-29094315D01*
X26793954Y-28996768D01*
X26595934Y-28936700D01*
X26595932Y-28936699D01*
X26595934Y-28936699D01*
X26390000Y-28916417D01*
X26184067Y-28936699D01*
X26060618Y-28974147D01*
X25987085Y-28996453D01*
X25986043Y-28996769D01*
X25898114Y-29043769D01*
X25803550Y-29094315D01*
X25803548Y-29094316D01*
X25803547Y-29094317D01*
X25643589Y-29225589D01*
X25512317Y-29385547D01*
X25414769Y-29568043D01*
X25354699Y-29766067D01*
X25334417Y-29972000D01*
X24967810Y-29972000D01*
X25314680Y-28987668D01*
X25343947Y-28941206D01*
X26489336Y-27795819D01*
X26550659Y-27762334D01*
X26577017Y-27759500D01*
X42943114Y-27759500D01*
X42943116Y-27759500D01*
X43026410Y-27737181D01*
X43101090Y-27694065D01*
X45200132Y-25595023D01*
X45243248Y-25520343D01*
X45265567Y-25437049D01*
X45265567Y-25350817D01*
X45265567Y-24383998D01*
X51184318Y-24383998D01*
X51184318Y-24384001D01*
X51204955Y-24540760D01*
X51204956Y-24540762D01*
X51265464Y-24686841D01*
X51361718Y-24812282D01*
X51487159Y-24908536D01*
X51633238Y-24969044D01*
X51711619Y-24979363D01*
X51789999Y-24989682D01*
X51790000Y-24989682D01*
X51790001Y-24989682D01*
X51842254Y-24982802D01*
X51946762Y-24969044D01*
X52092841Y-24908536D01*
X52218282Y-24812282D01*
X52314536Y-24686841D01*
X52375044Y-24540762D01*
X52388802Y-24436254D01*
X52395682Y-24384001D01*
X52395682Y-24383998D01*
X52375044Y-24227239D01*
X52375044Y-24227238D01*
X52359665Y-24190111D01*
X52351260Y-24158623D01*
X52350775Y-24154883D01*
X52150009Y-23559906D01*
X52143500Y-23520260D01*
X52143500Y-20812258D01*
X52163185Y-20745219D01*
X52215989Y-20699464D01*
X52220184Y-20697641D01*
X52544523Y-20564020D01*
X52544522Y-20564019D01*
X52568523Y-20554132D01*
X52571464Y-20550495D01*
X52594566Y-20537903D01*
X52626841Y-20524536D01*
X52752282Y-20428282D01*
X52848536Y-20302841D01*
X52909044Y-20156762D01*
X52929682Y-20000000D01*
X52909044Y-19843238D01*
X52848536Y-19697159D01*
X52752282Y-19571718D01*
X52626841Y-19475464D01*
X52480762Y-19414956D01*
X52480760Y-19414955D01*
X52324001Y-19394318D01*
X52323999Y-19394318D01*
X52167239Y-19414955D01*
X52167237Y-19414956D01*
X52021160Y-19475463D01*
X51895716Y-19571719D01*
X51799465Y-19697156D01*
X51774840Y-19756604D01*
X51766662Y-19772857D01*
X51756811Y-19789305D01*
X51756809Y-19789309D01*
X51704974Y-19934332D01*
X51591120Y-20252862D01*
X51562043Y-20298801D01*
X51553936Y-20306908D01*
X51553934Y-20306911D01*
X51510819Y-20381589D01*
X51488500Y-20464885D01*
X51488500Y-23511060D01*
X51478888Y-23558928D01*
X51235394Y-24140800D01*
X51235392Y-24140808D01*
X51232666Y-24154301D01*
X51225684Y-24177193D01*
X51204956Y-24227236D01*
X51184318Y-24383998D01*
X45265567Y-24383998D01*
X45265567Y-21968951D01*
X45243248Y-21885657D01*
X45200132Y-21810977D01*
X45139157Y-21750002D01*
X43771819Y-20382664D01*
X43738334Y-20321341D01*
X43735500Y-20294983D01*
X43735500Y-19085831D01*
X43755185Y-19018792D01*
X43807989Y-18973037D01*
X43814210Y-18970398D01*
X44146042Y-18840204D01*
X44147644Y-18839568D01*
X44147838Y-18839490D01*
X44158935Y-18832165D01*
X44179775Y-18821101D01*
X44231841Y-18799536D01*
X44357282Y-18703282D01*
X44453536Y-18577841D01*
X44514044Y-18431762D01*
X44534682Y-18275000D01*
X44514044Y-18118238D01*
X44453536Y-17972159D01*
X44357282Y-17846718D01*
X44231841Y-17750464D01*
X44085762Y-17689956D01*
X44085760Y-17689955D01*
X43929001Y-17669318D01*
X43928999Y-17669318D01*
X43772239Y-17689955D01*
X43772237Y-17689956D01*
X43626160Y-17750463D01*
X43500716Y-17846719D01*
X43404465Y-17972157D01*
X43404464Y-17972158D01*
X43404464Y-17972159D01*
X43381429Y-18027765D01*
X43372104Y-18045897D01*
X43362943Y-18060593D01*
X43179814Y-18545480D01*
X43151497Y-18589346D01*
X43145937Y-18594906D01*
X43102819Y-18669589D01*
X43102819Y-18669590D01*
X43080500Y-18752884D01*
X43080500Y-20438884D01*
X43080500Y-20525116D01*
X43088275Y-20554132D01*
X43102819Y-20608410D01*
X43145934Y-20683088D01*
X43145936Y-20683091D01*
X43743482Y-21280637D01*
X43776967Y-21341960D01*
X43771983Y-21411652D01*
X43730111Y-21467585D01*
X43669898Y-21490043D01*
X43670058Y-21491257D01*
X43664782Y-21491951D01*
X43664647Y-21492002D01*
X43664306Y-21492014D01*
X43505239Y-21512955D01*
X43505237Y-21512956D01*
X43359160Y-21573463D01*
X43233716Y-21669719D01*
X43137463Y-21795159D01*
X43119442Y-21838665D01*
X43105784Y-21863284D01*
X43100494Y-21870688D01*
X43100487Y-21870701D01*
X42869933Y-22381503D01*
X42839570Y-22448773D01*
X42814230Y-22485441D01*
X40200492Y-25099181D01*
X40139169Y-25132666D01*
X40112811Y-25135500D01*
X17991147Y-25135500D01*
X17908362Y-25157682D01*
X17908361Y-25157682D01*
X17908359Y-25157683D01*
X17899954Y-25162536D01*
X17899952Y-25162538D01*
X17834139Y-25200534D01*
X17834136Y-25200536D01*
X14217537Y-28817135D01*
X14217535Y-28817138D01*
X14174682Y-28891361D01*
X14162997Y-28934971D01*
X14162997Y-28934972D01*
X14162996Y-28934971D01*
X14152500Y-28974145D01*
X14152500Y-30710852D01*
X14174682Y-30793640D01*
X14196108Y-30830750D01*
X14217535Y-30867862D01*
X14595106Y-31245433D01*
X14887993Y-31538319D01*
X14921478Y-31599642D01*
X14916494Y-31669333D01*
X14874623Y-31725267D01*
X14809158Y-31749684D01*
X14800312Y-31750000D01*
X13814000Y-31750000D01*
X13746961Y-31730315D01*
X13701206Y-31677511D01*
X13690000Y-31626000D01*
X13690000Y-18983998D01*
X29874318Y-18983998D01*
X29874318Y-18984001D01*
X29894955Y-19140760D01*
X29894956Y-19140761D01*
X29912771Y-19183772D01*
X29920577Y-19211169D01*
X29921987Y-19219778D01*
X30017852Y-19475464D01*
X30135521Y-19789308D01*
X30144608Y-19813543D01*
X30152500Y-19857075D01*
X30152500Y-22356554D01*
X30148371Y-22388287D01*
X30147214Y-22392654D01*
X30120576Y-22818577D01*
X30120576Y-22818578D01*
X30103676Y-23088759D01*
X30103385Y-23094885D01*
X30103148Y-23102116D01*
X30102575Y-23102097D01*
X30102318Y-23110926D01*
X30102318Y-23114001D01*
X30112637Y-23192381D01*
X30122956Y-23270762D01*
X30183464Y-23416841D01*
X30279718Y-23542282D01*
X30405159Y-23638536D01*
X30551238Y-23699044D01*
X30629619Y-23709363D01*
X30707999Y-23719682D01*
X30708000Y-23719682D01*
X30708001Y-23719682D01*
X30760254Y-23712802D01*
X30864762Y-23699044D01*
X31010841Y-23638536D01*
X31136282Y-23542282D01*
X31232536Y-23416841D01*
X31293044Y-23270762D01*
X31306802Y-23166254D01*
X31313682Y-23114001D01*
X31313682Y-23113998D01*
X31293044Y-22957239D01*
X31293042Y-22957234D01*
X31232538Y-22811163D01*
X31232535Y-22811158D01*
X31144380Y-22696272D01*
X31141610Y-22692131D01*
X31141510Y-22692203D01*
X31137949Y-22687246D01*
X30838369Y-22346455D01*
X30808891Y-22283108D01*
X30807500Y-22264586D01*
X30807500Y-19857075D01*
X30815392Y-19813543D01*
X30824478Y-19789309D01*
X31038011Y-19219781D01*
X31039753Y-19209718D01*
X31047375Y-19183417D01*
X31065044Y-19140762D01*
X31085682Y-18984000D01*
X31083891Y-18970398D01*
X31065044Y-18827239D01*
X31065044Y-18827238D01*
X31004536Y-18681159D01*
X30908282Y-18555718D01*
X30782841Y-18459464D01*
X30636762Y-18398956D01*
X30636760Y-18398955D01*
X30480001Y-18378318D01*
X30479999Y-18378318D01*
X30323239Y-18398955D01*
X30323237Y-18398956D01*
X30177160Y-18459463D01*
X30051718Y-18555718D01*
X29955463Y-18681160D01*
X29894956Y-18827237D01*
X29894955Y-18827239D01*
X29874318Y-18983998D01*
X13690000Y-18983998D01*
X13690000Y-13840000D01*
X13709685Y-13772961D01*
X13762489Y-13727206D01*
X13814000Y-13716000D01*
X57254000Y-13716000D01*
X57321039Y-13735685D01*
G37*
G04 #@! TD.AperFunction*
G04 #@! TA.AperFunction,Conductor*
G36*
X43302909Y-21949232D02*
G01*
X43445763Y-22008018D01*
X43658195Y-22095436D01*
X43664542Y-22101754D01*
X43664563Y-22101804D01*
X43810767Y-22457090D01*
X43810746Y-22466044D01*
X43804760Y-22472206D01*
X43192071Y-22748747D01*
X43183121Y-22749027D01*
X43178985Y-22746356D01*
X43013643Y-22581014D01*
X43010216Y-22572741D01*
X43011252Y-22567928D01*
X43057238Y-22466044D01*
X43287794Y-21955238D01*
X43294320Y-21949108D01*
X43302909Y-21949232D01*
G37*
G04 #@! TD.AperFunction*
G04 #@! TA.AperFunction,Conductor*
G36*
X17996106Y-29651428D02*
G01*
X18766215Y-29969438D01*
X18772552Y-29975761D01*
X18772562Y-29975785D01*
X19090567Y-30745883D01*
X19090558Y-30754838D01*
X19084219Y-30761163D01*
X19083629Y-30761388D01*
X17663251Y-31260031D01*
X17654309Y-31259539D01*
X17651102Y-31257265D01*
X17484734Y-31090897D01*
X17481307Y-31082624D01*
X17481968Y-31078748D01*
X17593461Y-30761163D01*
X17980612Y-29658368D01*
X17986584Y-29651699D01*
X17995526Y-29651207D01*
X17996106Y-29651428D01*
G37*
G04 #@! TD.AperFunction*
G04 #@! TA.AperFunction,Conductor*
G36*
X51965757Y-19851580D02*
G01*
X52319496Y-19997146D01*
X52325843Y-20003464D01*
X52325858Y-20003499D01*
X52472601Y-20358728D01*
X52472592Y-20367683D01*
X52466254Y-20374009D01*
X52466244Y-20374013D01*
X51945141Y-20588698D01*
X51940684Y-20589580D01*
X51705607Y-20589580D01*
X51697334Y-20586153D01*
X51693907Y-20577880D01*
X51694590Y-20573942D01*
X51898484Y-20003499D01*
X51950320Y-19858474D01*
X51956331Y-19851838D01*
X51965275Y-19851396D01*
X51965757Y-19851580D01*
G37*
G04 #@! TD.AperFunction*
G04 #@! TA.AperFunction,Conductor*
G36*
X51942873Y-23592599D02*
G01*
X51945686Y-23597131D01*
X52156062Y-24220586D01*
X52155460Y-24229521D01*
X52149478Y-24235126D01*
X51794502Y-24383123D01*
X51785548Y-24383144D01*
X51785498Y-24383123D01*
X51431261Y-24235435D01*
X51424943Y-24229088D01*
X51424964Y-24220134D01*
X51685994Y-23596354D01*
X51692349Y-23590046D01*
X51696787Y-23589172D01*
X51934600Y-23589172D01*
X51942873Y-23592599D01*
G37*
G04 #@! TD.AperFunction*
G04 #@! TA.AperFunction,Conductor*
G36*
X22424270Y-28683047D02*
G01*
X22427490Y-28685327D01*
X22596672Y-28854509D01*
X22600099Y-28862782D01*
X22599434Y-28866671D01*
X22099397Y-30285647D01*
X22093415Y-30292311D01*
X22084473Y-30292793D01*
X22083896Y-30292572D01*
X21313785Y-29974562D01*
X21307447Y-29968238D01*
X20989427Y-29198103D01*
X20989436Y-29189148D01*
X20995775Y-29182823D01*
X20996331Y-29182609D01*
X22415329Y-28682565D01*
X22424270Y-28683047D01*
G37*
G04 #@! TD.AperFunction*
G04 #@! TA.AperFunction,Conductor*
G36*
X43810880Y-24489219D02*
G01*
X44166195Y-24635436D01*
X44172542Y-24641754D01*
X44172563Y-24641804D01*
X44318779Y-24997118D01*
X44318758Y-25006072D01*
X44312801Y-25012221D01*
X43701498Y-25290132D01*
X43692549Y-25290436D01*
X43688383Y-25287754D01*
X43520245Y-25119616D01*
X43516818Y-25111343D01*
X43517866Y-25106505D01*
X43795779Y-24495197D01*
X43802322Y-24489085D01*
X43810880Y-24489219D01*
G37*
G04 #@! TD.AperFunction*
G04 #@! TA.AperFunction,Conductor*
G36*
X24964270Y-28683047D02*
G01*
X24967490Y-28685327D01*
X25136672Y-28854509D01*
X25140099Y-28862782D01*
X25139434Y-28866671D01*
X24639397Y-30285647D01*
X24633415Y-30292311D01*
X24624473Y-30292793D01*
X24623896Y-30292572D01*
X23853785Y-29974562D01*
X23847447Y-29968238D01*
X23529427Y-29198103D01*
X23529436Y-29189148D01*
X23535775Y-29182823D01*
X23536331Y-29182609D01*
X24955329Y-28682565D01*
X24964270Y-28683047D01*
G37*
G04 #@! TD.AperFunction*
G04 #@! TA.AperFunction,Conductor*
G36*
X43570578Y-18126507D02*
G01*
X43924496Y-18272146D01*
X43930843Y-18278464D01*
X43930858Y-18278499D01*
X44077525Y-18633543D01*
X44077516Y-18642498D01*
X44071178Y-18648824D01*
X44070984Y-18648902D01*
X43537059Y-18858388D01*
X43532786Y-18859196D01*
X43297925Y-18859196D01*
X43289652Y-18855769D01*
X43286225Y-18847496D01*
X43286980Y-18843362D01*
X43360452Y-18648824D01*
X43555192Y-18133195D01*
X43561319Y-18126668D01*
X43570270Y-18126386D01*
X43570578Y-18126507D01*
G37*
G04 #@! TD.AperFunction*
G04 #@! TA.AperFunction,Conductor*
G36*
X17593015Y-28434134D02*
G01*
X17596709Y-28436628D01*
X17765371Y-28605290D01*
X17768798Y-28613563D01*
X17767949Y-28617938D01*
X17084412Y-30313138D01*
X17078140Y-30319530D01*
X17069186Y-30319614D01*
X17069094Y-30319577D01*
X16233784Y-29974562D01*
X16227446Y-29968236D01*
X15882422Y-29132904D01*
X15882431Y-29123950D01*
X15888767Y-29117625D01*
X17584063Y-28434050D01*
X17593015Y-28434134D01*
G37*
G04 #@! TD.AperFunction*
G04 #@! TA.AperFunction,Conductor*
G36*
X43556880Y-23219219D02*
G01*
X43912195Y-23365436D01*
X43918542Y-23371754D01*
X43918563Y-23371804D01*
X44064779Y-23727118D01*
X44064758Y-23736072D01*
X44058801Y-23742221D01*
X43447498Y-24020132D01*
X43438549Y-24020436D01*
X43434383Y-24017754D01*
X43266245Y-23849616D01*
X43262818Y-23841343D01*
X43263866Y-23836505D01*
X43541779Y-23225197D01*
X43548322Y-23219085D01*
X43556880Y-23219219D01*
G37*
G04 #@! TD.AperFunction*
G04 #@! TA.AperFunction,Conductor*
G36*
X30839138Y-19132731D02*
G01*
X30845456Y-19139078D01*
X30845591Y-19147637D01*
X30609847Y-19776407D01*
X30603734Y-19782951D01*
X30598892Y-19784000D01*
X30361108Y-19784000D01*
X30352835Y-19780573D01*
X30350153Y-19776407D01*
X30114408Y-19147635D01*
X30114712Y-19138688D01*
X30120859Y-19132732D01*
X30475500Y-18984875D01*
X30484449Y-18984855D01*
X30839138Y-19132731D01*
G37*
G04 #@! TD.AperFunction*
G04 #@! TA.AperFunction,Conductor*
G36*
X30609980Y-22397939D02*
G01*
X30610494Y-22398487D01*
X30983611Y-22822930D01*
X30986500Y-22831406D01*
X30983112Y-22838914D01*
X30711441Y-23111546D01*
X30703174Y-23114987D01*
X30703124Y-23114987D01*
X30320423Y-23114031D01*
X30312158Y-23110583D01*
X30308752Y-23102302D01*
X30308775Y-23101601D01*
X30325675Y-22831406D01*
X30352314Y-22405482D01*
X30356250Y-22397439D01*
X30363991Y-22394512D01*
X30601707Y-22394512D01*
X30609980Y-22397939D01*
G37*
G04 #@! TD.AperFunction*
M02*
