G04 #@! TF.GenerationSoftware,KiCad,Pcbnew,8.0.4*
G04 #@! TF.CreationDate,2024-08-16T15:34:14+02:00*
G04 #@! TF.ProjectId,AT8,4154382e-6b69-4636-9164-5f7063625858,00*
G04 #@! TF.SameCoordinates,Original*
G04 #@! TF.FileFunction,Legend,Top*
G04 #@! TF.FilePolarity,Positive*
%FSLAX46Y46*%
G04 Gerber Fmt 4.6, Leading zero omitted, Abs format (unit mm)*
G04 Created by KiCad (PCBNEW 8.0.4) date 2024-08-16 15:34:14*
%MOMM*%
%LPD*%
G01*
G04 APERTURE LIST*
G04 Aperture macros list*
%AMRoundRect*
0 Rectangle with rounded corners*
0 $1 Rounding radius*
0 $2 $3 $4 $5 $6 $7 $8 $9 X,Y pos of 4 corners*
0 Add a 4 corners polygon primitive as box body*
4,1,4,$2,$3,$4,$5,$6,$7,$8,$9,$2,$3,0*
0 Add four circle primitives for the rounded corners*
1,1,$1+$1,$2,$3*
1,1,$1+$1,$4,$5*
1,1,$1+$1,$6,$7*
1,1,$1+$1,$8,$9*
0 Add four rect primitives between the rounded corners*
20,1,$1+$1,$2,$3,$4,$5,0*
20,1,$1+$1,$4,$5,$6,$7,0*
20,1,$1+$1,$6,$7,$8,$9,0*
20,1,$1+$1,$8,$9,$2,$3,0*%
G04 Aperture macros list end*
%ADD10C,0.203200*%
%ADD11C,0.120000*%
%ADD12O,1.700000X1.700000*%
%ADD13R,1.700000X1.700000*%
%ADD14RoundRect,0.250000X-0.450000X0.262500X-0.450000X-0.262500X0.450000X-0.262500X0.450000X0.262500X0*%
%ADD15RoundRect,0.250000X-0.250000X-0.475000X0.250000X-0.475000X0.250000X0.475000X-0.250000X0.475000X0*%
%ADD16RoundRect,0.250000X0.262500X0.450000X-0.262500X0.450000X-0.262500X-0.450000X0.262500X-0.450000X0*%
%ADD17RoundRect,0.250000X-0.262500X-0.450000X0.262500X-0.450000X0.262500X0.450000X-0.262500X0.450000X0*%
%ADD18RoundRect,0.250000X0.250000X0.475000X-0.250000X0.475000X-0.250000X-0.475000X0.250000X-0.475000X0*%
%ADD19RoundRect,0.250000X0.450000X-0.262500X0.450000X0.262500X-0.450000X0.262500X-0.450000X-0.262500X0*%
%ADD20RoundRect,0.150000X-0.825000X-0.150000X0.825000X-0.150000X0.825000X0.150000X-0.825000X0.150000X0*%
%ADD21RoundRect,0.250000X0.475000X-0.250000X0.475000X0.250000X-0.475000X0.250000X-0.475000X-0.250000X0*%
G04 APERTURE END LIST*
D10*
X14357047Y-24284523D02*
X14961809Y-24284523D01*
X14236095Y-24647380D02*
X14659428Y-23377380D01*
X14659428Y-23377380D02*
X15082762Y-24647380D01*
X15324666Y-23377380D02*
X16050380Y-23377380D01*
X15687523Y-24647380D02*
X15687523Y-23377380D01*
X16655142Y-23921665D02*
X16534190Y-23861189D01*
X16534190Y-23861189D02*
X16473713Y-23800713D01*
X16473713Y-23800713D02*
X16413237Y-23679761D01*
X16413237Y-23679761D02*
X16413237Y-23619284D01*
X16413237Y-23619284D02*
X16473713Y-23498332D01*
X16473713Y-23498332D02*
X16534190Y-23437856D01*
X16534190Y-23437856D02*
X16655142Y-23377380D01*
X16655142Y-23377380D02*
X16897047Y-23377380D01*
X16897047Y-23377380D02*
X17017999Y-23437856D01*
X17017999Y-23437856D02*
X17078475Y-23498332D01*
X17078475Y-23498332D02*
X17138952Y-23619284D01*
X17138952Y-23619284D02*
X17138952Y-23679761D01*
X17138952Y-23679761D02*
X17078475Y-23800713D01*
X17078475Y-23800713D02*
X17017999Y-23861189D01*
X17017999Y-23861189D02*
X16897047Y-23921665D01*
X16897047Y-23921665D02*
X16655142Y-23921665D01*
X16655142Y-23921665D02*
X16534190Y-23982142D01*
X16534190Y-23982142D02*
X16473713Y-24042618D01*
X16473713Y-24042618D02*
X16413237Y-24163570D01*
X16413237Y-24163570D02*
X16413237Y-24405475D01*
X16413237Y-24405475D02*
X16473713Y-24526427D01*
X16473713Y-24526427D02*
X16534190Y-24586904D01*
X16534190Y-24586904D02*
X16655142Y-24647380D01*
X16655142Y-24647380D02*
X16897047Y-24647380D01*
X16897047Y-24647380D02*
X17017999Y-24586904D01*
X17017999Y-24586904D02*
X17078475Y-24526427D01*
X17078475Y-24526427D02*
X17138952Y-24405475D01*
X17138952Y-24405475D02*
X17138952Y-24163570D01*
X17138952Y-24163570D02*
X17078475Y-24042618D01*
X17078475Y-24042618D02*
X17017999Y-23982142D01*
X17017999Y-23982142D02*
X16897047Y-23921665D01*
X14447761Y-26692009D02*
X14447761Y-25845342D01*
X14447761Y-26087247D02*
X14508238Y-25966294D01*
X14508238Y-25966294D02*
X14568714Y-25905818D01*
X14568714Y-25905818D02*
X14689666Y-25845342D01*
X14689666Y-25845342D02*
X14810619Y-25845342D01*
X15475856Y-25422009D02*
X15596809Y-25422009D01*
X15596809Y-25422009D02*
X15717761Y-25482485D01*
X15717761Y-25482485D02*
X15778237Y-25542961D01*
X15778237Y-25542961D02*
X15838713Y-25663913D01*
X15838713Y-25663913D02*
X15899190Y-25905818D01*
X15899190Y-25905818D02*
X15899190Y-26208199D01*
X15899190Y-26208199D02*
X15838713Y-26450104D01*
X15838713Y-26450104D02*
X15778237Y-26571056D01*
X15778237Y-26571056D02*
X15717761Y-26631533D01*
X15717761Y-26631533D02*
X15596809Y-26692009D01*
X15596809Y-26692009D02*
X15475856Y-26692009D01*
X15475856Y-26692009D02*
X15354904Y-26631533D01*
X15354904Y-26631533D02*
X15294428Y-26571056D01*
X15294428Y-26571056D02*
X15233951Y-26450104D01*
X15233951Y-26450104D02*
X15173475Y-26208199D01*
X15173475Y-26208199D02*
X15173475Y-25905818D01*
X15173475Y-25905818D02*
X15233951Y-25663913D01*
X15233951Y-25663913D02*
X15294428Y-25542961D01*
X15294428Y-25542961D02*
X15354904Y-25482485D01*
X15354904Y-25482485D02*
X15475856Y-25422009D01*
X16685380Y-25422009D02*
X16806333Y-25422009D01*
X16806333Y-25422009D02*
X16927285Y-25482485D01*
X16927285Y-25482485D02*
X16987761Y-25542961D01*
X16987761Y-25542961D02*
X17048237Y-25663913D01*
X17048237Y-25663913D02*
X17108714Y-25905818D01*
X17108714Y-25905818D02*
X17108714Y-26208199D01*
X17108714Y-26208199D02*
X17048237Y-26450104D01*
X17048237Y-26450104D02*
X16987761Y-26571056D01*
X16987761Y-26571056D02*
X16927285Y-26631533D01*
X16927285Y-26631533D02*
X16806333Y-26692009D01*
X16806333Y-26692009D02*
X16685380Y-26692009D01*
X16685380Y-26692009D02*
X16564428Y-26631533D01*
X16564428Y-26631533D02*
X16503952Y-26571056D01*
X16503952Y-26571056D02*
X16443475Y-26450104D01*
X16443475Y-26450104D02*
X16382999Y-26208199D01*
X16382999Y-26208199D02*
X16382999Y-25905818D01*
X16382999Y-25905818D02*
X16443475Y-25663913D01*
X16443475Y-25663913D02*
X16503952Y-25542961D01*
X16503952Y-25542961D02*
X16564428Y-25482485D01*
X16564428Y-25482485D02*
X16685380Y-25422009D01*
X48530333Y-27500959D02*
X48106999Y-26896197D01*
X47804618Y-27500959D02*
X47804618Y-26230959D01*
X47804618Y-26230959D02*
X48288428Y-26230959D01*
X48288428Y-26230959D02*
X48409380Y-26291435D01*
X48409380Y-26291435D02*
X48469857Y-26351911D01*
X48469857Y-26351911D02*
X48530333Y-26472863D01*
X48530333Y-26472863D02*
X48530333Y-26654292D01*
X48530333Y-26654292D02*
X48469857Y-26775244D01*
X48469857Y-26775244D02*
X48409380Y-26835721D01*
X48409380Y-26835721D02*
X48288428Y-26896197D01*
X48288428Y-26896197D02*
X47804618Y-26896197D01*
X49679380Y-26230959D02*
X49074618Y-26230959D01*
X49074618Y-26230959D02*
X49014142Y-26835721D01*
X49014142Y-26835721D02*
X49074618Y-26775244D01*
X49074618Y-26775244D02*
X49195571Y-26714768D01*
X49195571Y-26714768D02*
X49497952Y-26714768D01*
X49497952Y-26714768D02*
X49618904Y-26775244D01*
X49618904Y-26775244D02*
X49679380Y-26835721D01*
X49679380Y-26835721D02*
X49739857Y-26956673D01*
X49739857Y-26956673D02*
X49739857Y-27259054D01*
X49739857Y-27259054D02*
X49679380Y-27380006D01*
X49679380Y-27380006D02*
X49618904Y-27440483D01*
X49618904Y-27440483D02*
X49497952Y-27500959D01*
X49497952Y-27500959D02*
X49195571Y-27500959D01*
X49195571Y-27500959D02*
X49074618Y-27440483D01*
X49074618Y-27440483D02*
X49014142Y-27380006D01*
X49038333Y-21792006D02*
X48977857Y-21852483D01*
X48977857Y-21852483D02*
X48796428Y-21912959D01*
X48796428Y-21912959D02*
X48675476Y-21912959D01*
X48675476Y-21912959D02*
X48494047Y-21852483D01*
X48494047Y-21852483D02*
X48373095Y-21731530D01*
X48373095Y-21731530D02*
X48312618Y-21610578D01*
X48312618Y-21610578D02*
X48252142Y-21368673D01*
X48252142Y-21368673D02*
X48252142Y-21187244D01*
X48252142Y-21187244D02*
X48312618Y-20945340D01*
X48312618Y-20945340D02*
X48373095Y-20824387D01*
X48373095Y-20824387D02*
X48494047Y-20703435D01*
X48494047Y-20703435D02*
X48675476Y-20642959D01*
X48675476Y-20642959D02*
X48796428Y-20642959D01*
X48796428Y-20642959D02*
X48977857Y-20703435D01*
X48977857Y-20703435D02*
X49038333Y-20763911D01*
X50247857Y-21912959D02*
X49522142Y-21912959D01*
X49884999Y-21912959D02*
X49884999Y-20642959D01*
X49884999Y-20642959D02*
X49764047Y-20824387D01*
X49764047Y-20824387D02*
X49643095Y-20945340D01*
X49643095Y-20945340D02*
X49522142Y-21005816D01*
X48537071Y-16258959D02*
X48113737Y-15654197D01*
X47811356Y-16258959D02*
X47811356Y-14988959D01*
X47811356Y-14988959D02*
X48295166Y-14988959D01*
X48295166Y-14988959D02*
X48416118Y-15049435D01*
X48416118Y-15049435D02*
X48476595Y-15109911D01*
X48476595Y-15109911D02*
X48537071Y-15230863D01*
X48537071Y-15230863D02*
X48537071Y-15412292D01*
X48537071Y-15412292D02*
X48476595Y-15533244D01*
X48476595Y-15533244D02*
X48416118Y-15593721D01*
X48416118Y-15593721D02*
X48295166Y-15654197D01*
X48295166Y-15654197D02*
X47811356Y-15654197D01*
X49746595Y-16258959D02*
X49020880Y-16258959D01*
X49383737Y-16258959D02*
X49383737Y-14988959D01*
X49383737Y-14988959D02*
X49262785Y-15170387D01*
X49262785Y-15170387D02*
X49141833Y-15291340D01*
X49141833Y-15291340D02*
X49020880Y-15351816D01*
X50835166Y-15412292D02*
X50835166Y-16258959D01*
X50532785Y-14928483D02*
X50230404Y-15835625D01*
X50230404Y-15835625D02*
X51016595Y-15835625D01*
X52093071Y-16258959D02*
X51669737Y-15654197D01*
X51367356Y-16258959D02*
X51367356Y-14988959D01*
X51367356Y-14988959D02*
X51851166Y-14988959D01*
X51851166Y-14988959D02*
X51972118Y-15049435D01*
X51972118Y-15049435D02*
X52032595Y-15109911D01*
X52032595Y-15109911D02*
X52093071Y-15230863D01*
X52093071Y-15230863D02*
X52093071Y-15412292D01*
X52093071Y-15412292D02*
X52032595Y-15533244D01*
X52032595Y-15533244D02*
X51972118Y-15593721D01*
X51972118Y-15593721D02*
X51851166Y-15654197D01*
X51851166Y-15654197D02*
X51367356Y-15654197D01*
X53302595Y-16258959D02*
X52576880Y-16258959D01*
X52939737Y-16258959D02*
X52939737Y-14988959D01*
X52939737Y-14988959D02*
X52818785Y-15170387D01*
X52818785Y-15170387D02*
X52697833Y-15291340D01*
X52697833Y-15291340D02*
X52576880Y-15351816D01*
X54088785Y-14988959D02*
X54209738Y-14988959D01*
X54209738Y-14988959D02*
X54330690Y-15049435D01*
X54330690Y-15049435D02*
X54391166Y-15109911D01*
X54391166Y-15109911D02*
X54451642Y-15230863D01*
X54451642Y-15230863D02*
X54512119Y-15472768D01*
X54512119Y-15472768D02*
X54512119Y-15775149D01*
X54512119Y-15775149D02*
X54451642Y-16017054D01*
X54451642Y-16017054D02*
X54391166Y-16138006D01*
X54391166Y-16138006D02*
X54330690Y-16198483D01*
X54330690Y-16198483D02*
X54209738Y-16258959D01*
X54209738Y-16258959D02*
X54088785Y-16258959D01*
X54088785Y-16258959D02*
X53967833Y-16198483D01*
X53967833Y-16198483D02*
X53907357Y-16138006D01*
X53907357Y-16138006D02*
X53846880Y-16017054D01*
X53846880Y-16017054D02*
X53786404Y-15775149D01*
X53786404Y-15775149D02*
X53786404Y-15472768D01*
X53786404Y-15472768D02*
X53846880Y-15230863D01*
X53846880Y-15230863D02*
X53907357Y-15109911D01*
X53907357Y-15109911D02*
X53967833Y-15049435D01*
X53967833Y-15049435D02*
X54088785Y-14988959D01*
X18741571Y-16832959D02*
X18318237Y-16228197D01*
X18015856Y-16832959D02*
X18015856Y-15562959D01*
X18015856Y-15562959D02*
X18499666Y-15562959D01*
X18499666Y-15562959D02*
X18620618Y-15623435D01*
X18620618Y-15623435D02*
X18681095Y-15683911D01*
X18681095Y-15683911D02*
X18741571Y-15804863D01*
X18741571Y-15804863D02*
X18741571Y-15986292D01*
X18741571Y-15986292D02*
X18681095Y-16107244D01*
X18681095Y-16107244D02*
X18620618Y-16167721D01*
X18620618Y-16167721D02*
X18499666Y-16228197D01*
X18499666Y-16228197D02*
X18015856Y-16228197D01*
X19951095Y-16832959D02*
X19225380Y-16832959D01*
X19588237Y-16832959D02*
X19588237Y-15562959D01*
X19588237Y-15562959D02*
X19467285Y-15744387D01*
X19467285Y-15744387D02*
X19346333Y-15865340D01*
X19346333Y-15865340D02*
X19225380Y-15925816D01*
X21039666Y-15562959D02*
X20797761Y-15562959D01*
X20797761Y-15562959D02*
X20676809Y-15623435D01*
X20676809Y-15623435D02*
X20616333Y-15683911D01*
X20616333Y-15683911D02*
X20495380Y-15865340D01*
X20495380Y-15865340D02*
X20434904Y-16107244D01*
X20434904Y-16107244D02*
X20434904Y-16591054D01*
X20434904Y-16591054D02*
X20495380Y-16712006D01*
X20495380Y-16712006D02*
X20555857Y-16772483D01*
X20555857Y-16772483D02*
X20676809Y-16832959D01*
X20676809Y-16832959D02*
X20918714Y-16832959D01*
X20918714Y-16832959D02*
X21039666Y-16772483D01*
X21039666Y-16772483D02*
X21100142Y-16712006D01*
X21100142Y-16712006D02*
X21160619Y-16591054D01*
X21160619Y-16591054D02*
X21160619Y-16288673D01*
X21160619Y-16288673D02*
X21100142Y-16167721D01*
X21100142Y-16167721D02*
X21039666Y-16107244D01*
X21039666Y-16107244D02*
X20918714Y-16046768D01*
X20918714Y-16046768D02*
X20676809Y-16046768D01*
X20676809Y-16046768D02*
X20555857Y-16107244D01*
X20555857Y-16107244D02*
X20495380Y-16167721D01*
X20495380Y-16167721D02*
X20434904Y-16288673D01*
X38650333Y-25536006D02*
X38589857Y-25596483D01*
X38589857Y-25596483D02*
X38408428Y-25656959D01*
X38408428Y-25656959D02*
X38287476Y-25656959D01*
X38287476Y-25656959D02*
X38106047Y-25596483D01*
X38106047Y-25596483D02*
X37985095Y-25475530D01*
X37985095Y-25475530D02*
X37924618Y-25354578D01*
X37924618Y-25354578D02*
X37864142Y-25112673D01*
X37864142Y-25112673D02*
X37864142Y-24931244D01*
X37864142Y-24931244D02*
X37924618Y-24689340D01*
X37924618Y-24689340D02*
X37985095Y-24568387D01*
X37985095Y-24568387D02*
X38106047Y-24447435D01*
X38106047Y-24447435D02*
X38287476Y-24386959D01*
X38287476Y-24386959D02*
X38408428Y-24386959D01*
X38408428Y-24386959D02*
X38589857Y-24447435D01*
X38589857Y-24447435D02*
X38650333Y-24507911D01*
X39073666Y-24386959D02*
X39859857Y-24386959D01*
X39859857Y-24386959D02*
X39436523Y-24870768D01*
X39436523Y-24870768D02*
X39617952Y-24870768D01*
X39617952Y-24870768D02*
X39738904Y-24931244D01*
X39738904Y-24931244D02*
X39799380Y-24991721D01*
X39799380Y-24991721D02*
X39859857Y-25112673D01*
X39859857Y-25112673D02*
X39859857Y-25415054D01*
X39859857Y-25415054D02*
X39799380Y-25536006D01*
X39799380Y-25536006D02*
X39738904Y-25596483D01*
X39738904Y-25596483D02*
X39617952Y-25656959D01*
X39617952Y-25656959D02*
X39255095Y-25656959D01*
X39255095Y-25656959D02*
X39134142Y-25596483D01*
X39134142Y-25596483D02*
X39073666Y-25536006D01*
X23821571Y-14988959D02*
X23398237Y-14384197D01*
X23095856Y-14988959D02*
X23095856Y-13718959D01*
X23095856Y-13718959D02*
X23579666Y-13718959D01*
X23579666Y-13718959D02*
X23700618Y-13779435D01*
X23700618Y-13779435D02*
X23761095Y-13839911D01*
X23761095Y-13839911D02*
X23821571Y-13960863D01*
X23821571Y-13960863D02*
X23821571Y-14142292D01*
X23821571Y-14142292D02*
X23761095Y-14263244D01*
X23761095Y-14263244D02*
X23700618Y-14323721D01*
X23700618Y-14323721D02*
X23579666Y-14384197D01*
X23579666Y-14384197D02*
X23095856Y-14384197D01*
X25031095Y-14988959D02*
X24305380Y-14988959D01*
X24668237Y-14988959D02*
X24668237Y-13718959D01*
X24668237Y-13718959D02*
X24547285Y-13900387D01*
X24547285Y-13900387D02*
X24426333Y-14021340D01*
X24426333Y-14021340D02*
X24305380Y-14081816D01*
X25756809Y-14263244D02*
X25635857Y-14202768D01*
X25635857Y-14202768D02*
X25575380Y-14142292D01*
X25575380Y-14142292D02*
X25514904Y-14021340D01*
X25514904Y-14021340D02*
X25514904Y-13960863D01*
X25514904Y-13960863D02*
X25575380Y-13839911D01*
X25575380Y-13839911D02*
X25635857Y-13779435D01*
X25635857Y-13779435D02*
X25756809Y-13718959D01*
X25756809Y-13718959D02*
X25998714Y-13718959D01*
X25998714Y-13718959D02*
X26119666Y-13779435D01*
X26119666Y-13779435D02*
X26180142Y-13839911D01*
X26180142Y-13839911D02*
X26240619Y-13960863D01*
X26240619Y-13960863D02*
X26240619Y-14021340D01*
X26240619Y-14021340D02*
X26180142Y-14142292D01*
X26180142Y-14142292D02*
X26119666Y-14202768D01*
X26119666Y-14202768D02*
X25998714Y-14263244D01*
X25998714Y-14263244D02*
X25756809Y-14263244D01*
X25756809Y-14263244D02*
X25635857Y-14323721D01*
X25635857Y-14323721D02*
X25575380Y-14384197D01*
X25575380Y-14384197D02*
X25514904Y-14505149D01*
X25514904Y-14505149D02*
X25514904Y-14747054D01*
X25514904Y-14747054D02*
X25575380Y-14868006D01*
X25575380Y-14868006D02*
X25635857Y-14928483D01*
X25635857Y-14928483D02*
X25756809Y-14988959D01*
X25756809Y-14988959D02*
X25998714Y-14988959D01*
X25998714Y-14988959D02*
X26119666Y-14928483D01*
X26119666Y-14928483D02*
X26180142Y-14868006D01*
X26180142Y-14868006D02*
X26240619Y-14747054D01*
X26240619Y-14747054D02*
X26240619Y-14505149D01*
X26240619Y-14505149D02*
X26180142Y-14384197D01*
X26180142Y-14384197D02*
X26119666Y-14323721D01*
X26119666Y-14323721D02*
X25998714Y-14263244D01*
X40585571Y-15750959D02*
X40162237Y-15146197D01*
X39859856Y-15750959D02*
X39859856Y-14480959D01*
X39859856Y-14480959D02*
X40343666Y-14480959D01*
X40343666Y-14480959D02*
X40464618Y-14541435D01*
X40464618Y-14541435D02*
X40525095Y-14601911D01*
X40525095Y-14601911D02*
X40585571Y-14722863D01*
X40585571Y-14722863D02*
X40585571Y-14904292D01*
X40585571Y-14904292D02*
X40525095Y-15025244D01*
X40525095Y-15025244D02*
X40464618Y-15085721D01*
X40464618Y-15085721D02*
X40343666Y-15146197D01*
X40343666Y-15146197D02*
X39859856Y-15146197D01*
X41795095Y-15750959D02*
X41069380Y-15750959D01*
X41432237Y-15750959D02*
X41432237Y-14480959D01*
X41432237Y-14480959D02*
X41311285Y-14662387D01*
X41311285Y-14662387D02*
X41190333Y-14783340D01*
X41190333Y-14783340D02*
X41069380Y-14843816D01*
X42218428Y-14480959D02*
X43065095Y-14480959D01*
X43065095Y-14480959D02*
X42520809Y-15750959D01*
X43736380Y-14854959D02*
X43736380Y-15883054D01*
X43736380Y-15883054D02*
X43796857Y-16004006D01*
X43796857Y-16004006D02*
X43857333Y-16064483D01*
X43857333Y-16064483D02*
X43978285Y-16124959D01*
X43978285Y-16124959D02*
X44220190Y-16124959D01*
X44220190Y-16124959D02*
X44341142Y-16064483D01*
X44341142Y-16064483D02*
X44401619Y-16004006D01*
X44401619Y-16004006D02*
X44462095Y-15883054D01*
X44462095Y-15883054D02*
X44462095Y-14854959D01*
X45732095Y-16124959D02*
X45006380Y-16124959D01*
X45369237Y-16124959D02*
X45369237Y-14854959D01*
X45369237Y-14854959D02*
X45248285Y-15036387D01*
X45248285Y-15036387D02*
X45127333Y-15157340D01*
X45127333Y-15157340D02*
X45006380Y-15217816D01*
X26458333Y-21084959D02*
X26034999Y-20480197D01*
X25732618Y-21084959D02*
X25732618Y-19814959D01*
X25732618Y-19814959D02*
X26216428Y-19814959D01*
X26216428Y-19814959D02*
X26337380Y-19875435D01*
X26337380Y-19875435D02*
X26397857Y-19935911D01*
X26397857Y-19935911D02*
X26458333Y-20056863D01*
X26458333Y-20056863D02*
X26458333Y-20238292D01*
X26458333Y-20238292D02*
X26397857Y-20359244D01*
X26397857Y-20359244D02*
X26337380Y-20419721D01*
X26337380Y-20419721D02*
X26216428Y-20480197D01*
X26216428Y-20480197D02*
X25732618Y-20480197D01*
X27184047Y-20359244D02*
X27063095Y-20298768D01*
X27063095Y-20298768D02*
X27002618Y-20238292D01*
X27002618Y-20238292D02*
X26942142Y-20117340D01*
X26942142Y-20117340D02*
X26942142Y-20056863D01*
X26942142Y-20056863D02*
X27002618Y-19935911D01*
X27002618Y-19935911D02*
X27063095Y-19875435D01*
X27063095Y-19875435D02*
X27184047Y-19814959D01*
X27184047Y-19814959D02*
X27425952Y-19814959D01*
X27425952Y-19814959D02*
X27546904Y-19875435D01*
X27546904Y-19875435D02*
X27607380Y-19935911D01*
X27607380Y-19935911D02*
X27667857Y-20056863D01*
X27667857Y-20056863D02*
X27667857Y-20117340D01*
X27667857Y-20117340D02*
X27607380Y-20238292D01*
X27607380Y-20238292D02*
X27546904Y-20298768D01*
X27546904Y-20298768D02*
X27425952Y-20359244D01*
X27425952Y-20359244D02*
X27184047Y-20359244D01*
X27184047Y-20359244D02*
X27063095Y-20419721D01*
X27063095Y-20419721D02*
X27002618Y-20480197D01*
X27002618Y-20480197D02*
X26942142Y-20601149D01*
X26942142Y-20601149D02*
X26942142Y-20843054D01*
X26942142Y-20843054D02*
X27002618Y-20964006D01*
X27002618Y-20964006D02*
X27063095Y-21024483D01*
X27063095Y-21024483D02*
X27184047Y-21084959D01*
X27184047Y-21084959D02*
X27425952Y-21084959D01*
X27425952Y-21084959D02*
X27546904Y-21024483D01*
X27546904Y-21024483D02*
X27607380Y-20964006D01*
X27607380Y-20964006D02*
X27667857Y-20843054D01*
X27667857Y-20843054D02*
X27667857Y-20601149D01*
X27667857Y-20601149D02*
X27607380Y-20480197D01*
X27607380Y-20480197D02*
X27546904Y-20419721D01*
X27546904Y-20419721D02*
X27425952Y-20359244D01*
X38650333Y-23370959D02*
X38226999Y-22766197D01*
X37924618Y-23370959D02*
X37924618Y-22100959D01*
X37924618Y-22100959D02*
X38408428Y-22100959D01*
X38408428Y-22100959D02*
X38529380Y-22161435D01*
X38529380Y-22161435D02*
X38589857Y-22221911D01*
X38589857Y-22221911D02*
X38650333Y-22342863D01*
X38650333Y-22342863D02*
X38650333Y-22524292D01*
X38650333Y-22524292D02*
X38589857Y-22645244D01*
X38589857Y-22645244D02*
X38529380Y-22705721D01*
X38529380Y-22705721D02*
X38408428Y-22766197D01*
X38408428Y-22766197D02*
X37924618Y-22766197D01*
X39073666Y-22100959D02*
X39920333Y-22100959D01*
X39920333Y-22100959D02*
X39376047Y-23370959D01*
X54652333Y-23370959D02*
X54228999Y-22766197D01*
X53926618Y-23370959D02*
X53926618Y-22100959D01*
X53926618Y-22100959D02*
X54410428Y-22100959D01*
X54410428Y-22100959D02*
X54531380Y-22161435D01*
X54531380Y-22161435D02*
X54591857Y-22221911D01*
X54591857Y-22221911D02*
X54652333Y-22342863D01*
X54652333Y-22342863D02*
X54652333Y-22524292D01*
X54652333Y-22524292D02*
X54591857Y-22645244D01*
X54591857Y-22645244D02*
X54531380Y-22705721D01*
X54531380Y-22705721D02*
X54410428Y-22766197D01*
X54410428Y-22766197D02*
X53926618Y-22766197D01*
X55075666Y-22100959D02*
X55861857Y-22100959D01*
X55861857Y-22100959D02*
X55438523Y-22584768D01*
X55438523Y-22584768D02*
X55619952Y-22584768D01*
X55619952Y-22584768D02*
X55740904Y-22645244D01*
X55740904Y-22645244D02*
X55801380Y-22705721D01*
X55801380Y-22705721D02*
X55861857Y-22826673D01*
X55861857Y-22826673D02*
X55861857Y-23129054D01*
X55861857Y-23129054D02*
X55801380Y-23250006D01*
X55801380Y-23250006D02*
X55740904Y-23310483D01*
X55740904Y-23310483D02*
X55619952Y-23370959D01*
X55619952Y-23370959D02*
X55257095Y-23370959D01*
X55257095Y-23370959D02*
X55136142Y-23310483D01*
X55136142Y-23310483D02*
X55075666Y-23250006D01*
X31949571Y-14988959D02*
X31526237Y-14384197D01*
X31223856Y-14988959D02*
X31223856Y-13718959D01*
X31223856Y-13718959D02*
X31707666Y-13718959D01*
X31707666Y-13718959D02*
X31828618Y-13779435D01*
X31828618Y-13779435D02*
X31889095Y-13839911D01*
X31889095Y-13839911D02*
X31949571Y-13960863D01*
X31949571Y-13960863D02*
X31949571Y-14142292D01*
X31949571Y-14142292D02*
X31889095Y-14263244D01*
X31889095Y-14263244D02*
X31828618Y-14323721D01*
X31828618Y-14323721D02*
X31707666Y-14384197D01*
X31707666Y-14384197D02*
X31223856Y-14384197D01*
X33159095Y-14988959D02*
X32433380Y-14988959D01*
X32796237Y-14988959D02*
X32796237Y-13718959D01*
X32796237Y-13718959D02*
X32675285Y-13900387D01*
X32675285Y-13900387D02*
X32554333Y-14021340D01*
X32554333Y-14021340D02*
X32433380Y-14081816D01*
X34308142Y-13718959D02*
X33703380Y-13718959D01*
X33703380Y-13718959D02*
X33642904Y-14323721D01*
X33642904Y-14323721D02*
X33703380Y-14263244D01*
X33703380Y-14263244D02*
X33824333Y-14202768D01*
X33824333Y-14202768D02*
X34126714Y-14202768D01*
X34126714Y-14202768D02*
X34247666Y-14263244D01*
X34247666Y-14263244D02*
X34308142Y-14323721D01*
X34308142Y-14323721D02*
X34368619Y-14444673D01*
X34368619Y-14444673D02*
X34368619Y-14747054D01*
X34368619Y-14747054D02*
X34308142Y-14868006D01*
X34308142Y-14868006D02*
X34247666Y-14928483D01*
X34247666Y-14928483D02*
X34126714Y-14988959D01*
X34126714Y-14988959D02*
X33824333Y-14988959D01*
X33824333Y-14988959D02*
X33703380Y-14928483D01*
X33703380Y-14928483D02*
X33642904Y-14868006D01*
X23821571Y-18544959D02*
X23398237Y-17940197D01*
X23095856Y-18544959D02*
X23095856Y-17274959D01*
X23095856Y-17274959D02*
X23579666Y-17274959D01*
X23579666Y-17274959D02*
X23700618Y-17335435D01*
X23700618Y-17335435D02*
X23761095Y-17395911D01*
X23761095Y-17395911D02*
X23821571Y-17516863D01*
X23821571Y-17516863D02*
X23821571Y-17698292D01*
X23821571Y-17698292D02*
X23761095Y-17819244D01*
X23761095Y-17819244D02*
X23700618Y-17879721D01*
X23700618Y-17879721D02*
X23579666Y-17940197D01*
X23579666Y-17940197D02*
X23095856Y-17940197D01*
X25031095Y-18544959D02*
X24305380Y-18544959D01*
X24668237Y-18544959D02*
X24668237Y-17274959D01*
X24668237Y-17274959D02*
X24547285Y-17456387D01*
X24547285Y-17456387D02*
X24426333Y-17577340D01*
X24426333Y-17577340D02*
X24305380Y-17637816D01*
X25514904Y-17395911D02*
X25575380Y-17335435D01*
X25575380Y-17335435D02*
X25696333Y-17274959D01*
X25696333Y-17274959D02*
X25998714Y-17274959D01*
X25998714Y-17274959D02*
X26119666Y-17335435D01*
X26119666Y-17335435D02*
X26180142Y-17395911D01*
X26180142Y-17395911D02*
X26240619Y-17516863D01*
X26240619Y-17516863D02*
X26240619Y-17637816D01*
X26240619Y-17637816D02*
X26180142Y-17819244D01*
X26180142Y-17819244D02*
X25454428Y-18544959D01*
X25454428Y-18544959D02*
X26240619Y-18544959D01*
X36872333Y-27434959D02*
X36448999Y-26830197D01*
X36146618Y-27434959D02*
X36146618Y-26164959D01*
X36146618Y-26164959D02*
X36630428Y-26164959D01*
X36630428Y-26164959D02*
X36751380Y-26225435D01*
X36751380Y-26225435D02*
X36811857Y-26285911D01*
X36811857Y-26285911D02*
X36872333Y-26406863D01*
X36872333Y-26406863D02*
X36872333Y-26588292D01*
X36872333Y-26588292D02*
X36811857Y-26709244D01*
X36811857Y-26709244D02*
X36751380Y-26769721D01*
X36751380Y-26769721D02*
X36630428Y-26830197D01*
X36630428Y-26830197D02*
X36146618Y-26830197D01*
X37960904Y-26164959D02*
X37718999Y-26164959D01*
X37718999Y-26164959D02*
X37598047Y-26225435D01*
X37598047Y-26225435D02*
X37537571Y-26285911D01*
X37537571Y-26285911D02*
X37416618Y-26467340D01*
X37416618Y-26467340D02*
X37356142Y-26709244D01*
X37356142Y-26709244D02*
X37356142Y-27193054D01*
X37356142Y-27193054D02*
X37416618Y-27314006D01*
X37416618Y-27314006D02*
X37477095Y-27374483D01*
X37477095Y-27374483D02*
X37598047Y-27434959D01*
X37598047Y-27434959D02*
X37839952Y-27434959D01*
X37839952Y-27434959D02*
X37960904Y-27374483D01*
X37960904Y-27374483D02*
X38021380Y-27314006D01*
X38021380Y-27314006D02*
X38081857Y-27193054D01*
X38081857Y-27193054D02*
X38081857Y-26890673D01*
X38081857Y-26890673D02*
X38021380Y-26769721D01*
X38021380Y-26769721D02*
X37960904Y-26709244D01*
X37960904Y-26709244D02*
X37839952Y-26648768D01*
X37839952Y-26648768D02*
X37598047Y-26648768D01*
X37598047Y-26648768D02*
X37477095Y-26709244D01*
X37477095Y-26709244D02*
X37416618Y-26769721D01*
X37416618Y-26769721D02*
X37356142Y-26890673D01*
X29917571Y-27434959D02*
X29494237Y-26830197D01*
X29191856Y-27434959D02*
X29191856Y-26164959D01*
X29191856Y-26164959D02*
X29675666Y-26164959D01*
X29675666Y-26164959D02*
X29796618Y-26225435D01*
X29796618Y-26225435D02*
X29857095Y-26285911D01*
X29857095Y-26285911D02*
X29917571Y-26406863D01*
X29917571Y-26406863D02*
X29917571Y-26588292D01*
X29917571Y-26588292D02*
X29857095Y-26709244D01*
X29857095Y-26709244D02*
X29796618Y-26769721D01*
X29796618Y-26769721D02*
X29675666Y-26830197D01*
X29675666Y-26830197D02*
X29191856Y-26830197D01*
X31127095Y-27434959D02*
X30401380Y-27434959D01*
X30764237Y-27434959D02*
X30764237Y-26164959D01*
X30764237Y-26164959D02*
X30643285Y-26346387D01*
X30643285Y-26346387D02*
X30522333Y-26467340D01*
X30522333Y-26467340D02*
X30401380Y-26527816D01*
X32336619Y-27434959D02*
X31610904Y-27434959D01*
X31973761Y-27434959D02*
X31973761Y-26164959D01*
X31973761Y-26164959D02*
X31852809Y-26346387D01*
X31852809Y-26346387D02*
X31731857Y-26467340D01*
X31731857Y-26467340D02*
X31610904Y-26527816D01*
X54652333Y-26672959D02*
X54228999Y-26068197D01*
X53926618Y-26672959D02*
X53926618Y-25402959D01*
X53926618Y-25402959D02*
X54410428Y-25402959D01*
X54410428Y-25402959D02*
X54531380Y-25463435D01*
X54531380Y-25463435D02*
X54591857Y-25523911D01*
X54591857Y-25523911D02*
X54652333Y-25644863D01*
X54652333Y-25644863D02*
X54652333Y-25826292D01*
X54652333Y-25826292D02*
X54591857Y-25947244D01*
X54591857Y-25947244D02*
X54531380Y-26007721D01*
X54531380Y-26007721D02*
X54410428Y-26068197D01*
X54410428Y-26068197D02*
X53926618Y-26068197D01*
X55740904Y-25826292D02*
X55740904Y-26672959D01*
X55438523Y-25342483D02*
X55136142Y-26249625D01*
X55136142Y-26249625D02*
X55922333Y-26249625D01*
X32554333Y-22100959D02*
X32130999Y-21496197D01*
X31828618Y-22100959D02*
X31828618Y-20830959D01*
X31828618Y-20830959D02*
X32312428Y-20830959D01*
X32312428Y-20830959D02*
X32433380Y-20891435D01*
X32433380Y-20891435D02*
X32493857Y-20951911D01*
X32493857Y-20951911D02*
X32554333Y-21072863D01*
X32554333Y-21072863D02*
X32554333Y-21254292D01*
X32554333Y-21254292D02*
X32493857Y-21375244D01*
X32493857Y-21375244D02*
X32433380Y-21435721D01*
X32433380Y-21435721D02*
X32312428Y-21496197D01*
X32312428Y-21496197D02*
X31828618Y-21496197D01*
X33038142Y-20951911D02*
X33098618Y-20891435D01*
X33098618Y-20891435D02*
X33219571Y-20830959D01*
X33219571Y-20830959D02*
X33521952Y-20830959D01*
X33521952Y-20830959D02*
X33642904Y-20891435D01*
X33642904Y-20891435D02*
X33703380Y-20951911D01*
X33703380Y-20951911D02*
X33763857Y-21072863D01*
X33763857Y-21072863D02*
X33763857Y-21193816D01*
X33763857Y-21193816D02*
X33703380Y-21375244D01*
X33703380Y-21375244D02*
X32977666Y-22100959D01*
X32977666Y-22100959D02*
X33763857Y-22100959D01*
X33824333Y-18170006D02*
X33763857Y-18230483D01*
X33763857Y-18230483D02*
X33582428Y-18290959D01*
X33582428Y-18290959D02*
X33461476Y-18290959D01*
X33461476Y-18290959D02*
X33280047Y-18230483D01*
X33280047Y-18230483D02*
X33159095Y-18109530D01*
X33159095Y-18109530D02*
X33098618Y-17988578D01*
X33098618Y-17988578D02*
X33038142Y-17746673D01*
X33038142Y-17746673D02*
X33038142Y-17565244D01*
X33038142Y-17565244D02*
X33098618Y-17323340D01*
X33098618Y-17323340D02*
X33159095Y-17202387D01*
X33159095Y-17202387D02*
X33280047Y-17081435D01*
X33280047Y-17081435D02*
X33461476Y-17020959D01*
X33461476Y-17020959D02*
X33582428Y-17020959D01*
X33582428Y-17020959D02*
X33763857Y-17081435D01*
X33763857Y-17081435D02*
X33824333Y-17141911D01*
X34912904Y-17444292D02*
X34912904Y-18290959D01*
X34610523Y-16960483D02*
X34308142Y-17867625D01*
X34308142Y-17867625D02*
X35094333Y-17867625D01*
X43450333Y-28642959D02*
X43026999Y-28038197D01*
X42724618Y-28642959D02*
X42724618Y-27372959D01*
X42724618Y-27372959D02*
X43208428Y-27372959D01*
X43208428Y-27372959D02*
X43329380Y-27433435D01*
X43329380Y-27433435D02*
X43389857Y-27493911D01*
X43389857Y-27493911D02*
X43450333Y-27614863D01*
X43450333Y-27614863D02*
X43450333Y-27796292D01*
X43450333Y-27796292D02*
X43389857Y-27917244D01*
X43389857Y-27917244D02*
X43329380Y-27977721D01*
X43329380Y-27977721D02*
X43208428Y-28038197D01*
X43208428Y-28038197D02*
X42724618Y-28038197D01*
X44659857Y-28642959D02*
X43934142Y-28642959D01*
X44296999Y-28642959D02*
X44296999Y-27372959D01*
X44296999Y-27372959D02*
X44176047Y-27554387D01*
X44176047Y-27554387D02*
X44055095Y-27675340D01*
X44055095Y-27675340D02*
X43934142Y-27735816D01*
X26458333Y-23878959D02*
X26034999Y-23274197D01*
X25732618Y-23878959D02*
X25732618Y-22608959D01*
X25732618Y-22608959D02*
X26216428Y-22608959D01*
X26216428Y-22608959D02*
X26337380Y-22669435D01*
X26337380Y-22669435D02*
X26397857Y-22729911D01*
X26397857Y-22729911D02*
X26458333Y-22850863D01*
X26458333Y-22850863D02*
X26458333Y-23032292D01*
X26458333Y-23032292D02*
X26397857Y-23153244D01*
X26397857Y-23153244D02*
X26337380Y-23213721D01*
X26337380Y-23213721D02*
X26216428Y-23274197D01*
X26216428Y-23274197D02*
X25732618Y-23274197D01*
X27063095Y-23878959D02*
X27304999Y-23878959D01*
X27304999Y-23878959D02*
X27425952Y-23818483D01*
X27425952Y-23818483D02*
X27486428Y-23758006D01*
X27486428Y-23758006D02*
X27607380Y-23576578D01*
X27607380Y-23576578D02*
X27667857Y-23334673D01*
X27667857Y-23334673D02*
X27667857Y-22850863D01*
X27667857Y-22850863D02*
X27607380Y-22729911D01*
X27607380Y-22729911D02*
X27546904Y-22669435D01*
X27546904Y-22669435D02*
X27425952Y-22608959D01*
X27425952Y-22608959D02*
X27184047Y-22608959D01*
X27184047Y-22608959D02*
X27063095Y-22669435D01*
X27063095Y-22669435D02*
X27002618Y-22729911D01*
X27002618Y-22729911D02*
X26942142Y-22850863D01*
X26942142Y-22850863D02*
X26942142Y-23153244D01*
X26942142Y-23153244D02*
X27002618Y-23274197D01*
X27002618Y-23274197D02*
X27063095Y-23334673D01*
X27063095Y-23334673D02*
X27184047Y-23395149D01*
X27184047Y-23395149D02*
X27425952Y-23395149D01*
X27425952Y-23395149D02*
X27546904Y-23334673D01*
X27546904Y-23334673D02*
X27607380Y-23274197D01*
X27607380Y-23274197D02*
X27667857Y-23153244D01*
X36364333Y-19694006D02*
X36303857Y-19754483D01*
X36303857Y-19754483D02*
X36122428Y-19814959D01*
X36122428Y-19814959D02*
X36001476Y-19814959D01*
X36001476Y-19814959D02*
X35820047Y-19754483D01*
X35820047Y-19754483D02*
X35699095Y-19633530D01*
X35699095Y-19633530D02*
X35638618Y-19512578D01*
X35638618Y-19512578D02*
X35578142Y-19270673D01*
X35578142Y-19270673D02*
X35578142Y-19089244D01*
X35578142Y-19089244D02*
X35638618Y-18847340D01*
X35638618Y-18847340D02*
X35699095Y-18726387D01*
X35699095Y-18726387D02*
X35820047Y-18605435D01*
X35820047Y-18605435D02*
X36001476Y-18544959D01*
X36001476Y-18544959D02*
X36122428Y-18544959D01*
X36122428Y-18544959D02*
X36303857Y-18605435D01*
X36303857Y-18605435D02*
X36364333Y-18665911D01*
X36848142Y-18665911D02*
X36908618Y-18605435D01*
X36908618Y-18605435D02*
X37029571Y-18544959D01*
X37029571Y-18544959D02*
X37331952Y-18544959D01*
X37331952Y-18544959D02*
X37452904Y-18605435D01*
X37452904Y-18605435D02*
X37513380Y-18665911D01*
X37513380Y-18665911D02*
X37573857Y-18786863D01*
X37573857Y-18786863D02*
X37573857Y-18907816D01*
X37573857Y-18907816D02*
X37513380Y-19089244D01*
X37513380Y-19089244D02*
X36787666Y-19814959D01*
X36787666Y-19814959D02*
X37573857Y-19814959D01*
X35251571Y-21592959D02*
X34828237Y-20988197D01*
X34525856Y-21592959D02*
X34525856Y-20322959D01*
X34525856Y-20322959D02*
X35009666Y-20322959D01*
X35009666Y-20322959D02*
X35130618Y-20383435D01*
X35130618Y-20383435D02*
X35191095Y-20443911D01*
X35191095Y-20443911D02*
X35251571Y-20564863D01*
X35251571Y-20564863D02*
X35251571Y-20746292D01*
X35251571Y-20746292D02*
X35191095Y-20867244D01*
X35191095Y-20867244D02*
X35130618Y-20927721D01*
X35130618Y-20927721D02*
X35009666Y-20988197D01*
X35009666Y-20988197D02*
X34525856Y-20988197D01*
X36461095Y-21592959D02*
X35735380Y-21592959D01*
X36098237Y-21592959D02*
X36098237Y-20322959D01*
X36098237Y-20322959D02*
X35977285Y-20504387D01*
X35977285Y-20504387D02*
X35856333Y-20625340D01*
X35856333Y-20625340D02*
X35735380Y-20685816D01*
X36884428Y-20322959D02*
X37670619Y-20322959D01*
X37670619Y-20322959D02*
X37247285Y-20806768D01*
X37247285Y-20806768D02*
X37428714Y-20806768D01*
X37428714Y-20806768D02*
X37549666Y-20867244D01*
X37549666Y-20867244D02*
X37610142Y-20927721D01*
X37610142Y-20927721D02*
X37670619Y-21048673D01*
X37670619Y-21048673D02*
X37670619Y-21351054D01*
X37670619Y-21351054D02*
X37610142Y-21472006D01*
X37610142Y-21472006D02*
X37549666Y-21532483D01*
X37549666Y-21532483D02*
X37428714Y-21592959D01*
X37428714Y-21592959D02*
X37065857Y-21592959D01*
X37065857Y-21592959D02*
X36944904Y-21532483D01*
X36944904Y-21532483D02*
X36884428Y-21472006D01*
D11*
X48007000Y-24156936D02*
X48007000Y-24611064D01*
X49477000Y-24156936D02*
X49477000Y-24611064D01*
X49092248Y-18823000D02*
X49614752Y-18823000D01*
X49092248Y-20293000D02*
X49614752Y-20293000D01*
X49580564Y-16537000D02*
X49126436Y-16537000D01*
X49580564Y-18007000D02*
X49126436Y-18007000D01*
X53136564Y-16537000D02*
X52682436Y-16537000D01*
X53136564Y-18007000D02*
X52682436Y-18007000D01*
X22606936Y-15521000D02*
X23061064Y-15521000D01*
X22606936Y-16991000D02*
X23061064Y-16991000D01*
X36152752Y-24157000D02*
X35630248Y-24157000D01*
X36152752Y-25627000D02*
X35630248Y-25627000D01*
X27940936Y-14759000D02*
X28395064Y-14759000D01*
X27940936Y-16229000D02*
X28395064Y-16229000D01*
X38127000Y-16163064D02*
X38127000Y-15708936D01*
X39597000Y-16163064D02*
X39597000Y-15708936D01*
X43765500Y-16393000D02*
X41815500Y-16393000D01*
X43765500Y-16393000D02*
X45715500Y-16393000D01*
X43765500Y-25263000D02*
X41815500Y-25263000D01*
X43765500Y-25263000D02*
X45715500Y-25263000D01*
X41065500Y-16458000D02*
X40825500Y-16128000D01*
X41305500Y-16128000D01*
X41065500Y-16458000D01*
G36*
X41065500Y-16458000D02*
G01*
X40825500Y-16128000D01*
X41305500Y-16128000D01*
X41065500Y-16458000D01*
G37*
X29236936Y-19773000D02*
X29691064Y-19773000D01*
X29236936Y-21243000D02*
X29691064Y-21243000D01*
X36269064Y-21998000D02*
X35814936Y-21998000D01*
X36269064Y-23468000D02*
X35814936Y-23468000D01*
X52120564Y-22125000D02*
X51666436Y-22125000D01*
X52120564Y-23595000D02*
X51666436Y-23595000D01*
X32205064Y-15455000D02*
X31750936Y-15455000D01*
X32205064Y-16925000D02*
X31750936Y-16925000D01*
X27966936Y-16979000D02*
X28421064Y-16979000D01*
X27966936Y-18449000D02*
X28421064Y-18449000D01*
X39775436Y-26189000D02*
X40229564Y-26189000D01*
X39775436Y-27659000D02*
X40229564Y-27659000D01*
X33782936Y-26189000D02*
X34237064Y-26189000D01*
X33782936Y-27659000D02*
X34237064Y-27659000D01*
X51666436Y-25361000D02*
X52120564Y-25361000D01*
X51666436Y-26831000D02*
X52120564Y-26831000D01*
X31878000Y-23648936D02*
X31878000Y-24103064D01*
X33348000Y-23648936D02*
X33348000Y-24103064D01*
X35307000Y-16197252D02*
X35307000Y-15674748D01*
X36777000Y-16197252D02*
X36777000Y-15674748D01*
X43889064Y-25681000D02*
X43434936Y-25681000D01*
X43889064Y-27151000D02*
X43434936Y-27151000D01*
X28221000Y-23074936D02*
X28221000Y-23529064D01*
X29691000Y-23074936D02*
X29691000Y-23529064D01*
X38127000Y-20073252D02*
X38127000Y-19550748D01*
X39597000Y-20073252D02*
X39597000Y-19550748D01*
X33221064Y-18823000D02*
X32766936Y-18823000D01*
X33221064Y-20293000D02*
X32766936Y-20293000D01*
%LPC*%
D12*
X54330000Y-29972000D03*
X51790000Y-29972000D03*
X49250000Y-29972000D03*
X46710000Y-29972000D03*
X44170000Y-29972000D03*
X41630000Y-29972000D03*
X39090000Y-29972000D03*
X36550000Y-29972000D03*
X34010000Y-29972000D03*
X31470000Y-29972000D03*
X28930000Y-29972000D03*
X26390000Y-29972000D03*
X23850000Y-29972000D03*
X21310000Y-29972000D03*
X18770000Y-29972000D03*
D13*
X16230000Y-29972000D03*
D14*
X48742000Y-23471500D03*
X48742000Y-25296500D03*
D15*
X48403500Y-19558000D03*
X50303500Y-19558000D03*
D16*
X50266000Y-17272000D03*
X48441000Y-17272000D03*
X53822000Y-17272000D03*
X51997000Y-17272000D03*
D17*
X21921500Y-16256000D03*
X23746500Y-16256000D03*
D18*
X36841500Y-24892000D03*
X34941500Y-24892000D03*
D17*
X27255500Y-15494000D03*
X29080500Y-15494000D03*
D19*
X38862000Y-16848500D03*
X38862000Y-15023500D03*
D20*
X41290500Y-17018000D03*
X41290500Y-18288000D03*
X41290500Y-19558000D03*
X41290500Y-20828000D03*
X41290500Y-22098000D03*
X41290500Y-23368000D03*
X41290500Y-24638000D03*
X46240500Y-24638000D03*
X46240500Y-23368000D03*
X46240500Y-22098000D03*
X46240500Y-20828000D03*
X46240500Y-19558000D03*
X46240500Y-18288000D03*
X46240500Y-17018000D03*
D17*
X28551500Y-20508000D03*
X30376500Y-20508000D03*
D16*
X36954500Y-22733000D03*
X35129500Y-22733000D03*
X52806000Y-22860000D03*
X50981000Y-22860000D03*
X32890500Y-16190000D03*
X31065500Y-16190000D03*
D17*
X27281500Y-17714000D03*
X29106500Y-17714000D03*
X39090000Y-26924000D03*
X40915000Y-26924000D03*
X33097500Y-26924000D03*
X34922500Y-26924000D03*
X50981000Y-26096000D03*
X52806000Y-26096000D03*
D14*
X32613000Y-22963500D03*
X32613000Y-24788500D03*
D21*
X36042000Y-16886000D03*
X36042000Y-14986000D03*
D16*
X44574500Y-26416000D03*
X42749500Y-26416000D03*
D14*
X28956000Y-22389500D03*
X28956000Y-24214500D03*
D21*
X38862000Y-20762000D03*
X38862000Y-18862000D03*
D16*
X33906500Y-19558000D03*
X32081500Y-19558000D03*
%LPD*%
M02*
