G04 #@! TF.GenerationSoftware,KiCad,Pcbnew,8.0.4*
G04 #@! TF.CreationDate,2024-08-16T15:34:14+02:00*
G04 #@! TF.ProjectId,AT8,4154382e-6b69-4636-9164-5f7063625858,00*
G04 #@! TF.SameCoordinates,Original*
G04 #@! TF.FileFunction,Legend,Bot*
G04 #@! TF.FilePolarity,Positive*
%FSLAX46Y46*%
G04 Gerber Fmt 4.6, Leading zero omitted, Abs format (unit mm)*
G04 Created by KiCad (PCBNEW 8.0.4) date 2024-08-16 15:34:14*
%MOMM*%
%LPD*%
G01*
G04 APERTURE LIST*
%ADD10C,0.203200*%
%ADD11C,0.120000*%
%ADD12C,0.000000*%
%ADD13O,1.700000X1.700000*%
%ADD14R,1.700000X1.700000*%
G04 APERTURE END LIST*
D10*
X30159476Y-14288342D02*
X30159476Y-15316437D01*
X30159476Y-15316437D02*
X30219952Y-15437390D01*
X30219952Y-15437390D02*
X30280428Y-15497866D01*
X30280428Y-15497866D02*
X30401381Y-15558342D01*
X30401381Y-15558342D02*
X30582809Y-15558342D01*
X30582809Y-15558342D02*
X30703762Y-15497866D01*
X30159476Y-15074533D02*
X30280428Y-15135009D01*
X30280428Y-15135009D02*
X30522333Y-15135009D01*
X30522333Y-15135009D02*
X30643285Y-15074533D01*
X30643285Y-15074533D02*
X30703762Y-15014056D01*
X30703762Y-15014056D02*
X30764238Y-14893104D01*
X30764238Y-14893104D02*
X30764238Y-14530247D01*
X30764238Y-14530247D02*
X30703762Y-14409294D01*
X30703762Y-14409294D02*
X30643285Y-14348818D01*
X30643285Y-14348818D02*
X30522333Y-14288342D01*
X30522333Y-14288342D02*
X30280428Y-14288342D01*
X30280428Y-14288342D02*
X30159476Y-14348818D01*
X29554714Y-15135009D02*
X29554714Y-14288342D01*
X29554714Y-14530247D02*
X29494237Y-14409294D01*
X29494237Y-14409294D02*
X29433761Y-14348818D01*
X29433761Y-14348818D02*
X29312809Y-14288342D01*
X29312809Y-14288342D02*
X29191856Y-14288342D01*
X28284714Y-15074533D02*
X28405666Y-15135009D01*
X28405666Y-15135009D02*
X28647571Y-15135009D01*
X28647571Y-15135009D02*
X28768524Y-15074533D01*
X28768524Y-15074533D02*
X28829000Y-14953580D01*
X28829000Y-14953580D02*
X28829000Y-14469771D01*
X28829000Y-14469771D02*
X28768524Y-14348818D01*
X28768524Y-14348818D02*
X28647571Y-14288342D01*
X28647571Y-14288342D02*
X28405666Y-14288342D01*
X28405666Y-14288342D02*
X28284714Y-14348818D01*
X28284714Y-14348818D02*
X28224238Y-14469771D01*
X28224238Y-14469771D02*
X28224238Y-14590723D01*
X28224238Y-14590723D02*
X28829000Y-14711675D01*
X27800905Y-14288342D02*
X27498524Y-15135009D01*
X27196143Y-14288342D02*
X27498524Y-15135009D01*
X27498524Y-15135009D02*
X27619476Y-15437390D01*
X27619476Y-15437390D02*
X27679953Y-15497866D01*
X27679953Y-15497866D02*
X27800905Y-15558342D01*
X26712334Y-15135009D02*
X26712334Y-13865009D01*
X26712334Y-14348818D02*
X26591381Y-14288342D01*
X26591381Y-14288342D02*
X26349476Y-14288342D01*
X26349476Y-14288342D02*
X26228524Y-14348818D01*
X26228524Y-14348818D02*
X26168048Y-14409294D01*
X26168048Y-14409294D02*
X26107572Y-14530247D01*
X26107572Y-14530247D02*
X26107572Y-14893104D01*
X26107572Y-14893104D02*
X26168048Y-15014056D01*
X26168048Y-15014056D02*
X26228524Y-15074533D01*
X26228524Y-15074533D02*
X26349476Y-15135009D01*
X26349476Y-15135009D02*
X26591381Y-15135009D01*
X26591381Y-15135009D02*
X26712334Y-15074533D01*
X25381857Y-15135009D02*
X25502809Y-15074533D01*
X25502809Y-15074533D02*
X25563286Y-15014056D01*
X25563286Y-15014056D02*
X25623762Y-14893104D01*
X25623762Y-14893104D02*
X25623762Y-14530247D01*
X25623762Y-14530247D02*
X25563286Y-14409294D01*
X25563286Y-14409294D02*
X25502809Y-14348818D01*
X25502809Y-14348818D02*
X25381857Y-14288342D01*
X25381857Y-14288342D02*
X25200428Y-14288342D01*
X25200428Y-14288342D02*
X25079476Y-14348818D01*
X25079476Y-14348818D02*
X25019000Y-14409294D01*
X25019000Y-14409294D02*
X24958524Y-14530247D01*
X24958524Y-14530247D02*
X24958524Y-14893104D01*
X24958524Y-14893104D02*
X25019000Y-15014056D01*
X25019000Y-15014056D02*
X25079476Y-15074533D01*
X25079476Y-15074533D02*
X25200428Y-15135009D01*
X25200428Y-15135009D02*
X25381857Y-15135009D01*
X24535190Y-15135009D02*
X23869952Y-14288342D01*
X24535190Y-14288342D02*
X23869952Y-15135009D01*
X22841857Y-15135009D02*
X22841857Y-14469771D01*
X22841857Y-14469771D02*
X22902333Y-14348818D01*
X22902333Y-14348818D02*
X23023285Y-14288342D01*
X23023285Y-14288342D02*
X23265190Y-14288342D01*
X23265190Y-14288342D02*
X23386143Y-14348818D01*
X22841857Y-15074533D02*
X22962809Y-15135009D01*
X22962809Y-15135009D02*
X23265190Y-15135009D01*
X23265190Y-15135009D02*
X23386143Y-15074533D01*
X23386143Y-15074533D02*
X23446619Y-14953580D01*
X23446619Y-14953580D02*
X23446619Y-14832628D01*
X23446619Y-14832628D02*
X23386143Y-14711675D01*
X23386143Y-14711675D02*
X23265190Y-14651199D01*
X23265190Y-14651199D02*
X22962809Y-14651199D01*
X22962809Y-14651199D02*
X22841857Y-14590723D01*
X21692809Y-14288342D02*
X21692809Y-15135009D01*
X22237095Y-14288342D02*
X22237095Y-14953580D01*
X22237095Y-14953580D02*
X22176618Y-15074533D01*
X22176618Y-15074533D02*
X22055666Y-15135009D01*
X22055666Y-15135009D02*
X21874237Y-15135009D01*
X21874237Y-15135009D02*
X21753285Y-15074533D01*
X21753285Y-15074533D02*
X21692809Y-15014056D01*
X20543761Y-15135009D02*
X20543761Y-13865009D01*
X20543761Y-15074533D02*
X20664713Y-15135009D01*
X20664713Y-15135009D02*
X20906618Y-15135009D01*
X20906618Y-15135009D02*
X21027570Y-15074533D01*
X21027570Y-15074533D02*
X21088047Y-15014056D01*
X21088047Y-15014056D02*
X21148523Y-14893104D01*
X21148523Y-14893104D02*
X21148523Y-14530247D01*
X21148523Y-14530247D02*
X21088047Y-14409294D01*
X21088047Y-14409294D02*
X21027570Y-14348818D01*
X21027570Y-14348818D02*
X20906618Y-14288342D01*
X20906618Y-14288342D02*
X20664713Y-14288342D01*
X20664713Y-14288342D02*
X20543761Y-14348818D01*
X19938999Y-15135009D02*
X19938999Y-14288342D01*
X19938999Y-13865009D02*
X19999475Y-13925485D01*
X19999475Y-13925485D02*
X19938999Y-13985961D01*
X19938999Y-13985961D02*
X19878522Y-13925485D01*
X19878522Y-13925485D02*
X19938999Y-13865009D01*
X19938999Y-13865009D02*
X19938999Y-13985961D01*
X19152808Y-15135009D02*
X19273760Y-15074533D01*
X19273760Y-15074533D02*
X19334237Y-15014056D01*
X19334237Y-15014056D02*
X19394713Y-14893104D01*
X19394713Y-14893104D02*
X19394713Y-14530247D01*
X19394713Y-14530247D02*
X19334237Y-14409294D01*
X19334237Y-14409294D02*
X19273760Y-14348818D01*
X19273760Y-14348818D02*
X19152808Y-14288342D01*
X19152808Y-14288342D02*
X18971379Y-14288342D01*
X18971379Y-14288342D02*
X18850427Y-14348818D01*
X18850427Y-14348818D02*
X18789951Y-14409294D01*
X18789951Y-14409294D02*
X18729475Y-14530247D01*
X18729475Y-14530247D02*
X18729475Y-14893104D01*
X18729475Y-14893104D02*
X18789951Y-15014056D01*
X18789951Y-15014056D02*
X18850427Y-15074533D01*
X18850427Y-15074533D02*
X18971379Y-15135009D01*
X18971379Y-15135009D02*
X19152808Y-15135009D01*
X18185189Y-15014056D02*
X18124712Y-15074533D01*
X18124712Y-15074533D02*
X18185189Y-15135009D01*
X18185189Y-15135009D02*
X18245665Y-15074533D01*
X18245665Y-15074533D02*
X18185189Y-15014056D01*
X18185189Y-15014056D02*
X18185189Y-15135009D01*
X17036141Y-15074533D02*
X17157093Y-15135009D01*
X17157093Y-15135009D02*
X17398998Y-15135009D01*
X17398998Y-15135009D02*
X17519950Y-15074533D01*
X17519950Y-15074533D02*
X17580427Y-15014056D01*
X17580427Y-15014056D02*
X17640903Y-14893104D01*
X17640903Y-14893104D02*
X17640903Y-14530247D01*
X17640903Y-14530247D02*
X17580427Y-14409294D01*
X17580427Y-14409294D02*
X17519950Y-14348818D01*
X17519950Y-14348818D02*
X17398998Y-14288342D01*
X17398998Y-14288342D02*
X17157093Y-14288342D01*
X17157093Y-14288342D02*
X17036141Y-14348818D01*
X16310427Y-15135009D02*
X16431379Y-15074533D01*
X16431379Y-15074533D02*
X16491856Y-15014056D01*
X16491856Y-15014056D02*
X16552332Y-14893104D01*
X16552332Y-14893104D02*
X16552332Y-14530247D01*
X16552332Y-14530247D02*
X16491856Y-14409294D01*
X16491856Y-14409294D02*
X16431379Y-14348818D01*
X16431379Y-14348818D02*
X16310427Y-14288342D01*
X16310427Y-14288342D02*
X16128998Y-14288342D01*
X16128998Y-14288342D02*
X16008046Y-14348818D01*
X16008046Y-14348818D02*
X15947570Y-14409294D01*
X15947570Y-14409294D02*
X15887094Y-14530247D01*
X15887094Y-14530247D02*
X15887094Y-14893104D01*
X15887094Y-14893104D02*
X15947570Y-15014056D01*
X15947570Y-15014056D02*
X16008046Y-15074533D01*
X16008046Y-15074533D02*
X16128998Y-15135009D01*
X16128998Y-15135009D02*
X16310427Y-15135009D01*
X15342808Y-15135009D02*
X15342808Y-14288342D01*
X15342808Y-14409294D02*
X15282331Y-14348818D01*
X15282331Y-14348818D02*
X15161379Y-14288342D01*
X15161379Y-14288342D02*
X14979950Y-14288342D01*
X14979950Y-14288342D02*
X14858998Y-14348818D01*
X14858998Y-14348818D02*
X14798522Y-14469771D01*
X14798522Y-14469771D02*
X14798522Y-15135009D01*
X14798522Y-14469771D02*
X14738046Y-14348818D01*
X14738046Y-14348818D02*
X14617093Y-14288342D01*
X14617093Y-14288342D02*
X14435665Y-14288342D01*
X14435665Y-14288342D02*
X14314712Y-14348818D01*
X14314712Y-14348818D02*
X14254236Y-14469771D01*
X14254236Y-14469771D02*
X14254236Y-15135009D01*
D11*
X41250000Y-31412000D02*
X41250000Y-31014929D01*
X26010000Y-31412000D02*
X26010000Y-31014929D01*
X23470000Y-31412000D02*
X23470000Y-31014929D01*
X48870000Y-31412000D02*
X48870000Y-31014929D01*
X28550000Y-31412000D02*
X28550000Y-31014929D01*
X54710000Y-31412000D02*
X54710000Y-31014929D01*
X53950000Y-31412000D02*
X53950000Y-31014929D01*
X52170000Y-31412000D02*
X52170000Y-31014929D01*
X51410000Y-31412000D02*
X51410000Y-31014929D01*
X49630000Y-31412000D02*
X49630000Y-31014929D01*
X48870000Y-31412000D02*
X48870000Y-31014929D01*
X47090000Y-31412000D02*
X47090000Y-31014929D01*
X46330000Y-31412000D02*
X46330000Y-31014929D01*
X44550000Y-31412000D02*
X44550000Y-31014929D01*
X43790000Y-31412000D02*
X43790000Y-31014929D01*
X42010000Y-31412000D02*
X42010000Y-31014929D01*
X41250000Y-31412000D02*
X41250000Y-31014929D01*
X39470000Y-31412000D02*
X39470000Y-31014929D01*
X38710000Y-31412000D02*
X38710000Y-31014929D01*
X36930000Y-31412000D02*
X36930000Y-31014929D01*
X36170000Y-31412000D02*
X36170000Y-31014929D01*
X34390000Y-31412000D02*
X34390000Y-31014929D01*
X33630000Y-31412000D02*
X33630000Y-31014929D01*
X31850000Y-31412000D02*
X31850000Y-31014929D01*
X31090000Y-31412000D02*
X31090000Y-31014929D01*
X29310000Y-31412000D02*
X29310000Y-31014929D01*
X28550000Y-31412000D02*
X28550000Y-31014929D01*
X26770000Y-31412000D02*
X26770000Y-31014929D01*
X26010000Y-31412000D02*
X26010000Y-31014929D01*
X24230000Y-31412000D02*
X24230000Y-31014929D01*
X23470000Y-31412000D02*
X23470000Y-31014929D01*
X14960000Y-28702000D02*
X16230000Y-28702000D01*
X14960000Y-29972000D02*
X14960000Y-28702000D01*
D12*
G36*
X26170705Y-15400052D02*
G01*
X26183636Y-15431993D01*
X26206728Y-15491066D01*
X26239494Y-15575992D01*
X26281451Y-15685488D01*
X26332111Y-15818273D01*
X26390992Y-15973064D01*
X26457606Y-16148580D01*
X26531470Y-16343539D01*
X26612098Y-16556659D01*
X26699004Y-16786659D01*
X26791705Y-17032257D01*
X26889714Y-17292170D01*
X26992546Y-17565118D01*
X27099717Y-17849818D01*
X27210741Y-18144989D01*
X27325133Y-18449349D01*
X27442408Y-18761616D01*
X28711979Y-22143369D01*
X28711874Y-24363879D01*
X28711769Y-26584389D01*
X27183862Y-27240833D01*
X25655954Y-27897277D01*
X25651962Y-26516969D01*
X25651557Y-26361136D01*
X25651034Y-26093723D01*
X25650653Y-25805646D01*
X25650415Y-25503391D01*
X25650318Y-25193445D01*
X25650363Y-24882293D01*
X25650549Y-24576422D01*
X25650878Y-24282317D01*
X25651349Y-24006466D01*
X25651962Y-23755355D01*
X25655954Y-22374048D01*
X27086169Y-22989203D01*
X27191167Y-23034364D01*
X27390193Y-23119972D01*
X27581390Y-23202217D01*
X27762668Y-23280199D01*
X27931939Y-23353019D01*
X28087115Y-23419780D01*
X28226105Y-23479583D01*
X28346822Y-23531528D01*
X28447176Y-23574717D01*
X28525079Y-23608251D01*
X28578441Y-23631232D01*
X28605175Y-23642760D01*
X28693964Y-23681163D01*
X28649171Y-23576574D01*
X28639462Y-23554260D01*
X28617515Y-23504142D01*
X28584143Y-23428078D01*
X28539946Y-23327436D01*
X28485527Y-23203586D01*
X28421488Y-23057894D01*
X28348429Y-22891729D01*
X28266954Y-22706459D01*
X28177664Y-22503453D01*
X28081160Y-22284078D01*
X27978044Y-22049703D01*
X27868918Y-21801695D01*
X27754384Y-21541424D01*
X27635044Y-21270256D01*
X27511499Y-20989561D01*
X27384352Y-20700706D01*
X27254203Y-20405059D01*
X25904028Y-17338134D01*
X26033563Y-16373606D01*
X26037107Y-16347222D01*
X26059864Y-16178212D01*
X26081426Y-16018732D01*
X26101424Y-15871462D01*
X26119491Y-15739084D01*
X26135258Y-15624283D01*
X26148357Y-15529738D01*
X26158421Y-15458133D01*
X26165080Y-15412149D01*
X26167967Y-15394470D01*
X26170705Y-15400052D01*
G37*
G36*
X25925468Y-15405874D02*
G01*
X25923572Y-15428144D01*
X25917895Y-15478202D01*
X25908771Y-15553414D01*
X25896537Y-15651146D01*
X25881526Y-15768763D01*
X25864077Y-15903634D01*
X25844523Y-16053122D01*
X25823200Y-16214596D01*
X25800444Y-16385421D01*
X25670018Y-17360354D01*
X25631724Y-17365614D01*
X25629163Y-17365923D01*
X25601099Y-17369111D01*
X25543411Y-17375587D01*
X25457191Y-17385228D01*
X25343528Y-17397913D01*
X25203515Y-17413521D01*
X25038243Y-17431931D01*
X24848803Y-17453021D01*
X24636286Y-17476670D01*
X24401784Y-17502756D01*
X24146388Y-17531159D01*
X23871189Y-17561757D01*
X23577279Y-17594428D01*
X23265748Y-17629052D01*
X22937689Y-17665507D01*
X22594191Y-17703671D01*
X22236348Y-17743424D01*
X21865249Y-17784643D01*
X21481986Y-17827209D01*
X21087651Y-17870998D01*
X20683335Y-17915891D01*
X20270128Y-17961766D01*
X19849123Y-18008500D01*
X19717893Y-18023065D01*
X19298730Y-18069565D01*
X18887520Y-18115148D01*
X18485366Y-18159692D01*
X18093368Y-18203079D01*
X17712626Y-18245185D01*
X17344242Y-18285891D01*
X16989316Y-18325075D01*
X16648948Y-18362617D01*
X16324241Y-18398395D01*
X16016293Y-18432289D01*
X15726207Y-18464178D01*
X15455083Y-18493940D01*
X15204021Y-18521455D01*
X14974122Y-18546602D01*
X14766487Y-18569260D01*
X14582217Y-18589308D01*
X14422413Y-18606624D01*
X14288174Y-18621089D01*
X14180603Y-18632581D01*
X14100799Y-18640979D01*
X14049864Y-18646162D01*
X14028897Y-18648009D01*
X13995170Y-18647851D01*
X13965414Y-18642584D01*
X13960358Y-18630354D01*
X13963601Y-18619120D01*
X13974250Y-18579723D01*
X13991474Y-18514918D01*
X14014549Y-18427467D01*
X14042749Y-18320133D01*
X14075348Y-18195678D01*
X14111621Y-18056865D01*
X14150843Y-17906457D01*
X14192287Y-17747215D01*
X14224573Y-17623391D01*
X14264326Y-17471915D01*
X14301348Y-17331932D01*
X14334915Y-17206124D01*
X14364302Y-17097175D01*
X14388784Y-17007767D01*
X14407636Y-16940582D01*
X14420135Y-16898304D01*
X14425555Y-16883615D01*
X14427782Y-16883357D01*
X14454631Y-16879970D01*
X14511015Y-16872764D01*
X14595853Y-16861879D01*
X14708065Y-16847456D01*
X14846570Y-16829632D01*
X15010288Y-16808548D01*
X15198138Y-16784343D01*
X15409040Y-16757157D01*
X15641914Y-16727128D01*
X15895678Y-16694396D01*
X16169253Y-16659100D01*
X16461557Y-16621381D01*
X16771512Y-16581377D01*
X17098035Y-16539228D01*
X17440047Y-16495073D01*
X17796467Y-16449051D01*
X18166215Y-16401303D01*
X18548210Y-16351967D01*
X18941372Y-16301183D01*
X19344620Y-16249090D01*
X19756874Y-16195827D01*
X20177054Y-16141535D01*
X20329677Y-16121815D01*
X20747073Y-16067908D01*
X21156138Y-16015109D01*
X21555793Y-15963557D01*
X21944957Y-15913390D01*
X22322552Y-15864747D01*
X22687497Y-15817766D01*
X23038714Y-15772585D01*
X23375122Y-15729343D01*
X23695642Y-15688178D01*
X23999194Y-15649228D01*
X24284699Y-15612631D01*
X24551076Y-15578527D01*
X24797247Y-15547052D01*
X25022132Y-15518347D01*
X25224651Y-15492548D01*
X25403725Y-15469794D01*
X25558273Y-15450225D01*
X25687217Y-15433977D01*
X25789476Y-15421189D01*
X25863971Y-15412000D01*
X25909623Y-15406548D01*
X25925352Y-15404972D01*
X25925468Y-15405874D01*
G37*
G36*
X25395885Y-22387514D02*
G01*
X25398268Y-22401179D01*
X25400442Y-22427553D01*
X25402417Y-22467794D01*
X25404200Y-22523063D01*
X25405800Y-22594519D01*
X25407224Y-22683322D01*
X25408481Y-22790630D01*
X25409580Y-22917605D01*
X25410527Y-23065404D01*
X25411333Y-23235189D01*
X25412004Y-23428118D01*
X25412550Y-23645351D01*
X25412978Y-23888048D01*
X25413296Y-24157367D01*
X25413513Y-24454470D01*
X25413638Y-24780515D01*
X25413677Y-25136661D01*
X25413677Y-27887677D01*
X25379392Y-27887677D01*
X25378794Y-27887662D01*
X25356830Y-27886563D01*
X25304904Y-27883768D01*
X25224120Y-27879339D01*
X25115584Y-27873338D01*
X24980401Y-27865826D01*
X24819675Y-27856867D01*
X24634512Y-27846521D01*
X24426017Y-27834852D01*
X24195294Y-27821921D01*
X23943450Y-27807790D01*
X23671589Y-27792522D01*
X23380816Y-27776178D01*
X23072236Y-27758821D01*
X22746954Y-27740512D01*
X22406076Y-27721314D01*
X22050706Y-27701289D01*
X21681949Y-27680499D01*
X21300911Y-27659006D01*
X20908696Y-27636872D01*
X20506410Y-27614160D01*
X20095157Y-27590930D01*
X19676044Y-27567246D01*
X19619396Y-27564044D01*
X19201376Y-27540421D01*
X18791411Y-27517262D01*
X18390602Y-27494627D01*
X18000052Y-27472578D01*
X17620864Y-27451179D01*
X17254142Y-27430491D01*
X16900987Y-27410576D01*
X16562502Y-27391496D01*
X16239791Y-27373314D01*
X15933956Y-27356090D01*
X15646099Y-27339888D01*
X15377324Y-27324769D01*
X15128732Y-27310795D01*
X14901428Y-27298029D01*
X14696514Y-27286533D01*
X14515091Y-27276368D01*
X14358264Y-27267596D01*
X14227135Y-27260281D01*
X14122807Y-27254483D01*
X14046381Y-27250264D01*
X13998962Y-27247688D01*
X13981652Y-27246815D01*
X13980281Y-27246592D01*
X13976806Y-27243249D01*
X13973682Y-27234698D01*
X13970889Y-27219406D01*
X13968410Y-27195841D01*
X13966226Y-27162469D01*
X13964320Y-27117758D01*
X13962671Y-27060177D01*
X13961262Y-26988191D01*
X13960075Y-26900270D01*
X13959091Y-26794880D01*
X13958292Y-26670488D01*
X13957659Y-26525562D01*
X13957174Y-26358571D01*
X13956819Y-26167980D01*
X13956574Y-25952258D01*
X13956423Y-25709872D01*
X13956345Y-25439289D01*
X13956323Y-25138978D01*
X13956323Y-23031141D01*
X14085277Y-23021102D01*
X14171386Y-23014519D01*
X14237649Y-23010773D01*
X14282747Y-23011596D01*
X14311847Y-23018215D01*
X14330116Y-23031858D01*
X14342722Y-23053752D01*
X14354832Y-23085123D01*
X14399561Y-23196599D01*
X14498866Y-23405463D01*
X14619028Y-23619691D01*
X14756006Y-23832767D01*
X14905761Y-24038174D01*
X15064253Y-24229395D01*
X15153516Y-24326823D01*
X15413416Y-24579810D01*
X15695836Y-24813726D01*
X15998367Y-25027517D01*
X16318597Y-25220128D01*
X16654115Y-25390504D01*
X17002511Y-25537592D01*
X17361374Y-25660336D01*
X17728293Y-25757682D01*
X18100857Y-25828576D01*
X18476656Y-25871963D01*
X18853278Y-25886788D01*
X19047747Y-25883519D01*
X19317433Y-25865811D01*
X19569451Y-25831965D01*
X19809738Y-25781112D01*
X20044229Y-25712382D01*
X20222323Y-25646805D01*
X20417571Y-25557215D01*
X20584801Y-25458555D01*
X20723427Y-25351232D01*
X20832864Y-25235649D01*
X20912525Y-25112211D01*
X20935195Y-25065964D01*
X20952403Y-25022603D01*
X20961876Y-24980301D01*
X20965891Y-24928288D01*
X20966723Y-24855795D01*
X20966269Y-24799006D01*
X20963112Y-24741995D01*
X20955030Y-24697338D01*
X20939830Y-24654200D01*
X20915321Y-24601745D01*
X20864832Y-24517258D01*
X20772484Y-24412151D01*
X20657134Y-24322583D01*
X20522011Y-24250192D01*
X20370343Y-24196618D01*
X20205358Y-24163498D01*
X20030285Y-24152472D01*
X19994107Y-24152805D01*
X19906077Y-24156321D01*
X19824920Y-24164845D01*
X19741605Y-24179882D01*
X19647101Y-24202940D01*
X19532378Y-24235525D01*
X19451512Y-24257432D01*
X19276510Y-24294378D01*
X19086458Y-24322956D01*
X18891589Y-24342029D01*
X18702134Y-24350461D01*
X18528323Y-24347114D01*
X18359703Y-24333768D01*
X18056500Y-24290830D01*
X17767845Y-24223602D01*
X17489028Y-24130882D01*
X17215339Y-24011464D01*
X17207769Y-24007760D01*
X17025168Y-23912304D01*
X16865147Y-23814902D01*
X16719607Y-23709720D01*
X16580449Y-23590924D01*
X16439575Y-23452681D01*
X16401557Y-23412126D01*
X16334703Y-23336037D01*
X16269326Y-23256275D01*
X16208164Y-23176720D01*
X16153958Y-23101246D01*
X16109447Y-23033731D01*
X16077372Y-22978051D01*
X16060472Y-22938084D01*
X16061487Y-22917706D01*
X16061811Y-22917618D01*
X16081625Y-22915941D01*
X16130993Y-22912603D01*
X16208439Y-22907689D01*
X16312486Y-22901283D01*
X16441659Y-22893469D01*
X16594482Y-22884332D01*
X16769478Y-22873955D01*
X16965172Y-22862424D01*
X17180087Y-22849822D01*
X17412747Y-22836233D01*
X17661675Y-22821743D01*
X17925397Y-22806434D01*
X18202435Y-22790392D01*
X18491314Y-22773701D01*
X18790557Y-22756445D01*
X19098689Y-22738708D01*
X19414233Y-22720574D01*
X19735713Y-22702128D01*
X20061653Y-22683455D01*
X20390577Y-22664637D01*
X20721008Y-22645761D01*
X21051471Y-22626909D01*
X21380490Y-22608167D01*
X21706588Y-22589618D01*
X22028289Y-22571346D01*
X22344117Y-22553437D01*
X22652596Y-22535974D01*
X22952250Y-22519041D01*
X23241603Y-22502724D01*
X23519178Y-22487105D01*
X23783500Y-22472270D01*
X24033093Y-22458303D01*
X24266479Y-22445287D01*
X24482184Y-22433308D01*
X24678730Y-22422449D01*
X24854643Y-22412795D01*
X25008445Y-22404430D01*
X25138661Y-22397438D01*
X25243815Y-22391904D01*
X25322429Y-22387911D01*
X25373030Y-22385545D01*
X25394139Y-22384889D01*
X25395885Y-22387514D01*
G37*
G36*
X25336533Y-21053950D02*
G01*
X25336423Y-21213338D01*
X25335484Y-21358720D01*
X25333688Y-21480659D01*
X25330773Y-21582164D01*
X25326467Y-21668690D01*
X25324211Y-21697790D01*
X25320498Y-21745687D01*
X25312592Y-21818610D01*
X25302477Y-21892910D01*
X25298621Y-21918662D01*
X25286069Y-21997056D01*
X25274230Y-22063560D01*
X25264287Y-22111814D01*
X25257420Y-22135459D01*
X25256678Y-22136257D01*
X25249994Y-22138883D01*
X25235918Y-22141776D01*
X25213457Y-22144998D01*
X25181620Y-22148609D01*
X25139412Y-22152670D01*
X25085842Y-22157243D01*
X25019918Y-22162388D01*
X24940646Y-22168166D01*
X24847034Y-22174639D01*
X24738089Y-22181868D01*
X24612819Y-22189912D01*
X24470232Y-22198835D01*
X24309334Y-22208695D01*
X24129134Y-22219555D01*
X23928638Y-22231476D01*
X23706855Y-22244518D01*
X23462791Y-22258743D01*
X23195453Y-22274211D01*
X22903851Y-22290984D01*
X22586990Y-22309122D01*
X22243878Y-22328687D01*
X21873523Y-22349740D01*
X21474933Y-22372341D01*
X21047113Y-22396552D01*
X20589073Y-22422433D01*
X20585004Y-22422663D01*
X20204498Y-22444156D01*
X19831426Y-22465242D01*
X19467041Y-22485850D01*
X19112593Y-22505907D01*
X18769334Y-22525344D01*
X18438516Y-22544088D01*
X18121389Y-22562069D01*
X17819206Y-22579216D01*
X17533217Y-22595457D01*
X17264675Y-22610722D01*
X17014830Y-22624938D01*
X16784934Y-22638035D01*
X16576239Y-22649942D01*
X16389996Y-22660587D01*
X16227456Y-22669900D01*
X16089870Y-22677809D01*
X15978491Y-22684243D01*
X15894570Y-22689131D01*
X15839358Y-22692401D01*
X15814106Y-22693984D01*
X15694597Y-22702644D01*
X15738651Y-22805960D01*
X15804749Y-22948872D01*
X15943818Y-23193348D01*
X16111124Y-23426403D01*
X16307545Y-23649338D01*
X16375946Y-23717487D01*
X16594217Y-23906040D01*
X16833088Y-24072901D01*
X17090434Y-24217316D01*
X17364130Y-24338532D01*
X17652050Y-24435794D01*
X17952068Y-24508349D01*
X18262060Y-24555442D01*
X18579900Y-24576320D01*
X18903462Y-24570229D01*
X18958929Y-24566536D01*
X19083243Y-24555397D01*
X19202891Y-24539888D01*
X19324680Y-24518740D01*
X19455418Y-24490689D01*
X19601912Y-24454466D01*
X19770969Y-24408805D01*
X19802048Y-24401594D01*
X19886490Y-24389963D01*
X19985300Y-24383897D01*
X20087237Y-24383578D01*
X20181058Y-24389189D01*
X20255523Y-24400913D01*
X20284589Y-24408445D01*
X20412013Y-24453527D01*
X20522761Y-24512703D01*
X20614411Y-24583343D01*
X20684538Y-24662821D01*
X20730720Y-24748506D01*
X20750532Y-24837772D01*
X20741551Y-24927990D01*
X20728560Y-24967197D01*
X20674439Y-25065216D01*
X20591405Y-25159798D01*
X20481101Y-25249866D01*
X20345170Y-25334349D01*
X20185255Y-25412171D01*
X20002999Y-25482258D01*
X19800045Y-25543536D01*
X19578294Y-25594162D01*
X19339701Y-25630556D01*
X19083216Y-25651808D01*
X19063919Y-25652833D01*
X18987159Y-25657041D01*
X18922840Y-25660768D01*
X18877224Y-25663641D01*
X18856569Y-25665288D01*
X18850479Y-25665460D01*
X18817421Y-25664391D01*
X18761819Y-25661623D01*
X18689547Y-25657464D01*
X18606477Y-25652220D01*
X18327040Y-25626661D01*
X17946167Y-25567352D01*
X17571401Y-25479640D01*
X17199268Y-25362671D01*
X16826291Y-25215593D01*
X16595306Y-25107323D01*
X16313662Y-24953022D01*
X16042501Y-24779952D01*
X15785270Y-24590868D01*
X15545421Y-24388524D01*
X15326403Y-24175674D01*
X15131666Y-23955072D01*
X14964660Y-23729472D01*
X14816983Y-23496111D01*
X14687026Y-23260149D01*
X14582975Y-23032369D01*
X14503775Y-22809787D01*
X14448373Y-22589416D01*
X14415716Y-22368272D01*
X14404748Y-22143369D01*
X14407791Y-22024234D01*
X14434634Y-21791553D01*
X14459250Y-21692913D01*
X23093648Y-21692913D01*
X23103082Y-21719072D01*
X23119956Y-21746308D01*
X23152750Y-21792055D01*
X23191358Y-21841670D01*
X23228003Y-21885230D01*
X23254911Y-21912815D01*
X23270579Y-21924065D01*
X23303876Y-21933432D01*
X23340061Y-21921099D01*
X23383104Y-21885122D01*
X23436976Y-21823552D01*
X23471308Y-21780361D01*
X23505792Y-21731527D01*
X23519184Y-21697790D01*
X23509451Y-21676181D01*
X23474558Y-21663728D01*
X23412473Y-21657462D01*
X23321162Y-21654413D01*
X23241768Y-21653391D01*
X23170284Y-21655455D01*
X23123961Y-21662079D01*
X23099512Y-21674241D01*
X23093648Y-21692913D01*
X14459250Y-21692913D01*
X14489626Y-21571195D01*
X14573313Y-21361248D01*
X14686244Y-21159801D01*
X14692782Y-21149740D01*
X14840339Y-20951854D01*
X15014341Y-20769002D01*
X15215038Y-20601015D01*
X15442678Y-20447726D01*
X15697510Y-20308965D01*
X15979785Y-20184563D01*
X16289751Y-20074352D01*
X16572494Y-19994680D01*
X16892717Y-19930043D01*
X17206955Y-19894152D01*
X17513997Y-19887026D01*
X17812632Y-19908687D01*
X18101647Y-19959155D01*
X18379831Y-20038452D01*
X18414926Y-20050748D01*
X18541090Y-20098844D01*
X18668382Y-20153963D01*
X18800706Y-20218161D01*
X18941962Y-20293496D01*
X19096054Y-20382024D01*
X19266884Y-20485802D01*
X19458354Y-20606887D01*
X19553298Y-20667465D01*
X19709579Y-20764861D01*
X19846150Y-20846256D01*
X19966488Y-20913367D01*
X20074068Y-20967911D01*
X20172367Y-21011604D01*
X20264862Y-21046163D01*
X20355028Y-21073303D01*
X20446341Y-21094743D01*
X20498746Y-21104463D01*
X20643390Y-21117779D01*
X20770114Y-21106568D01*
X20880443Y-21069916D01*
X20975905Y-21006910D01*
X20981637Y-21000609D01*
X22241600Y-21000609D01*
X22266760Y-21050895D01*
X22317819Y-21099891D01*
X22393416Y-21144630D01*
X22395001Y-21145381D01*
X22475681Y-21175189D01*
X22560570Y-21192738D01*
X22641654Y-21197540D01*
X22710920Y-21189107D01*
X22760354Y-21166953D01*
X22789231Y-21136062D01*
X22805258Y-21086388D01*
X22798429Y-21059094D01*
X23823068Y-21059094D01*
X23824235Y-21086388D01*
X23825247Y-21110065D01*
X23857705Y-21159341D01*
X23876710Y-21176135D01*
X23903939Y-21189825D01*
X23942489Y-21196022D01*
X24002290Y-21197336D01*
X24028186Y-21196559D01*
X24121797Y-21183142D01*
X24210526Y-21155469D01*
X24287793Y-21116653D01*
X24347014Y-21069805D01*
X24381609Y-21018035D01*
X24383635Y-21011933D01*
X24383677Y-20962313D01*
X24360029Y-20916051D01*
X24318089Y-20884498D01*
X24282397Y-20874685D01*
X24210105Y-20869978D01*
X24126817Y-20877226D01*
X24042922Y-20895284D01*
X23968810Y-20923005D01*
X23906351Y-20958862D01*
X23850369Y-21008127D01*
X23823068Y-21059094D01*
X22798429Y-21059094D01*
X22792073Y-21033693D01*
X22749912Y-20982098D01*
X22733677Y-20968835D01*
X22662322Y-20925857D01*
X22579375Y-20893890D01*
X22492345Y-20874219D01*
X22408738Y-20868132D01*
X22336059Y-20876916D01*
X22281816Y-20901857D01*
X22274439Y-20908036D01*
X22243706Y-20952001D01*
X22241600Y-21000609D01*
X20981637Y-21000609D01*
X21058025Y-20916636D01*
X21128329Y-20798180D01*
X21188344Y-20650631D01*
X21200985Y-20612063D01*
X21222991Y-20536065D01*
X21243589Y-20451437D01*
X21263463Y-20354424D01*
X21283297Y-20241276D01*
X21303776Y-20108239D01*
X21325584Y-19951562D01*
X21349406Y-19767492D01*
X21358036Y-19699845D01*
X21381919Y-19523976D01*
X21405064Y-19373538D01*
X21428475Y-19244251D01*
X21453158Y-19131838D01*
X21480115Y-19032020D01*
X21510353Y-18940518D01*
X21544876Y-18853054D01*
X21584687Y-18765349D01*
X21617086Y-18705118D01*
X21658932Y-18641687D01*
X21701506Y-18589281D01*
X21740083Y-18553633D01*
X21769940Y-18540477D01*
X21778659Y-18541989D01*
X21813528Y-18560458D01*
X21858159Y-18595182D01*
X21905364Y-18640146D01*
X21947949Y-18689337D01*
X21956662Y-18700807D01*
X22037663Y-18818618D01*
X22119577Y-18955738D01*
X22198091Y-19103614D01*
X22268888Y-19253691D01*
X22327654Y-19397415D01*
X22370075Y-19526232D01*
X22377194Y-19551608D01*
X22393319Y-19603603D01*
X22406452Y-19632554D01*
X22419662Y-19643897D01*
X22436016Y-19643063D01*
X22445224Y-19640636D01*
X22513675Y-19624480D01*
X22603870Y-19605377D01*
X22708013Y-19584790D01*
X22818307Y-19564182D01*
X22926957Y-19545018D01*
X23026166Y-19528761D01*
X23108139Y-19516874D01*
X23125334Y-19514712D01*
X23236090Y-19503749D01*
X23356858Y-19496026D01*
X23480794Y-19491618D01*
X23601057Y-19490597D01*
X23710803Y-19493040D01*
X23803191Y-19499018D01*
X23871378Y-19508608D01*
X23912693Y-19516424D01*
X23951919Y-19521462D01*
X23969972Y-19520469D01*
X23973659Y-19511689D01*
X23984829Y-19476958D01*
X24001530Y-19420824D01*
X24022231Y-19348477D01*
X24045399Y-19265104D01*
X24048461Y-19253942D01*
X24084004Y-19126208D01*
X24114202Y-19022446D01*
X24141105Y-18936751D01*
X24166762Y-18863223D01*
X24193226Y-18795958D01*
X24222545Y-18729053D01*
X24256771Y-18656606D01*
X24314800Y-18547791D01*
X24371812Y-18465702D01*
X24427472Y-18413316D01*
X24482810Y-18390776D01*
X24538858Y-18398226D01*
X24596646Y-18435810D01*
X24657207Y-18503670D01*
X24721572Y-18601949D01*
X24790771Y-18730791D01*
X24819817Y-18791255D01*
X24890338Y-18955750D01*
X24961087Y-19144198D01*
X25030500Y-19351510D01*
X25097013Y-19572601D01*
X25159060Y-19802384D01*
X25215077Y-20035771D01*
X25263499Y-20267677D01*
X25271232Y-20308299D01*
X25290883Y-20417240D01*
X25306321Y-20515358D01*
X25318010Y-20608662D01*
X25326411Y-20703164D01*
X25331990Y-20804873D01*
X25335209Y-20919798D01*
X25335629Y-20962313D01*
X25336533Y-21053950D01*
G37*
%LPC*%
D13*
X54330000Y-29972000D03*
X51790000Y-29972000D03*
X49250000Y-29972000D03*
X46710000Y-29972000D03*
X44170000Y-29972000D03*
X41630000Y-29972000D03*
X39090000Y-29972000D03*
X36550000Y-29972000D03*
X34010000Y-29972000D03*
X31470000Y-29972000D03*
X28930000Y-29972000D03*
X26390000Y-29972000D03*
X23850000Y-29972000D03*
X21310000Y-29972000D03*
X18770000Y-29972000D03*
D14*
X16230000Y-29972000D03*
%LPD*%
M02*
