G04 #@! TF.GenerationSoftware,KiCad,Pcbnew,8.0.4*
G04 #@! TF.CreationDate,2024-08-16T15:34:14+02:00*
G04 #@! TF.ProjectId,AT8,4154382e-6b69-4636-9164-5f7063625858,00*
G04 #@! TF.SameCoordinates,Original*
G04 #@! TF.FileFunction,Paste,Top*
G04 #@! TF.FilePolarity,Positive*
%FSLAX46Y46*%
G04 Gerber Fmt 4.6, Leading zero omitted, Abs format (unit mm)*
G04 Created by KiCad (PCBNEW 8.0.4) date 2024-08-16 15:34:14*
%MOMM*%
%LPD*%
G01*
G04 APERTURE LIST*
G04 Aperture macros list*
%AMRoundRect*
0 Rectangle with rounded corners*
0 $1 Rounding radius*
0 $2 $3 $4 $5 $6 $7 $8 $9 X,Y pos of 4 corners*
0 Add a 4 corners polygon primitive as box body*
4,1,4,$2,$3,$4,$5,$6,$7,$8,$9,$2,$3,0*
0 Add four circle primitives for the rounded corners*
1,1,$1+$1,$2,$3*
1,1,$1+$1,$4,$5*
1,1,$1+$1,$6,$7*
1,1,$1+$1,$8,$9*
0 Add four rect primitives between the rounded corners*
20,1,$1+$1,$2,$3,$4,$5,0*
20,1,$1+$1,$4,$5,$6,$7,0*
20,1,$1+$1,$6,$7,$8,$9,0*
20,1,$1+$1,$8,$9,$2,$3,0*%
G04 Aperture macros list end*
%ADD10RoundRect,0.250000X-0.450000X0.262500X-0.450000X-0.262500X0.450000X-0.262500X0.450000X0.262500X0*%
%ADD11RoundRect,0.250000X-0.250000X-0.475000X0.250000X-0.475000X0.250000X0.475000X-0.250000X0.475000X0*%
%ADD12RoundRect,0.250000X0.262500X0.450000X-0.262500X0.450000X-0.262500X-0.450000X0.262500X-0.450000X0*%
%ADD13RoundRect,0.250000X-0.262500X-0.450000X0.262500X-0.450000X0.262500X0.450000X-0.262500X0.450000X0*%
%ADD14RoundRect,0.250000X0.250000X0.475000X-0.250000X0.475000X-0.250000X-0.475000X0.250000X-0.475000X0*%
%ADD15RoundRect,0.250000X0.450000X-0.262500X0.450000X0.262500X-0.450000X0.262500X-0.450000X-0.262500X0*%
%ADD16RoundRect,0.150000X-0.825000X-0.150000X0.825000X-0.150000X0.825000X0.150000X-0.825000X0.150000X0*%
%ADD17RoundRect,0.250000X0.475000X-0.250000X0.475000X0.250000X-0.475000X0.250000X-0.475000X-0.250000X0*%
G04 APERTURE END LIST*
D10*
X48742000Y-23471500D03*
X48742000Y-25296500D03*
D11*
X48403500Y-19558000D03*
X50303500Y-19558000D03*
D12*
X50266000Y-17272000D03*
X48441000Y-17272000D03*
X53822000Y-17272000D03*
X51997000Y-17272000D03*
D13*
X21921500Y-16256000D03*
X23746500Y-16256000D03*
D14*
X36841500Y-24892000D03*
X34941500Y-24892000D03*
D13*
X27255500Y-15494000D03*
X29080500Y-15494000D03*
D15*
X38862000Y-16848500D03*
X38862000Y-15023500D03*
D16*
X41290500Y-17018000D03*
X41290500Y-18288000D03*
X41290500Y-19558000D03*
X41290500Y-20828000D03*
X41290500Y-22098000D03*
X41290500Y-23368000D03*
X41290500Y-24638000D03*
X46240500Y-24638000D03*
X46240500Y-23368000D03*
X46240500Y-22098000D03*
X46240500Y-20828000D03*
X46240500Y-19558000D03*
X46240500Y-18288000D03*
X46240500Y-17018000D03*
D13*
X28551500Y-20508000D03*
X30376500Y-20508000D03*
D12*
X36954500Y-22733000D03*
X35129500Y-22733000D03*
X52806000Y-22860000D03*
X50981000Y-22860000D03*
X32890500Y-16190000D03*
X31065500Y-16190000D03*
D13*
X27281500Y-17714000D03*
X29106500Y-17714000D03*
X39090000Y-26924000D03*
X40915000Y-26924000D03*
X33097500Y-26924000D03*
X34922500Y-26924000D03*
X50981000Y-26096000D03*
X52806000Y-26096000D03*
D10*
X32613000Y-22963500D03*
X32613000Y-24788500D03*
D17*
X36042000Y-16886000D03*
X36042000Y-14986000D03*
D12*
X44574500Y-26416000D03*
X42749500Y-26416000D03*
D10*
X28956000Y-22389500D03*
X28956000Y-24214500D03*
D17*
X38862000Y-20762000D03*
X38862000Y-18862000D03*
D12*
X33906500Y-19558000D03*
X32081500Y-19558000D03*
M02*
